<svg width="1584" height="396" viewBox="0 0 1584 396" fill="none" xmlns="http://www.w3.org/2000/svg">
<rect width="1584" height="396" fill="#F5F5F5"/>
<g id="Awesome banner" clip-path="url(#clip0_0_1)">
<rect width="1584" height="396" fill="url(#paint0_linear_0_1)"/>
<ellipse id="Ellipse 2" cx="323" cy="64" rx="285" ry="288" fill="url(#paint1_linear_0_1)" fill-opacity="0.1"/>
<g id="copyright">
<path d="M75.95 334.52L72.30 334.52L72.30 311.16L77.20 311.16L83.70 330.04Q83.60 329.02 83.50 327.62Q83.41 326.23 83.33 324.79Q83.25 323.35 83.25 322.23L83.25 311.16L86.90 311.16L86.90 334.52L82 334.52L75.57 315.64Q75.63 316.57 75.73 317.88Q75.82 319.19 75.89 320.57Q75.95 321.94 75.95 323.10L75.95 334.52M98.80 334.84Q96.46 334.84 94.67 333.96Q92.88 333.08 91.89 331.53Q90.90 329.98 90.90 327.93Q90.90 325.78 92.13 324.18Q93.36 322.58 95.34 322.17L95.34 322.10Q93.65 321.75 92.61 320.38Q91.57 319 91.57 317.11Q91.57 315.26 92.48 313.85Q93.39 312.44 95.02 311.64Q96.66 310.84 98.80 310.84Q100.94 310.84 102.59 311.64Q104.24 312.44 105.15 313.85Q106.06 315.26 106.06 317.11Q106.06 319 105.01 320.38Q103.95 321.75 102.26 322.10L102.26 322.17Q104.24 322.58 105.47 324.18Q106.70 325.78 106.70 327.93Q106.70 329.98 105.71 331.53Q104.72 333.08 102.93 333.96Q101.14 334.84 98.80 334.84M98.80 320.73Q100.30 320.73 101.23 319.82Q102.16 318.90 102.16 317.46Q102.16 315.99 101.23 315.08Q100.30 314.17 98.80 314.17Q97.30 314.17 96.37 315.08Q95.44 315.99 95.44 317.46Q95.44 318.90 96.37 319.82Q97.30 320.73 98.80 320.73M98.80 331.45Q100.56 331.45 101.68 330.42Q102.80 329.40 102.80 327.74Q102.80 326.04 101.68 325Q100.56 323.96 98.80 323.96Q97.04 323.96 95.92 325Q94.80 326.04 94.80 327.74Q94.80 329.40 95.92 330.42Q97.04 331.45 98.80 331.45M114.35 334.52L110.70 334.52L110.70 311.16L115.60 311.16L122.10 330.04Q122 329.02 121.90 327.62Q121.81 326.23 121.73 324.79Q121.65 323.35 121.65 322.23L121.65 311.16L125.30 311.16L125.30 334.52L120.40 334.52L113.97 315.64Q114.03 316.57 114.13 317.88Q114.22 319.19 114.29 320.57Q114.35 321.94 114.35 323.10" fill="white" fill-opacity="0.9"/>
<path d="M161.48 325.24L151.24 325.24L151.24 322.68L161.48 322.68" fill="white" fill-opacity="0.9"/>
<path d="M195.02 334.84Q191.82 334.84 189.96 333.05Q188.11 331.26 188.11 328.12L188.11 317.56Q188.11 314.42 189.96 312.63Q191.82 310.84 195.02 310.84Q198.15 310.84 200.01 312.65Q201.87 314.46 201.87 317.56L198.99 317.56Q198.99 315.58 197.95 314.50Q196.91 313.43 195.02 313.43Q193.13 313.43 192.06 314.50Q190.99 315.58 190.99 317.56L190.99 328.12Q190.99 330.10 192.06 331.18Q193.13 332.25 195.02 332.25Q196.91 332.25 197.95 331.18Q198.99 330.10 198.99 328.12L201.87 328.12Q201.87 331.22 200.01 333.03Q198.15 334.84 195.02 334.84" fill="white" fill-opacity="0.9"/>
<path d="M213.96 334.84Q210.83 334.84 209 333.02Q207.18 331.19 207.18 327.80L207.18 317.88Q207.18 314.49 209 312.66Q210.83 310.84 213.96 310.84Q217.10 310.84 218.92 312.66Q220.75 314.49 220.75 317.85L220.75 327.80Q220.75 331.19 218.92 333.02Q217.10 334.84 213.96 334.84M213.96 332.25Q215.85 332.25 216.86 331.18Q217.87 330.10 217.87 328.12L217.87 317.56Q217.87 315.58 216.86 314.50Q215.85 313.43 213.96 313.43Q212.11 313.43 211.08 314.50Q210.06 315.58 210.06 317.56L210.06 328.12Q210.06 330.10 211.08 331.18Q212.11 332.25 213.96 332.25" fill="white" fill-opacity="0.9"/>
<path d="M228.65 334.52L225.87 334.52L225.87 311.16L230.12 311.16L233.10 321.27L236.20 311.16L240.46 311.16L240.46 334.52L237.67 334.52L237.67 323.48Q237.67 321.91 237.72 319.88Q237.77 317.85 237.87 315.77Q237.96 313.69 238.09 312.02L234.31 324.09L231.82 324.09L228.20 312.31Q228.46 314.68 228.55 317.50Q228.65 320.31 228.65 323.48" fill="white" fill-opacity="0.9"/>
<path d="M247.85 334.52L245.07 334.52L245.07 311.16L249.32 311.16L252.30 321.27L255.40 311.16L259.66 311.16L259.66 334.52L256.87 334.52L256.87 323.48Q256.87 321.91 256.92 319.88Q256.97 317.85 257.07 315.77Q257.16 313.69 257.29 312.02L253.51 324.09L251.02 324.09L247.40 312.31Q247.66 314.68 247.75 317.50Q247.85 320.31 247.85 323.48" fill="white" fill-opacity="0.9"/>
<path d="M271.56 334.84Q268.30 334.84 266.57 333.03Q264.84 331.22 264.84 328.12L264.84 311.16L267.72 311.16L267.72 328.12Q267.72 330.04 268.67 331.16Q269.61 332.28 271.56 332.28Q273.48 332.28 274.44 331.16Q275.40 330.04 275.40 328.12L275.40 311.16L278.28 311.16L278.28 328.12Q278.28 331.26 276.57 333.05Q274.86 334.84 271.56 334.84" fill="white" fill-opacity="0.9"/>
<path d="M286.83 334.52L284.04 334.52L284.04 311.16L287.88 311.16L295.02 331.16Q294.95 330.36 294.87 329.19Q294.79 328.02 294.75 326.73Q294.70 325.43 294.70 324.28L294.70 311.16L297.48 311.16L297.48 334.52L293.64 334.52L286.54 314.52Q286.60 315.29 286.67 316.46Q286.73 317.62 286.78 318.92Q286.83 320.22 286.83 321.40" fill="white" fill-opacity="0.9"/>
<path d="M316.20 334.52L303.72 334.52L303.72 331.90L308.49 331.90L308.49 313.78L303.72 313.78L303.72 311.16L316.20 311.16L316.20 313.78L311.43 313.78L311.43 331.90L316.20 331.90" fill="white" fill-opacity="0.9"/>
<path d="M330.60 334.52L327.72 334.52L327.72 313.78L321.32 313.78L321.32 311.16L337 311.16L337 313.78L330.60 313.78" fill="white" fill-opacity="0.9"/>
<path d="M349.80 334.52L346.92 334.52L346.92 325.78L339.88 311.16L342.95 311.16L347.50 320.76Q347.88 321.56 348.11 322.12Q348.33 322.68 348.39 322.94Q348.46 322.68 348.70 322.12Q348.94 321.56 349.32 320.76L353.87 311.16L356.84 311.16L349.80 325.78" fill="white" fill-opacity="0.9"/>
<path d="M382.83 334.52L380.04 334.52L380.04 311.16L383.88 311.16L391.02 331.16Q390.95 330.36 390.87 329.19Q390.79 328.02 390.75 326.73Q390.70 325.43 390.70 324.28L390.70 311.16L393.48 311.16L393.48 334.52L389.64 334.52L382.54 314.52Q382.60 315.29 382.67 316.46Q382.73 317.62 382.78 318.92Q382.83 320.22 382.83 321.40" fill="white" fill-opacity="0.9"/>
<path d="M405.96 334.84Q402.83 334.84 401 333.02Q399.18 331.19 399.18 327.80L399.18 317.88Q399.18 314.49 401 312.66Q402.83 310.84 405.96 310.84Q409.10 310.84 410.92 312.66Q412.75 314.49 412.75 317.85L412.75 327.80Q412.75 331.19 410.92 333.02Q409.10 334.84 405.96 334.84M405.96 332.25Q407.85 332.25 408.86 331.18Q409.87 330.10 409.87 328.12L409.87 317.56Q409.87 315.58 408.86 314.50Q407.85 313.43 405.96 313.43Q404.11 313.43 403.08 314.50Q402.06 315.58 402.06 317.56L402.06 328.12Q402.06 330.10 403.08 331.18Q404.11 332.25 405.96 332.25" fill="white" fill-opacity="0.9"/>
<path d="M424.55 334.52L418.51 334.52L418.51 311.16L424.55 311.16Q426.83 311.16 428.47 312.02Q430.12 312.89 431.03 314.46Q431.95 316.02 431.95 318.17L431.95 327.48Q431.95 329.62 431.03 331.21Q430.12 332.79 428.47 333.66Q426.83 334.52 424.55 334.52M421.39 313.72L421.39 331.96L424.55 331.96Q426.67 331.96 427.87 330.78Q429.07 329.59 429.07 327.48L429.07 318.17Q429.07 316.09 427.87 314.90Q426.67 313.72 424.55 313.72" fill="white" fill-opacity="0.9"/>
<path d="M451.40 334.52L437.96 334.52L437.96 311.16L451.40 311.16L451.40 313.78L440.81 313.78L440.81 321.02L450.28 321.02L450.28 323.58L440.81 323.58L440.81 331.90L451.40 331.90" fill="white" fill-opacity="0.9"/>
<path d="M463.69 334.84Q460.30 334.84 458.28 333.05Q456.27 331.26 456.27 328.12L459.15 328.12Q459.15 330.07 460.39 331.18Q461.64 332.28 463.69 332.28Q465.67 332.28 466.86 331.13Q468.04 329.98 468.04 328.12Q468.04 326.71 467.29 325.67Q466.54 324.63 465.13 324.25L461.58 323.26Q459.37 322.62 458.11 320.97Q456.84 319.32 456.84 317.08Q456.84 315.22 457.67 313.82Q458.51 312.41 460.01 311.62Q461.51 310.84 463.47 310.84Q465.45 310.84 466.97 311.62Q468.49 312.41 469.35 313.80Q470.22 315.19 470.22 317.02L467.34 317.02Q467.34 315.42 466.25 314.41Q465.16 313.40 463.47 313.40Q461.77 313.40 460.71 314.41Q459.66 315.42 459.66 317.02Q459.66 318.30 460.35 319.21Q461.03 320.12 462.28 320.47L465.93 321.50Q468.27 322.14 469.56 323.91Q470.86 325.69 470.86 328.12Q470.86 331.19 468.91 333.02Q466.95 334.84 463.69 334.84" fill="white" fill-opacity="0.9"/>
</g>
<path d="M77.56 197.64L72.23 197.64L72.23 180.12L77.20 180.12Q79.60 180.12 80.96 181.32Q82.31 182.52 82.31 184.66Q82.31 186 81.46 187.08Q80.61 188.16 79.24 188.42L79.24 188.50Q80.27 188.62 81.05 189.22Q81.83 189.82 82.28 190.74Q82.72 191.66 82.72 192.77Q82.72 195.02 81.34 196.33Q79.96 197.64 77.56 197.64M74.34 182.06L74.34 187.58L77.18 187.58Q78.57 187.58 79.37 186.84Q80.18 186.10 80.18 184.82Q80.18 183.55 79.38 182.81Q78.59 182.06 77.20 182.06L74.34 182.06M74.34 189.46L74.34 195.70L77.32 195.70Q78.83 195.70 79.71 194.89Q80.58 194.09 80.58 192.70Q80.58 191.26 79.71 190.36Q78.83 189.46 77.32 189.46" fill="white" fill-opacity="0.7"/>
<path d="M90.45 197.88Q88.41 197.88 87.21 196.74Q86.01 195.60 86.01 193.75Q86.01 192.53 86.56 191.62Q87.11 190.70 88.10 190.19Q89.08 189.67 90.35 189.67L94.43 189.67L94.43 188.64Q94.43 186.07 91.62 186.07Q90.38 186.07 89.61 186.53Q88.84 186.98 88.79 187.80L86.63 187.80Q86.75 186.24 88.08 185.22Q89.42 184.20 91.62 184.20Q94.02 184.20 95.31 185.35Q96.59 186.50 96.59 188.57L96.59 197.64L94.46 197.64L94.46 195.24L94.41 195.24Q94.22 196.46 93.18 197.17Q92.15 197.88 90.45 197.88M90.98 196.06Q92.56 196.06 93.50 195.29Q94.43 194.52 94.43 193.20L94.43 191.35L90.59 191.35Q89.54 191.35 88.88 191.99Q88.22 192.62 88.22 193.68Q88.22 194.78 88.95 195.42Q89.68 196.06 90.98 196.06" fill="white" fill-opacity="0.7"/>
<path d="MNaN 197.64L107.92 197.64Q106.17 197.64 105.12 196.62Q104.08 195.60 104.08 193.92L104.08 182.09L99.52 182.09L99.52 180.12L106.24 180.12L106.24 193.92Q106.24 194.74 106.70 195.20Q107.15 195.67 107.92 195.67LNaN 195.67" fill="white" fill-opacity="0.7"/>
<path d="M119.25 197.88Q117.21 197.88 116.01 196.74Q114.81 195.60 114.81 193.75Q114.81 192.53 115.36 191.62Q115.91 190.70 116.90 190.19Q117.88 189.67 119.15 189.67L123.23 189.67L123.23 188.64Q123.23 186.07 120.42 186.07Q119.18 186.07 118.41 186.53Q117.64 186.98 117.59 187.80L115.43 187.80Q115.55 186.24 116.88 185.22Q118.22 184.20 120.42 184.20Q122.82 184.20 124.11 185.35Q125.39 186.50 125.39 188.57L125.39 197.64L123.26 197.64L123.26 195.24L123.21 195.24Q123.02 196.46 121.98 197.17Q120.95 197.88 119.25 197.88M119.78 196.06Q121.36 196.06 122.30 195.29Q123.23 194.52 123.23 193.20L123.23 191.35L119.39 191.35Q118.34 191.35 117.68 191.99Q117.02 192.62 117.02 193.68Q117.02 194.78 117.75 195.42Q118.48 196.06 119.78 196.06" fill="white" fill-opacity="0.7"/>
<path d="M131.97 197.64L129.81 197.64L129.81 184.44L131.97 184.44L131.97 186.96L131.99 186.96Q132.16 185.64 133.07 184.92Q133.98 184.20 135.50 184.20Q137.49 184.20 138.66 185.42Q139.84 186.65 139.84 188.76L139.84 197.64L137.68 197.64L137.68 189.14Q137.68 187.63 136.92 186.83Q136.17 186.02 134.87 186.02Q133.53 186.02 132.75 186.86Q131.97 187.70 131.97 189.24" fill="white" fill-opacity="0.7"/>
<path d="M149.39 197.88Q146.99 197.88 145.55 196.54Q144.11 195.19 144.11 192.84L144.11 189.24Q144.11 186.89 145.55 185.54Q146.99 184.20 149.39 184.20Q151.67 184.20 153.08 185.42Q154.48 186.65 154.55 188.76L152.39 188.76Q152.32 187.49 151.53 186.80Q150.74 186.12 149.39 186.12Q147.98 186.12 147.12 186.92Q146.27 187.73 146.27 189.22L146.27 192.84Q146.27 194.33 147.12 195.14Q147.98 195.96 149.39 195.96Q150.74 195.96 151.53 195.26Q152.32 194.57 152.39 193.32L154.55 193.32Q154.48 195.43 153.08 196.66Q151.67 197.88 149.39 197.88" fill="white" fill-opacity="0.7"/>
<path d="M163.60 197.88Q161.27 197.88 159.84 196.48Q158.42 195.07 158.42 192.60L158.42 189.48Q158.42 187.01 159.84 185.60Q161.27 184.20 163.60 184.20Q165.16 184.20 166.32 184.82Q167.49 185.45 168.14 186.58Q168.78 187.70 168.78 189.24L168.78 191.59L160.53 191.59L160.53 192.84Q160.53 194.30 161.37 195.16Q162.21 196.01 163.60 196.01Q164.80 196.01 165.58 195.54Q166.36 195.07 166.53 194.28L168.69 194.28Q168.47 195.94 167.08 196.91Q165.69 197.88 163.60 197.88M160.53 189.24L160.53 189.91L166.67 189.91L166.67 189.24Q166.67 187.68 165.87 186.83Q165.06 185.98 163.60 185.98Q162.14 185.98 161.33 186.83Q160.53 187.68 160.53 189.24" fill="white" fill-opacity="0.7"/>
<path d="M192.59 197.88Q190.19 197.88 188.80 196.54Q187.41 195.19 187.41 192.84L187.41 184.92Q187.41 182.57 188.80 181.22Q190.19 179.88 192.59 179.88Q194.94 179.88 196.34 181.24Q197.73 182.59 197.73 184.92L195.57 184.92Q195.57 183.43 194.79 182.63Q194.01 181.82 192.59 181.82Q191.18 181.82 190.37 182.63Q189.57 183.43 189.57 184.92L189.57 192.84Q189.57 194.33 190.37 195.13Q191.18 195.94 192.59 195.94Q194.01 195.94 194.79 195.13Q195.57 194.33 195.57 192.84L197.73 192.84Q197.73 195.17 196.34 196.52Q194.94 197.88 192.59 197.88" fill="white" fill-opacity="0.7"/>
<path d="M206.80 197.83Q204.42 197.83 203.02 196.44Q201.62 195.05 201.62 192.55L201.62 189.53Q201.62 187.01 203.01 185.63Q204.40 184.25 206.80 184.25Q209.20 184.25 210.59 185.63Q211.98 187.01 211.98 189.53L211.98 192.55Q211.98 195.05 210.58 196.44Q209.18 197.83 206.80 197.83M206.80 195.91Q208.22 195.91 209.02 195.12Q209.82 194.33 209.82 192.79L209.82 189.29Q209.82 187.75 209.02 186.96Q208.22 186.17 206.80 186.17Q205.41 186.17 204.59 186.96Q203.78 187.75 203.78 189.29L203.78 192.79Q203.78 194.33 204.59 195.12Q205.41 195.91 206.80 195.91" fill="white" fill-opacity="0.7"/>
<path d="M218.37 197.64L216.21 197.64L216.21 184.44L218.37 184.44L218.37 186.96L218.39 186.96Q218.56 185.64 219.47 184.92Q220.38 184.20 221.90 184.20Q223.89 184.20 225.06 185.42Q226.24 186.65 226.24 188.76L226.24 197.64L224.08 197.64L224.08 189.14Q224.08 187.63 223.32 186.83Q222.57 186.02 221.27 186.02Q219.93 186.02 219.15 186.86Q218.37 187.70 218.37 189.24" fill="white" fill-opacity="0.7"/>
<path d="M240.76 197.64L236.92 197.64Q235.29 197.64 234.30 196.69Q233.32 195.74 233.32 194.16L233.32 186.41L229.53 186.41L229.53 184.44L233.32 184.44L233.32 180.72L235.48 180.72L235.48 184.44L240.88 184.44L240.88 186.41L235.48 186.41L235.48 194.16Q235.48 194.83 235.88 195.25Q236.27 195.67 236.92 195.67L240.76 195.67" fill="white" fill-opacity="0.7"/>
<path d="M247.65 197.64L245.49 197.64L245.49 184.44L247.65 184.44L247.65 186.96L247.70 186.96Q247.86 185.69 248.78 184.94Q249.69 184.20 251.22 184.20Q253.29 184.20 254.40 185.44Q255.52 186.67 255.52 188.95L255.52 190.08L253.36 190.08L253.36 188.95Q253.36 186.07 250.55 186.07Q249.14 186.07 248.39 186.89Q247.65 187.70 247.65 189.24" fill="white" fill-opacity="0.7"/>
<path d="M264.40 197.83Q262.02 197.83 260.62 196.44Q259.22 195.05 259.22 192.55L259.22 189.53Q259.22 187.01 260.61 185.63QNaN 184.25 264.40 184.25Q266.80 184.25 268.19 185.63Q269.58 187.01 269.58 189.53L269.58 192.55Q269.58 195.05 268.18 196.44Q266.78 197.83 264.40 197.83M264.40 195.91Q265.82 195.91 266.62 195.12Q267.42 194.33 267.42 192.79L267.42 189.29Q267.42 187.75 266.62 186.96Q265.82 186.17 264.40 186.17Q263.01 186.17 262.19 186.96Q261.38 187.75 261.38 189.29L261.38 192.79Q261.38 194.33 262.19 195.12Q263.01 195.91 264.40 195.91" fill="white" fill-opacity="0.7"/>
<path d="M284.80 197.64L280.72 197.64Q278.97 197.64 277.92 196.62Q276.88 195.60 276.88 193.92L276.88 182.09L272.32 182.09L272.32 180.12L279.04 180.12L279.04 193.92Q279.04 194.74 279.50 195.20Q279.95 195.67 280.72 195.67L284.80 195.67" fill="white" fill-opacity="0.7"/>
<path d="M303.81 197.64L301.60 197.64L306.16 180.12L309.06 180.12L313.60 197.64L311.42 197.64L310.26 192.98L304.96 192.98L303.81 197.64M306.74 185.74L305.39 191.16L309.81 191.16L308.46 185.76Q308.08 184.22 307.86 183.19Q307.65 182.16 307.60 181.85Q307.55 182.16 307.34 183.19Q307.12 184.22 306.74 185.74" fill="white" fill-opacity="0.7"/>
<path d="M319.17 197.64L317.01 197.64L317.01 180.12L322.65 180.12Q325.10 180.12 326.55 181.52Q328 182.93 328 185.28Q328 187.63 326.55 189.04Q325.10 190.44 322.65 190.44L319.17 190.44L319.17 197.64M319.17 182.06L319.17 188.50L322.65 188.50Q324.06 188.50 324.92 187.62Q325.77 186.74 325.77 185.28Q325.77 183.79 324.92 182.93Q324.06 182.06 322.65 182.06" fill="white" fill-opacity="0.7"/>
<path d="M341.08 197.64L331.72 197.64L331.72 195.67L335.30 195.67L335.30 182.09L331.72 182.09L331.72 180.12L341.08 180.12L341.08 182.09L337.50 182.09L337.50 195.67L341.08 195.67" fill="white" fill-opacity="0.7"/>
<path d="M371.20 197.64L367.12 197.64Q365.37 197.64 364.32 196.62Q363.28 195.60 363.28 193.92L363.28 182.09L358.72 182.09L358.72 180.12L365.44 180.12L365.44 193.92Q365.44 194.74 365.90 195.20Q366.35 195.67 367.12 195.67L371.20 195.67" fill="white" fill-opacity="0.7"/>
<path d="M379.60 197.88Q377.27 197.88 375.84 196.48Q374.42 195.07 374.42 192.60L374.42 189.48Q374.42 187.01 375.84 185.60Q377.27 184.20 379.60 184.20Q381.16 184.20 382.32 184.82Q383.49 185.45 384.14 186.58Q384.78 187.70 384.78 189.24L384.78 191.59L376.53 191.59L376.53 192.84Q376.53 194.30 377.37 195.16Q378.21 196.01 379.60 196.01Q380.80 196.01 381.58 195.54Q382.36 195.07 382.53 194.28L384.69 194.28Q384.47 195.94 383.08 196.91Q381.69 197.88 379.60 197.88M376.53 189.24L376.53 189.91L382.67 189.91L382.67 189.24Q382.67 187.68 381.87 186.83Q381.06 185.98 379.60 185.98Q378.14 185.98 377.33 186.83Q376.53 187.68 376.53 189.24" fill="white" fill-opacity="0.7"/>
<path d="M399.16 197.64L395.32 197.64Q393.69 197.64 392.70 196.69Q391.72 195.74 391.72 194.16L391.72 186.41L387.93 186.41L387.93 184.44L391.72 184.44L391.72 180.72L393.88 180.72L393.88 184.44L399.28 184.44L399.28 186.41L393.88 186.41L393.88 194.16Q393.88 194.83 394.28 195.25Q394.67 195.67 395.32 195.67L399.16 195.67" fill="white" fill-opacity="0.7"/>
<path d="M408.93 197.83L407.87 197.83Q405.66 197.83 404.45 196.84Q403.24 195.84 403.24 194.02L405.40 194.02Q405.40 194.93 406.05 195.44Q406.70 195.96 407.87 195.96L408.93 195.96Q410.13 195.96 410.79 195.43Q411.45 194.90 411.45 193.94Q411.45 192.24 409.89 192.02L406.24 191.50Q404.90 191.30 404.15 190.38Q403.41 189.46 403.41 187.94Q403.41 186.22 404.60 185.23Q405.78 184.25 407.87 184.25L408.93 184.25Q410.85 184.25 412.06 185.20Q413.27 186.14 413.37 187.68L411.18 187.68Q411.14 186.98 410.52 186.53Q409.91 186.07 408.93 186.07L407.87 186.07Q406.77 186.07 406.14 186.58Q405.52 187.08 405.52 187.94Q405.52 189.34 406.79 189.53L410.20 190.01Q413.56 190.49 413.56 193.94Q413.56 195.79 412.35 196.81Q411.14 197.83 408.93 197.83" fill="white" fill-opacity="0.7"/>
<path d="M436.53 201.96L434.27 201.96L436.22 196.82L431.30 184.44L433.62 184.44L436.74 192.60Q436.94 193.08 437.10 193.61Q437.27 194.14 437.34 194.52Q437.42 194.14 437.58 193.61Q437.75 193.08 437.92 192.60L440.82 184.44L443.10 184.44" fill="white" fill-opacity="0.7"/>
<path d="M451.60 197.83Q449.22 197.83 447.82 196.44Q446.42 195.05 446.42 192.55L446.42 189.53Q446.42 187.01 447.81 185.63Q449.20 184.25 451.60 184.25Q454 184.25 455.39 185.63Q456.78 187.01 456.78 189.53L456.78 192.55Q456.78 195.05 455.38 196.44Q453.98 197.83 451.60 197.83M451.60 195.91Q453.02 195.91 453.82 195.12Q454.62 194.33 454.62 192.79L454.62 189.29Q454.62 187.75 453.82 186.96Q453.02 186.17 451.60 186.17Q450.21 186.17 449.39 186.96Q448.58 187.75 448.58 189.29L448.58 192.79Q448.58 194.33 449.39 195.12Q450.21 195.91 451.60 195.91" fill="white" fill-opacity="0.7"/>
<path d="M465.98 197.88Q463.70 197.88 462.33 196.52Q460.96 195.17 460.96 192.84L460.96 184.44L463.12 184.44L463.12 192.84Q463.12 194.28 463.89 195.13Q464.66 195.98 465.98 195.98Q467.32 195.98 468.10 195.13Q468.88 194.28 468.88 192.84L468.88 184.44L471.04 184.44L471.04 192.84Q471.04 195.17 469.65 196.52Q468.26 197.88 465.98 197.88" fill="white" fill-opacity="0.7"/>
<path d="M499.96 197.64L496.12 197.64Q494.49 197.64 493.50 196.69Q492.52 195.74 492.52 194.16L492.52 186.41L488.73 186.41L488.73 184.44L492.52 184.44L492.52 180.72L494.68 180.72L494.68 184.44L500.08 184.44L500.08 186.41L494.68 186.41L494.68 194.16Q494.68 194.83 495.08 195.25Q495.47 195.67 496.12 195.67L499.96 195.67" fill="white" fill-opacity="0.7"/>
<path d="M506.85 197.64L504.69 197.64L504.69 184.44L506.85 184.44L506.85 186.96L506.90 186.96Q507.06 185.69 507.98 184.94Q508.89 184.20 510.42 184.20Q512.49 184.20 513.60 185.44Q514.72 186.67 514.72 188.95L514.72 190.08L512.56 190.08L512.56 188.95Q512.56 186.07 509.75 186.07Q508.34 186.07 507.59 186.89Q506.85 187.70 506.85 189.24" fill="white" fill-opacity="0.7"/>
<path d="M522.45 197.88Q520.41 197.88 519.21 196.74Q518.01 195.60 518.01 193.75Q518.01 192.53 518.56 191.62Q519.11 190.70 520.10 190.19Q521.08 189.67 522.35 189.67L526.43 189.67L526.43 188.64Q526.43 186.07 523.62 186.07Q522.38 186.07 521.61 186.53Q520.84 186.98 520.79 187.80L518.63 187.80Q518.75 186.24 520.08 185.22Q521.42 184.20 523.62 184.20Q526.02 184.20 527.31 185.35Q528.59 186.50 528.59 188.57L528.59 197.64L526.46 197.64L526.46 195.24L526.41 195.24Q526.22 196.46 525.18 197.17Q524.15 197.88 522.45 197.88M522.98 196.06Q524.56 196.06 525.50 195.29Q526.43 194.52 526.43 193.20L526.43 191.35L522.59 191.35Q521.54 191.35 520.88 191.99Q520.22 192.62 520.22 193.68Q520.22 194.78 520.95 195.42Q521.68 196.06 522.98 196.06" fill="white" fill-opacity="0.7"/>
<path d="M535.17 197.64L533.01 197.64L533.01 184.44L535.17 184.44L535.17 186.96L535.19 186.96Q535.36 185.64 536.27 184.92Q537.18 184.20 538.70 184.20Q540.69 184.20 541.86 185.42Q543.04 186.65 543.04 188.76L543.04 197.64L540.88 197.64L540.88 189.14Q540.88 187.63 540.12 186.83Q539.37 186.02 538.07 186.02Q536.73 186.02 535.95 186.86Q535.17 187.70 535.17 189.24" fill="white" fill-opacity="0.7"/>
<path d="M552.93 197.83L551.87 197.83Q549.66 197.83 548.45 196.84Q547.24 195.84 547.24 194.02L549.40 194.02Q549.40 194.93 550.05 195.44Q550.70 195.96 551.87 195.96L552.93 195.96Q554.13 195.96 554.79 195.43Q555.45 194.90 555.45 193.94Q555.45 192.24 553.89 192.02L550.24 191.50Q548.90 191.30 548.15 190.38Q547.41 189.46 547.41 187.94Q547.41 186.22 548.60 185.23Q549.78 184.25 551.87 184.25L552.93 184.25Q554.85 184.25 556.06 185.20Q557.27 186.14 557.37 187.68L555.18 187.68Q555.14 186.98 554.52 186.53Q553.91 186.07 552.93 186.07L551.87 186.07Q550.77 186.07 550.14 186.58Q549.52 187.08 549.52 187.94Q549.52 189.34 550.79 189.53L554.20 190.01Q557.56 190.49 557.56 193.94Q557.56 195.79 556.35 196.81Q555.14 197.83 552.93 197.83" fill="white" fill-opacity="0.7"/>
<path d="M566.92 197.64L564.76 197.64L564.76 188.21L560.92 188.21L560.92 186.24L564.76 186.24L564.76 183.48Q564.76 181.92 565.74 181.02Q566.73 180.12 568.46 180.12L572.32 180.12L572.32 182.09L568.46 182.09Q566.92 182.09 566.92 183.48L566.92 186.24L572.32 186.24L572.32 188.21L566.92 188.21" fill="white" fill-opacity="0.7"/>
<path d="M581.20 197.88Q578.87 197.88 577.44 196.48Q576.02 195.07 576.02 192.60L576.02 189.48Q576.02 187.01 577.44 185.60Q578.87 184.20 581.20 184.20Q582.76 184.20 583.92 184.82Q585.09 185.45 585.74 186.58Q586.38 187.70 586.38 189.24L586.38 191.59L578.13 191.59L578.13 192.84Q578.13 194.30 578.97 195.16Q579.81 196.01 581.20 196.01Q582.40 196.01 583.18 195.54Q583.96 195.07 584.13 194.28L586.29 194.28Q586.07 195.94 584.68 196.91Q583.29 197.88 581.20 197.88M578.13 189.24L578.13 189.91L584.27 189.91L584.27 189.24Q584.27 187.68 583.47 186.83Q582.66 185.98 581.20 185.98Q579.74 185.98 578.93 186.83Q578.13 187.68 578.13 189.24" fill="white" fill-opacity="0.7"/>
<path d="M593.25 197.64L591.09 197.64L591.09 184.44L593.25 184.44L593.25 186.96L593.30 186.96Q593.46 185.69 594.38 184.94Q595.29 184.20 596.82 184.20Q598.89 184.20 600 185.44Q601.12 186.67 601.12 188.95L601.12 190.08L598.96 190.08L598.96 188.95Q598.96 186.07 596.15 186.07Q594.74 186.07 593.99 186.89Q593.25 187.70 593.25 189.24" fill="white" fill-opacity="0.7"/>
<path d="M624.52 197.64L622.36 197.64L622.36 188.21L618.52 188.21L618.52 186.24L622.36 186.24L622.36 183.48Q622.36 181.92 623.34 181.02Q624.33 180.12 626.06 180.12L629.92 180.12L629.92 182.09L626.06 182.09Q624.52 182.09 624.52 183.48L624.52 186.24L629.92 186.24L629.92 188.21L624.52 188.21" fill="white" fill-opacity="0.7"/>
<path d="M638.78 197.88Q636.50 197.88 635.13 196.52Q633.76 195.17 633.76 192.84L633.76 184.44L635.92 184.44L635.92 192.84Q635.92 194.28 636.69 195.13Q637.46 195.98 638.78 195.98Q640.12 195.98 640.90 195.13Q641.68 194.28 641.68 192.84L641.68 184.44L643.84 184.44L643.84 192.84Q643.84 195.17 642.45 196.52Q641.06 197.88 638.78 197.88" fill="white" fill-opacity="0.7"/>
<path d="M650.37 197.64L648.21 197.64L648.21 184.44L650.37 184.44L650.37 186.96L650.39 186.96Q650.56 185.64 651.47 184.92Q652.38 184.20 653.90 184.20Q655.89 184.20 657.06 185.42Q658.24 186.65 658.24 188.76L658.24 197.64L656.08 197.64L656.08 189.14Q656.08 187.63 655.32 186.83Q654.57 186.02 653.27 186.02Q651.93 186.02 651.15 186.86Q650.37 187.70 650.37 189.24" fill="white" fill-opacity="0.7"/>
<path d="M666.83 197.88Q664.86 197.88 663.68 196.56Q662.49 195.24 662.49 192.98L662.49 189.12Q662.49 186.84 663.66 185.52Q664.84 184.20 666.83 184.20Q668.32 184.20 669.29 184.94Q670.26 185.69 670.46 186.96L670.48 186.96L670.43 183.96L670.43 180.12L672.59 180.12L672.59 197.64L670.43 197.64L670.43 195.12L670.41 195.12Q670.24 196.42 669.28 197.15Q668.32 197.88 666.83 197.88M667.55 196.01Q668.90 196.01 669.66 195.17Q670.43 194.33 670.43 192.84L670.43 189.24Q670.43 187.75 669.66 186.91Q668.90 186.07 667.55 186.07Q666.18 186.07 665.42 186.78Q664.65 187.49 664.65 189.12L664.65 192.96Q664.65 194.57 665.42 195.29Q666.18 196.01 667.55 196.01" fill="white" fill-opacity="0.7"/>
<path d="M682.53 197.83L681.47 197.83Q679.26 197.83 678.05 196.84Q676.84 195.84 676.84 194.02L679 194.02Q679 194.93 679.65 195.44Q680.30 195.96 681.47 195.96L682.53 195.96Q683.73 195.96 684.39 195.43Q685.05 194.90 685.05 193.94Q685.05 192.24 683.49 192.02L679.84 191.50Q678.50 191.30 677.75 190.38Q677.01 189.46 677.01 187.94Q677.01 186.22 678.20 185.23Q679.38 184.25 681.47 184.25L682.53 184.25Q684.45 184.25 685.66 185.20Q686.87 186.14 686.97 187.68L684.78 187.68Q684.74 186.98 684.12 186.53Q683.51 186.07 682.53 186.07L681.47 186.07Q680.37 186.07 679.74 186.58Q679.12 187.08 679.12 187.94Q679.12 189.34 680.39 189.53L683.80 190.01Q687.16 190.49 687.16 193.94Q687.16 195.79 685.95 196.81Q684.74 197.83 682.53 197.83" fill="white" fill-opacity="0.7"/>
<path d="M711.57 197.88Q710.08 197.88 709.12 197.15Q708.16 196.42 707.99 195.12L707.97 195.12L707.97 197.64L705.81 197.64L705.81 180.12L707.97 180.12L707.97 183.96L707.92 186.96L707.94 186.96Q708.14 185.69 709.11 184.94Q710.08 184.20 711.57 184.20Q713.56 184.20 714.74 185.52Q715.91 186.84 715.91 189.12L715.91 192.98Q715.91 195.24 714.74 196.56Q713.56 197.88 711.57 197.88M710.85 196.01Q712.22 196.01 712.98 195.29Q713.75 194.57 713.75 192.96L713.75 189.12Q713.75 187.49 712.98 186.78Q712.22 186.07 710.85 186.07Q709.53 186.07 708.75 186.91Q707.97 187.75 707.97 189.24L707.97 192.84Q707.97 194.33 708.75 195.17Q709.53 196.01 710.85 196.01" fill="white" fill-opacity="0.7"/>
<path d="M725.20 197.88Q722.87 197.88 721.44 196.48Q720.02 195.07 720.02 192.60L720.02 189.48Q720.02 187.01 721.44 185.60Q722.87 184.20 725.20 184.20Q726.76 184.20 727.92 184.82Q729.09 185.45 729.74 186.58Q730.38 187.70 730.38 189.24L730.38 191.59L722.13 191.59L722.13 192.84Q722.13 194.30 722.97 195.16Q723.81 196.01 725.20 196.01Q726.40 196.01 727.18 195.54Q727.96 195.07 728.13 194.28L730.29 194.28Q730.07 195.94 728.68 196.91Q727.29 197.88 725.20 197.88M722.13 189.24L722.13 189.91L728.27 189.91L728.27 189.24Q728.27 187.68 727.47 186.83Q726.66 185.98 725.20 185.98Q723.74 185.98 722.93 186.83Q722.13 187.68 722.13 189.24" fill="white" fill-opacity="0.7"/>
<path d="M744.76 197.64L740.92 197.64Q739.29 197.64 738.30 196.69Q737.32 195.74 737.32 194.16L737.32 186.41L733.53 186.41L733.53 184.44L737.32 184.44L737.32 180.72L739.48 180.72L739.48 184.44L744.88 184.44L744.88 186.41L739.48 186.41L739.48 194.16Q739.48 194.83 739.88 195.25Q740.27 195.67 740.92 195.67L744.76 195.67" fill="white" fill-opacity="0.7"/>
<path d="M752.08 197.64L749.70 197.64L747.54 184.44L749.42 184.44L750.76 193.75Q750.83 194.28 750.90 194.92Q750.98 195.55 751 195.96Q751.05 195.55 751.11 194.92Q751.17 194.28 751.26 193.75L752.92 184.44L755.08 184.44L756.74 193.75Q756.83 194.28 756.92 194.92Q757 195.55 757.02 195.96Q757.07 195.55 757.14 194.92Q757.22 194.28 757.29 193.75L758.68 184.44L760.46 184.44L758.20 197.64L755.82 197.64L754.31 188.52Q754.22 187.85 754.13 187.09Q754.05 186.34 754 185.93Q753.98 186.34 753.88 187.09Q753.78 187.85 753.66 188.52" fill="white" fill-opacity="0.7"/>
<path d="M768.40 197.88Q766.07 197.88 764.64 196.48Q763.22 195.07 763.22 192.60L763.22 189.48Q763.22 187.01 764.64 185.60Q766.07 184.20 768.40 184.20Q769.96 184.20 771.12 184.82Q772.29 185.45 772.94 186.58Q773.58 187.70 773.58 189.24L773.58 191.59L765.33 191.59L765.33 192.84Q765.33 194.30 766.17 195.16Q767.01 196.01 768.40 196.01Q769.60 196.01 770.38 195.54Q771.16 195.07 771.33 194.28L773.49 194.28Q773.27 195.94 771.88 196.91Q770.49 197.88 768.40 197.88M765.33 189.24L765.33 189.91L771.47 189.91L771.47 189.24Q771.47 187.68 770.67 186.83Q769.86 185.98 768.40 185.98Q766.94 185.98 766.13 186.83Q765.33 187.68 765.33 189.24" fill="white" fill-opacity="0.7"/>
<path d="M782.80 197.88Q780.47 197.88 779.04 196.48Q777.62 195.07 777.62 192.60L777.62 189.48Q777.62 187.01 779.04 185.60Q780.47 184.20 782.80 184.20Q784.36 184.20 785.52 184.82Q786.69 185.45 787.34 186.58Q787.98 187.70 787.98 189.24L787.98 191.59L779.73 191.59L779.73 192.84Q779.73 194.30 780.57 195.16Q781.41 196.01 782.80 196.01Q784 196.01 784.78 195.54Q785.56 195.07 785.73 194.28L787.89 194.28Q787.67 195.94 786.28 196.91Q784.89 197.88 782.80 197.88M779.73 189.24L779.73 189.91L785.87 189.91L785.87 189.24Q785.87 187.68 785.07 186.83Q784.26 185.98 782.80 185.98Q781.34 185.98 780.53 186.83Q779.73 187.68 779.73 189.24" fill="white" fill-opacity="0.7"/>
<path d="M794.37 197.64L792.21 197.64L792.21 184.44L794.37 184.44L794.37 186.96L794.39 186.96Q794.56 185.64 795.47 184.92Q796.38 184.20 797.90 184.20Q799.89 184.20 801.06 185.42Q802.24 186.65 802.24 188.76L802.24 197.64L800.08 197.64L800.08 189.14Q800.08 187.63 799.32 186.83Q798.57 186.02 797.27 186.02Q795.93 186.02 795.15 186.86Q794.37 187.70 794.37 189.24" fill="white" fill-opacity="0.7"/>
<path d="M822.26 197.64L820.24 197.64L820.24 184.44L822.11 184.44L822.11 186.19L822.16 186.19Q822.28 185.30 822.87 184.75Q823.46 184.20 824.37 184.20Q825.23 184.20 825.83 184.70Q826.43 185.21 826.70 186.07L826.72 186.07Q826.89 185.21 827.48 184.70Q828.06 184.20 828.98 184.20Q830.25 184.20 831 185.15Q831.76 186.10 831.76 187.61L831.76 197.64L829.74 197.64L829.74 187.58Q829.74 186.79 829.36 186.32Q828.98 185.86 828.30 185.86Q827.66 185.86 827.27 186.31Q826.89 186.77 826.89 187.56L826.89 197.64L825.11 197.64L825.11 187.58Q825.11 186.79 824.73 186.32Q824.34 185.86 823.70 185.86Q823.02 185.86 822.64 186.31Q822.26 186.77 822.26 187.56" fill="white" fill-opacity="0.7"/>
<path d="M840.40 197.88Q838.07 197.88 836.64 196.48Q835.22 195.07 835.22 192.60L835.22 189.48Q835.22 187.01 836.64 185.60Q838.07 184.20 840.40 184.20Q841.96 184.20 843.12 184.82Q844.29 185.45 844.94 186.58Q845.58 187.70 845.58 189.24L845.58 191.59L837.33 191.59L837.33 192.84Q837.33 194.30 838.17 195.16Q839.01 196.01 840.40 196.01Q841.60 196.01 842.38 195.54Q843.16 195.07 843.33 194.28L845.49 194.28Q845.27 195.94 843.88 196.91Q842.49 197.88 840.40 197.88M837.33 189.24L837.33 189.91L843.47 189.91L843.47 189.24Q843.47 187.68 842.67 186.83Q841.86 185.98 840.40 185.98Q838.94 185.98 838.13 186.83Q837.33 187.68 837.33 189.24" fill="white" fill-opacity="0.7"/>
<path d="M852.45 197.64L850.29 197.64L850.29 184.44L852.45 184.44L852.45 186.96L852.50 186.96Q852.66 185.69 853.58 184.94Q854.49 184.20 856.02 184.20Q858.09 184.20 859.20 185.44Q860.32 186.67 860.32 188.95L860.32 190.08L858.16 190.08L858.16 188.95Q858.16 186.07 855.35 186.07Q853.94 186.07 853.19 186.89Q852.45 187.70 852.45 189.24" fill="white" fill-opacity="0.7"/>
<path d="M869.39 197.88Q866.99 197.88 865.55 196.54Q864.11 195.19 864.11 192.84L864.11 189.24Q864.11 186.89 865.55 185.54Q866.99 184.20 869.39 184.20Q871.67 184.20 873.08 185.42Q874.48 186.65 874.55 188.76L872.39 188.76Q872.32 187.49 871.53 186.80Q870.74 186.12 869.39 186.12Q867.98 186.12 867.12 186.92Q866.27 187.73 866.27 189.22L866.27 192.84Q866.27 194.33 867.12 195.14Q867.98 195.96 869.39 195.96Q870.74 195.96 871.53 195.26Q872.32 194.57 872.39 193.32L874.55 193.32Q874.48 195.43 873.08 196.66Q871.67 197.88 869.39 197.88" fill="white" fill-opacity="0.7"/>
<path d="M880.77 197.64L878.61 197.64L878.61 180.12L880.77 180.12L880.77 186.96L880.79 186.96Q880.96 185.64 881.87 184.92Q882.78 184.20 884.30 184.20Q886.29 184.20 887.46 185.42Q888.64 186.65 888.64 188.76L888.64 197.64L886.48 197.64L886.48 189.12Q886.48 187.63 885.72 186.83Q884.97 186.02 883.67 186.02Q882.33 186.02 881.55 186.86Q880.77 187.70 880.77 189.24" fill="white" fill-opacity="0.7"/>
<path d="M896.85 197.88Q894.81 197.88 893.61 196.74Q892.41 195.60 892.41 193.75Q892.41 192.53 892.96 191.62Q893.51 190.70 894.50 190.19Q895.48 189.67 896.75 189.67L900.83 189.67L900.83 188.64Q900.83 186.07 898.02 186.07Q896.78 186.07 896.01 186.53Q895.24 186.98 895.19 187.80L893.03 187.80Q893.15 186.24 894.48 185.22Q895.82 184.20 898.02 184.20Q900.42 184.20 901.71 185.35Q902.99 186.50 902.99 188.57L902.99 197.64L900.86 197.64L900.86 195.24L900.81 195.24Q900.62 196.46 899.58 197.17Q898.55 197.88 896.85 197.88M897.38 196.06Q898.96 196.06 899.90 195.29Q900.83 194.52 900.83 193.20L900.83 191.35L896.99 191.35Q895.94 191.35 895.28 191.99Q894.62 192.62 894.62 193.68Q894.62 194.78 895.35 195.42Q896.08 196.06 897.38 196.06" fill="white" fill-opacity="0.7"/>
<path d="M909.57 197.64L907.41 197.64L907.41 184.44L909.57 184.44L909.57 186.96L909.59 186.96Q909.76 185.64 910.67 184.92Q911.58 184.20 913.10 184.20Q915.09 184.20 916.26 185.42Q917.44 186.65 917.44 188.76L917.44 197.64L915.28 197.64L915.28 189.14Q915.28 187.63 914.52 186.83Q913.77 186.02 912.47 186.02Q911.13 186.02 910.35 186.86Q909.57 187.70 909.57 189.24" fill="white" fill-opacity="0.7"/>
<path d="M931.96 197.64L928.12 197.64Q926.49 197.64 925.50 196.69Q924.52 195.74 924.52 194.16L924.52 186.41L920.73 186.41L920.73 184.44L924.52 184.44L924.52 180.72L926.68 180.72L926.68 184.44L932.08 184.44L932.08 186.41L926.68 186.41L926.68 194.16Q926.68 194.83 927.08 195.25Q927.47 195.67 928.12 195.67L931.96 195.67" fill="white" fill-opacity="0.7"/>
<path d="M954.45 197.88Q952.41 197.88 951.21 196.74Q950.01 195.60 950.01 193.75Q950.01 192.53 950.56 191.62Q951.11 190.70 952.10 190.19Q953.08 189.67 954.35 189.67L958.43 189.67L958.43 188.64Q958.43 186.07 955.62 186.07Q954.38 186.07 953.61 186.53Q952.84 186.98 952.79 187.80L950.63 187.80Q950.75 186.24 952.08 185.22Q953.42 184.20 955.62 184.20Q958.02 184.20 959.31 185.35Q960.59 186.50 960.59 188.57L960.59 197.64L958.46 197.64L958.46 195.24L958.41 195.24Q958.22 196.46 957.18 197.17Q956.15 197.88 954.45 197.88M954.98 196.06Q956.56 196.06 957.50 195.29Q958.43 194.52 958.43 193.20L958.43 191.35L954.59 191.35Q953.54 191.35 952.88 191.99Q952.22 192.62 952.22 193.68Q952.22 194.78 952.95 195.42Q953.68 196.06 954.98 196.06" fill="white" fill-opacity="0.7"/>
<path d="M970.19 197.88Q967.79 197.88 966.35 196.54Q964.91 195.19 964.91 192.84L964.91 189.24Q964.91 186.89 966.35 185.54Q967.79 184.20 970.19 184.20Q972.47 184.20 973.88 185.42Q975.28 186.65 975.35 188.76L973.19 188.76Q973.12 187.49 972.33 186.80Q971.54 186.12 970.19 186.12Q968.78 186.12 967.92 186.92Q967.07 187.73 967.07 189.22L967.07 192.84Q967.07 194.33 967.92 195.14Q968.78 195.96 970.19 195.96Q971.54 195.96 972.33 195.26Q973.12 194.57 973.19 193.32L975.35 193.32Q975.28 195.43 973.88 196.66Q972.47 197.88 970.19 197.88" fill="white" fill-opacity="0.7"/>
<path d="M984.59 197.88Q982.19 197.88 980.75 196.54Q979.31 195.19 979.31 192.84L979.31 189.24Q979.31 186.89 980.75 185.54Q982.19 184.20 984.59 184.20Q986.87 184.20 988.28 185.42Q989.68 186.65 989.75 188.76L987.59 188.76Q987.52 187.49 986.73 186.80Q985.94 186.12 984.59 186.12Q983.18 186.12 982.32 186.92Q981.47 187.73 981.47 189.22L981.47 192.84Q981.47 194.33 982.32 195.14Q983.18 195.96 984.59 195.96Q985.94 195.96 986.73 195.26Q987.52 194.57 987.59 193.32L989.75 193.32Q989.68 195.43 988.28 196.66Q986.87 197.88 984.59 197.88" fill="white" fill-opacity="0.7"/>
<path d="M998.80 197.83Q996.42 197.83 995.02 196.44Q993.62 195.05 993.62 192.55L993.62 189.53Q993.62 187.01 995.01 185.63Q996.40 184.25 998.80 184.25Q1001.20 184.25 1002.59 185.63Q1003.98 187.01 1003.98 189.53L1003.98 192.55Q1003.98 195.05 1002.58 196.44Q1001.18 197.83 998.80 197.83M998.80 195.91Q1000.22 195.91 1001.02 195.12Q1001.82 194.33 1001.82 192.79L1001.82 189.29Q1001.82 187.75 1001.02 186.96Q1000.22 186.17 998.80 186.17Q997.41 186.17 996.59 186.96Q995.78 187.75 995.78 189.29L995.78 192.79Q995.78 194.33 996.59 195.12Q997.41 195.91 998.80 195.91" fill="white" fill-opacity="0.7"/>
<path d="M1013.18 197.88Q1010.90 197.88 1009.53 196.52Q1008.16 195.17 1008.16 192.84L1008.16 184.44L1010.32 184.44L1010.32 192.84Q1010.32 194.28 1011.09 195.13Q1011.86 195.98 1013.18 195.98Q1014.52 195.98 1015.30 195.13Q1016.08 194.28 1016.08 192.84L1016.08 184.44L1018.24 184.44L1018.24 192.84Q1018.24 195.17 1016.85 196.52Q1015.46 197.88 1013.18 197.88" fill="white" fill-opacity="0.7"/>
<path d="M1024.77 197.64L1022.61 197.64L1022.61 184.44L1024.77 184.44L1024.77 186.96L1024.79 186.96Q1024.96 185.64 1025.87 184.92Q1026.78 184.20 1028.30 184.20Q1030.29 184.20 1031.46 185.42Q1032.64 186.65 1032.64 188.76L1032.64 197.64L1030.48 197.64L1030.48 189.14Q1030.48 187.63 1029.72 186.83Q1028.97 186.02 1027.67 186.02Q1026.33 186.02 1025.55 186.86Q1024.77 187.70 1024.77 189.24" fill="white" fill-opacity="0.7"/>
<path d="M1047.16 197.64L1043.32 197.64Q1041.69 197.64 1040.70 196.69Q1039.72 195.74 1039.72 194.16L1039.72 186.41L1035.93 186.41L1035.93 184.44L1039.72 184.44L1039.72 180.72L1041.88 180.72L1041.88 184.44L1047.28 184.44L1047.28 186.41L1041.88 186.41L1041.88 194.16Q1041.88 194.83 1042.28 195.25Q1042.67 195.67 1043.32 195.67L1047.16 195.67" fill="white" fill-opacity="0.7"/>
<path d="M1056.93 197.83L1055.87 197.83Q1053.66 197.83 1052.45 196.84Q1051.24 195.84 1051.24 194.02L1053.40 194.02Q1053.40 194.93 1054.05 195.44Q1054.70 195.96 1055.87 195.96L1056.93 195.96Q1058.13 195.96 1058.79 195.43Q1059.45 194.90 1059.45 193.94Q1059.45 192.24 1057.89 192.02L1054.24 191.50Q1052.90 191.30 1052.15 190.38Q1051.41 189.46 1051.41 187.94Q1051.41 186.22 1052.60 185.23Q1053.78 184.25 1055.87 184.25L1056.93 184.25Q1058.85 184.25 1060.06 185.20Q1061.27 186.14 1061.37 187.68L1059.18 187.68Q1059.14 186.98 1058.52 186.53Q1057.91 186.07 1056.93 186.07L1055.87 186.07Q1054.77 186.07 1054.14 186.58Q1053.52 187.08 1053.52 187.94Q1053.52 189.34 1054.79 189.53L1058.20 190.01Q1061.56 190.49 1061.56 193.94Q1061.56 195.79 1060.35 196.81Q1059.14 197.83 1056.93 197.83" fill="white" fill-opacity="0.7"/>
<path d="M1090.36 197.64L1086.52 197.64Q1084.89 197.64 1083.90 196.69Q1082.92 195.74 1082.92 194.16L1082.92 186.41L1079.13 186.41L1079.13 184.44L1082.92 184.44L1082.92 180.72L1085.08 180.72L1085.08 184.44L1090.48 184.44L1090.48 186.41L1085.08 186.41L1085.08 194.16Q1085.08 194.83 1085.48 195.25Q1085.87 195.67 1086.52 195.67L1090.36 195.67" fill="white" fill-opacity="0.7"/>
<path d="M1096.77 197.64L1094.61 197.64L1094.61 180.12L1096.77 180.12L1096.77 186.96L1096.79 186.96Q1096.96 185.64 1097.87 184.92Q1098.78 184.20 1100.30 184.20Q1102.29 184.20 1103.46 185.42Q1104.64 186.65 1104.64 188.76L1104.64 197.64L1102.48 197.64L1102.48 189.12Q1102.48 187.63 1101.72 186.83Q1100.97 186.02 1099.67 186.02Q1098.33 186.02 1097.55 186.86Q1096.77 187.70 1096.77 189.24" fill="white" fill-opacity="0.7"/>
<path d="M1112.85 197.88Q1110.81 197.88 1109.61 196.74Q1108.41 195.60 1108.41 193.75Q1108.41 192.53 1108.96 191.62Q1109.51 190.70 1110.50 190.19Q1111.48 189.67 1112.75 189.67L1116.83 189.67L1116.83 188.64Q1116.83 186.07 1114.02 186.07Q1112.78 186.07 1112.01 186.53Q1111.24 186.98 1111.19 187.80L1109.03 187.80Q1109.15 186.24 1110.48 185.22Q1111.82 184.20 1114.02 184.20Q1116.42 184.20 1117.71 185.35Q1118.99 186.50 1118.99 188.57L1118.99 197.64L1116.86 197.64L1116.86 195.24L1116.81 195.24Q1116.62 196.46 1115.58 197.17Q1114.55 197.88 1112.85 197.88M1113.38 196.06Q1114.96 196.06 1115.90 195.29Q1116.83 194.52 1116.83 193.20L1116.83 191.35L1112.99 191.35Q1111.94 191.35 1111.28 191.99Q1110.62 192.62 1110.62 193.68Q1110.62 194.78 1111.35 195.42Q1112.08 196.06 1113.38 196.06" fill="white" fill-opacity="0.7"/>
<path d="M1133.56 197.64L1129.72 197.64Q1128.09 197.64 1127.10 196.69Q1126.12 195.74 1126.12 194.16L1126.12 186.41L1122.33 186.41L1122.33 184.44L1126.12 184.44L1126.12 180.72L1128.28 180.72L1128.28 184.44L1133.68 184.44L1133.68 186.41L1128.28 186.41L1128.28 194.16Q1128.28 194.83 1128.68 195.25Q1129.07 195.67 1129.72 195.67L1133.56 195.67" fill="white" fill-opacity="0.7"/>
<path d="M77.97 229.88Q76.48 229.88 75.52 229.15Q74.56 228.42 74.39 227.12L74.37 227.12L74.37 229.64L72.21 229.64L72.21 212.12L74.37 212.12L74.37 215.96L74.32 218.96L74.34 218.96Q74.54 217.69 75.51 216.94Q76.48 216.20 77.97 216.20Q79.96 216.20 81.14 217.52Q82.31 218.84 82.31 221.12L82.31 224.98Q82.31 227.24 81.14 228.56Q79.96 229.88 77.97 229.88M77.25 228.01Q78.62 228.01 79.38 227.29Q80.15 226.57 80.15 224.96L80.15 221.12Q80.15 219.49 79.38 218.78Q78.62 218.07 77.25 218.07Q75.93 218.07 75.15 218.91Q74.37 219.75 74.37 221.24L74.37 224.84Q74.37 226.33 75.15 227.17Q75.93 228.01 77.25 228.01" fill="white" fill-opacity="0.7"/>
<path d="M91.60 229.88Q89.27 229.88 87.84 228.48Q86.42 227.07 86.42 224.60L86.42 221.48Q86.42 219.01 87.84 217.60Q89.27 216.20 91.60 216.20Q93.16 216.20 94.32 216.82Q95.49 217.45 96.14 218.58Q96.78 219.70 96.78 221.24L96.78 223.59L88.53 223.59L88.53 224.84Q88.53 226.30 89.37 227.16Q90.21 228.01 91.60 228.01Q92.80 228.01 93.58 227.54Q94.36 227.07 94.53 226.28L96.69 226.28Q96.47 227.94 95.08 228.91Q93.69 229.88 91.60 229.88M88.53 221.24L88.53 221.91L94.67 221.91L94.67 221.24Q94.67 219.68 93.87 218.83Q93.06 217.98 91.60 217.98Q90.14 217.98 89.33 218.83Q88.53 219.68 88.53 221.24" fill="white" fill-opacity="0.7"/>
<path d="MNaN 229.64L107.92 229.64Q106.17 229.64 105.12 228.62Q104.08 227.60 104.08 225.92L104.08 214.09L99.52 214.09L99.52 212.12L106.24 212.12L106.24 225.92Q106.24 226.74 106.70 227.20Q107.15 227.67 107.92 227.67LNaN 227.67" fill="white" fill-opacity="0.7"/>
<path d="M120.40 229.83Q118.02 229.83 116.62 228.44Q115.22 227.05 115.22 224.55L115.22 221.53Q115.22 219.01 116.61 217.63QNaN 216.25 120.40 216.25Q122.80 216.25 124.19 217.63Q125.58 219.01 125.58 221.53L125.58 224.55Q125.58 227.05 124.18 228.44Q122.78 229.83 120.40 229.83M120.40 227.91Q121.82 227.91 122.62 227.12Q123.42 226.33 123.42 224.79L123.42 221.29Q123.42 219.75 122.62 218.96Q121.82 218.17 120.40 218.17Q119.01 218.17 118.19 218.96Q117.38 219.75 117.38 221.29L117.38 224.79Q117.38 226.33 118.19 227.12Q119.01 227.91 120.40 227.91" fill="white" fill-opacity="0.7"/>
<path d="M131.97 229.64L129.81 229.64L129.81 216.44L131.97 216.44L131.97 218.96L131.99 218.96Q132.16 217.64 133.07 216.92Q133.98 216.20 135.50 216.20Q137.49 216.20 138.66 217.42Q139.84 218.65 139.84 220.76L139.84 229.64L137.68 229.64L137.68 221.14Q137.68 219.63 136.92 218.83Q136.17 218.02 134.87 218.02Q133.53 218.02 132.75 218.86Q131.97 219.70 131.97 221.24" fill="white" fill-opacity="0.7"/>
<path d="M149.56 233.96L145.86 233.96L145.86 231.99L149.58 231.99Q150.71 231.99 151.36 231.36Q152.01 230.72 152.01 229.64L152.01 228.44L152.06 226.28L151.98 226.28Q151.79 227.46 150.86 228.09Q149.92 228.73 148.50 228.73Q146.46 228.73 145.29 227.43Q144.11 226.14 144.11 223.88L144.11 221.10Q144.11 218.84 145.29 217.52Q146.46 216.20 148.50 216.20Q149.92 216.20 150.86 216.87Q151.79 217.54 151.98 218.72L152.03 218.72L152.03 216.44L154.17 216.44L154.17 229.64Q154.17 231.63 152.93 232.80Q151.70 233.96 149.56 233.96M149.15 226.93Q150.50 226.93 151.26 226.09Q152.03 225.25 152.03 223.76L152.03 221.24Q152.03 219.75 151.26 218.91Q150.50 218.07 149.15 218.07Q147.78 218.07 147.03 218.86Q146.27 219.66 146.27 221L146.27 224Q146.27 225.34 147.03 226.14Q147.78 226.93 149.15 226.93" fill="white" fill-opacity="0.7"/>
<path d="M183.16 229.64L179.32 229.64Q177.69 229.64 176.70 228.69Q175.72 227.74 175.72 226.16L175.72 218.41L171.93 218.41L171.93 216.44L175.72 216.44L175.72 212.72L177.88 212.72L177.88 216.44L183.28 216.44L183.28 218.41L177.88 218.41L177.88 226.16Q177.88 226.83 178.28 227.25Q178.67 227.67 179.32 227.67L183.16 227.67" fill="white" fill-opacity="0.7"/>
<path d="M192.40 229.83Q190.02 229.83 188.62 228.44Q187.22 227.05 187.22 224.55L187.22 221.53Q187.22 219.01 188.61 217.63QNaN 216.25 192.40 216.25Q194.80 216.25 196.19 217.63Q197.58 219.01 197.58 221.53L197.58 224.55Q197.58 227.05 196.18 228.44Q194.78 229.83 192.40 229.83M192.40 227.91Q193.82 227.91 194.62 227.12Q195.42 226.33 195.42 224.79L195.42 221.29Q195.42 219.75 194.62 218.96Q193.82 218.17 192.40 218.17Q191.01 218.17 190.19 218.96Q189.38 219.75 189.38 221.29L189.38 224.79Q189.38 226.33 190.19 227.12Q191.01 227.91 192.40 227.91" fill="white" fill-opacity="0.7"/>
<path d="M226.36 229.64L222.52 229.64Q220.89 229.64 219.90 228.69Q218.92 227.74 218.92 226.16L218.92 218.41L215.13 218.41L215.13 216.44L218.92 216.44L218.92 212.72L221.08 212.72L221.08 216.44L226.48 216.44L226.48 218.41L221.08 218.41L221.08 226.16Q221.08 226.83 221.48 227.25Q221.87 227.67 222.52 227.67L226.36 227.67" fill="white" fill-opacity="0.7"/>
<path d="M232.77 229.64L230.61 229.64L230.61 212.12L232.77 212.12L232.77 218.96L232.79 218.96Q232.96 217.64 233.87 216.92Q234.78 216.20 236.30 216.20Q238.29 216.20 239.46 217.42Q240.64 218.65 240.64 220.76L240.64 229.64L238.48 229.64L238.48 221.12Q238.48 219.63 237.72 218.83Q236.97 218.02 235.67 218.02Q234.33 218.02 233.55 218.86Q232.77 219.70 232.77 221.24" fill="white" fill-opacity="0.7"/>
<path d="MNaN 229.88Q247.67 229.88 246.24 228.48Q244.82 227.07 244.82 224.60L244.82 221.48Q244.82 219.01 246.24 217.60Q247.67 216.20 NaN 216.20Q251.56 216.20 252.72 216.82Q253.89 217.45 254.54 218.58Q255.18 219.70 255.18 221.24L255.18 223.59L246.93 223.59L246.93 224.84Q246.93 226.30 247.77 227.16Q248.61 228.01 NaN 228.01Q251.20 228.01 251.98 227.54Q252.76 227.07 252.93 226.28L255.09 226.28Q254.87 227.94 253.48 228.91Q252.09 229.88 NaN 229.88M246.93 221.24L246.93 221.91L253.07 221.91L253.07 221.24Q253.07 219.68 252.27 218.83Q251.46 217.98 NaN 217.98Q248.54 217.98 247.73 218.83Q246.93 219.68 246.93 221.24" fill="white" fill-opacity="0.7"/>
<path d="M279.33 229.83L278.27 229.83Q276.06 229.83 274.85 228.84Q273.64 227.84 273.64 226.02L275.80 226.02Q275.80 226.93 276.45 227.44Q277.10 227.96 278.27 227.96L279.33 227.96Q280.53 227.96 281.19 227.43Q281.85 226.90 281.85 225.94Q281.85 224.24 280.29 224.02L276.64 223.50Q275.30 223.30 274.55 222.38Q273.81 221.46 273.81 219.94Q273.81 218.22 275 217.23Q276.18 216.25 278.27 216.25L279.33 216.25Q281.25 216.25 282.46 217.20Q283.67 218.14 283.77 219.68L281.58 219.68Q281.54 218.98 280.92 218.53Q280.31 218.07 279.33 218.07L278.27 218.07Q277.17 218.07 276.54 218.58Q275.92 219.08 275.92 219.94Q275.92 221.34 277.19 221.53L280.60 222.01Q283.96 222.49 283.96 225.94Q283.96 227.79 282.75 228.81Q281.54 229.83 279.33 229.83" fill="white" fill-opacity="0.7"/>
<path d="M292.05 229.88Q290.01 229.88 288.81 228.74Q287.61 227.60 287.61 225.75Q287.61 224.53 288.16 223.62Q288.71 222.70 289.70 222.19Q290.68 221.67 291.95 221.67L296.03 221.67L296.03 220.64Q296.03 218.07 293.22 218.07Q291.98 218.07 291.21 218.53Q290.44 218.98 290.39 219.80L288.23 219.80Q288.35 218.24 289.68 217.22Q291.02 216.20 293.22 216.20Q295.62 216.20 296.91 217.35Q298.19 218.50 298.19 220.57L298.19 229.64L296.06 229.64L296.06 227.24L296.01 227.24Q295.82 228.46 294.78 229.17Q293.75 229.88 292.05 229.88M292.58 228.06Q294.16 228.06 295.10 227.29Q296.03 226.52 296.03 225.20L296.03 223.35L292.19 223.35Q291.14 223.35 290.48 223.99Q289.82 224.62 289.82 225.68Q289.82 226.78 290.55 227.42Q291.28 228.06 292.58 228.06" fill="white" fill-opacity="0.7"/>
<path d="M303.86 229.64L301.84 229.64L301.84 216.44L303.71 216.44L303.71 218.19L303.76 218.19Q303.88 217.30 304.47 216.75Q305.06 216.20 305.97 216.20Q306.83 216.20 307.43 216.70Q308.03 217.21 308.30 218.07L308.32 218.07Q308.49 217.21 309.08 216.70Q309.66 216.20 310.58 216.20Q311.85 216.20 312.60 217.15Q313.36 218.10 313.36 219.61L313.36 229.64L311.34 229.64L311.34 219.58Q311.34 218.79 310.96 218.32Q310.58 217.86 309.90 217.86Q309.26 217.86 308.87 218.31Q308.49 218.77 308.49 219.56L308.49 229.64L306.71 229.64L306.71 219.58Q306.71 218.79 306.33 218.32Q305.94 217.86 305.30 217.86Q304.62 217.86 304.24 218.31Q303.86 218.77 303.86 219.56" fill="white" fill-opacity="0.7"/>
<path d="M322 229.88Q319.67 229.88 318.24 228.48Q316.82 227.07 316.82 224.60L316.82 221.48Q316.82 219.01 318.24 217.60Q319.67 216.20 322 216.20Q323.56 216.20 324.72 216.82Q325.89 217.45 326.54 218.58Q327.18 219.70 327.18 221.24L327.18 223.59L318.93 223.59L318.93 224.84Q318.93 226.30 319.77 227.16Q320.61 228.01 322 228.01Q323.20 228.01 323.98 227.54Q324.76 227.07 324.93 226.28L327.09 226.28Q326.87 227.94 325.48 228.91Q324.09 229.88 322 229.88M318.93 221.24L318.93 221.91L325.07 221.91L325.07 221.24Q325.07 219.68 324.27 218.83Q323.46 217.98 322 217.98Q320.54 217.98 319.73 218.83Q318.93 219.68 318.93 221.24" fill="white" fill-opacity="0.7"/>
<path d="M356.80 229.64L352.72 229.64Q350.97 229.64 349.92 228.62Q348.88 227.60 348.88 225.92L348.88 214.09L344.32 214.09L344.32 212.12L351.04 212.12L351.04 225.92Q351.04 226.74 351.50 227.20Q351.95 227.67 352.72 227.67L356.80 227.67" fill="white" fill-opacity="0.7"/>
<path d="M365.20 229.88Q362.87 229.88 361.44 228.48Q360.02 227.07 360.02 224.60L360.02 221.48Q360.02 219.01 361.44 217.60Q362.87 216.20 365.20 216.20Q366.76 216.20 367.92 216.82Q369.09 217.45 369.74 218.58Q370.38 219.70 370.38 221.24L370.38 223.59L362.13 223.59L362.13 224.84Q362.13 226.30 362.97 227.16Q363.81 228.01 365.20 228.01Q366.40 228.01 367.18 227.54Q367.96 227.07 368.13 226.28L370.29 226.28Q370.07 227.94 368.68 228.91Q367.29 229.88 365.20 229.88M362.13 221.24L362.13 221.91L368.27 221.91L368.27 221.24Q368.27 219.68 367.47 218.83Q366.66 217.98 365.20 217.98Q363.74 217.98 362.93 218.83Q362.13 219.68 362.13 221.24" fill="white" fill-opacity="0.7"/>
<path d="M379.96 233.96L376.26 233.96L376.26 231.99L379.98 231.99Q381.11 231.99 381.76 231.36Q382.41 230.72 382.41 229.64L382.41 228.44L382.46 226.28L382.38 226.28Q382.19 227.46 381.26 228.09Q380.32 228.73 378.90 228.73Q376.86 228.73 375.69 227.43Q374.51 226.14 374.51 223.88L374.51 221.10Q374.51 218.84 375.69 217.52Q376.86 216.20 378.90 216.20Q380.32 216.20 381.26 216.87Q382.19 217.54 382.38 218.72L382.43 218.72L382.43 216.44L384.57 216.44L384.57 229.64Q384.57 231.63 383.33 232.80Q382.10 233.96 379.96 233.96M379.55 226.93Q380.90 226.93 381.66 226.09Q382.43 225.25 382.43 223.76L382.43 221.24Q382.43 219.75 381.66 218.91Q380.90 218.07 379.55 218.07Q378.18 218.07 377.43 218.86Q376.67 219.66 376.67 221L376.67 224Q376.67 225.34 377.43 226.14Q378.18 226.93 379.55 226.93" fill="white" fill-opacity="0.7"/>
<path d="M392.85 229.88Q390.81 229.88 389.61 228.74Q388.41 227.60 388.41 225.75Q388.41 224.53 388.96 223.62Q389.51 222.70 390.50 222.19Q391.48 221.67 392.75 221.67L396.83 221.67L396.83 220.64Q396.83 218.07 394.02 218.07Q392.78 218.07 392.01 218.53Q391.24 218.98 391.19 219.80L389.03 219.80Q389.15 218.24 390.48 217.22Q391.82 216.20 394.02 216.20Q396.42 216.20 397.71 217.35Q398.99 218.50 398.99 220.57L398.99 229.64L396.86 229.64L396.86 227.24L396.81 227.24Q396.62 228.46 395.58 229.17Q394.55 229.88 392.85 229.88M393.38 228.06Q394.96 228.06 395.90 227.29Q396.83 226.52 396.83 225.20L396.83 223.35L392.99 223.35Q391.94 223.35 391.28 223.99Q390.62 224.62 390.62 225.68Q390.62 226.78 391.35 227.42Q392.08 228.06 393.38 228.06" fill="white" fill-opacity="0.7"/>
<path d="M414.40 229.64L410.32 229.64Q408.57 229.64 407.52 228.62Q406.48 227.60 406.48 225.92L406.48 214.09L401.92 214.09L401.92 212.12L408.64 212.12L408.64 225.92Q408.64 226.74 409.10 227.20Q409.55 227.67 410.32 227.67L414.40 227.67" fill="white" fill-opacity="0.7"/>
<path d="M437.20 229.88Q434.87 229.88 433.44 228.48Q432.02 227.07 432.02 224.60L432.02 221.48Q432.02 219.01 433.44 217.60Q434.87 216.20 437.20 216.20Q438.76 216.20 439.92 216.82Q441.09 217.45 441.74 218.58Q442.38 219.70 442.38 221.24L442.38 223.59L434.13 223.59L434.13 224.84Q434.13 226.30 434.97 227.16Q435.81 228.01 437.20 228.01Q438.40 228.01 439.18 227.54Q439.96 227.07 440.13 226.28L442.29 226.28Q442.07 227.94 440.68 228.91Q439.29 229.88 437.20 229.88M434.13 221.24L434.13 221.91L440.27 221.91L440.27 221.24Q440.27 219.68 439.47 218.83Q438.66 217.98 437.20 217.98Q435.74 217.98 434.93 218.83Q434.13 219.68 434.13 221.24" fill="white" fill-opacity="0.7"/>
<path d="M448.77 229.64L446.61 229.64L446.61 216.44L448.77 216.44L448.77 218.96L448.79 218.96Q448.96 217.64 449.87 216.92Q450.78 216.20 452.30 216.20Q454.29 216.20 455.46 217.42Q456.64 218.65 456.64 220.76L456.64 229.64L454.48 229.64L454.48 221.14Q454.48 219.63 453.72 218.83Q452.97 218.02 451.67 218.02Q450.33 218.02 449.55 218.86Q448.77 219.70 448.77 221.24" fill="white" fill-opacity="0.7"/>
<path d="M471.16 229.64L467.32 229.64Q465.69 229.64 464.70 228.69Q463.72 227.74 463.72 226.16L463.72 218.41L459.93 218.41L459.93 216.44L463.72 216.44L463.72 212.72L465.88 212.72L465.88 216.44L471.28 216.44L471.28 218.41L465.88 218.41L465.88 226.16Q465.88 226.83 466.28 227.25Q466.67 227.67 467.32 227.67L471.16 227.67" fill="white" fill-opacity="0.7"/>
<path d="M486.52 229.64L475.24 229.64L475.24 227.67L479.92 227.67L479.92 218.41L475.72 218.41L475.72 216.44L482.08 216.44L482.08 227.67L486.52 227.67L486.52 229.64M480.76 214.06Q479.97 214.06 479.51 213.66Q479.06 213.25 479.06 212.55Q479.06 211.83 479.51 211.41Q479.97 210.99 480.76 210.99Q481.55 210.99 482.01 211.41Q482.46 211.83 482.46 212.55Q482.46 213.25 482.01 213.66Q481.55 214.06 480.76 214.06" fill="white" fill-opacity="0.7"/>
<path d="M499.96 229.64L496.12 229.64Q494.49 229.64 493.50 228.69Q492.52 227.74 492.52 226.16L492.52 218.41L488.73 218.41L488.73 216.44L492.52 216.44L492.52 212.72L494.68 212.72L494.68 216.44L500.08 216.44L500.08 218.41L494.68 218.41L494.68 226.16Q494.68 226.83 495.08 227.25Q495.47 227.67 496.12 227.67L499.96 227.67" fill="white" fill-opacity="0.7"/>
<path d="M508.53 233.96L506.27 233.96L508.22 228.82L503.30 216.44L505.62 216.44L508.74 224.60Q508.94 225.08 509.10 225.61Q509.27 226.14 509.34 226.52Q509.42 226.14 509.58 225.61Q509.75 225.08 509.92 224.60L512.82 216.44L515.10 216.44" fill="white" fill-opacity="0.7"/>
<path d="M536.85 229.88Q534.81 229.88 533.61 228.74Q532.41 227.60 532.41 225.75Q532.41 224.53 532.96 223.62Q533.51 222.70 534.50 222.19Q535.48 221.67 536.75 221.67L540.83 221.67L540.83 220.64Q540.83 218.07 538.02 218.07Q536.78 218.07 536.01 218.53Q535.24 218.98 535.19 219.80L533.03 219.80Q533.15 218.24 534.48 217.22Q535.82 216.20 538.02 216.20Q540.42 216.20 541.71 217.35Q542.99 218.50 542.99 220.57L542.99 229.64L540.86 229.64L540.86 227.24L540.81 227.24Q540.62 228.46 539.58 229.17Q538.55 229.88 536.85 229.88M537.38 228.06Q538.96 228.06 539.90 227.29Q540.83 226.52 540.83 225.20L540.83 223.35L536.99 223.35Q535.94 223.35 535.28 223.99Q534.62 224.62 534.62 225.68Q534.62 226.78 535.35 227.42Q536.08 228.06 537.38 228.06" fill="white" fill-opacity="0.7"/>
<path d="M549.57 229.64L547.41 229.64L547.41 216.44L549.57 216.44L549.57 218.96L549.59 218.96Q549.76 217.64 550.67 216.92Q551.58 216.20 553.10 216.20Q555.09 216.20 556.26 217.42Q557.44 218.65 557.44 220.76L557.44 229.64L555.28 229.64L555.28 221.14Q555.28 219.63 554.52 218.83Q553.77 218.02 552.47 218.02Q551.13 218.02 550.35 218.86Q549.57 219.70 549.57 221.24" fill="white" fill-opacity="0.7"/>
<path d="M566.03 229.88Q564.06 229.88 562.88 228.56Q561.69 227.24 561.69 224.98L561.69 221.12Q561.69 218.84 562.86 217.52Q564.04 216.20 566.03 216.20Q567.52 216.20 568.49 216.94Q569.46 217.69 569.66 218.96L569.68 218.96L569.63 215.96L569.63 212.12L571.79 212.12L571.79 229.64L569.63 229.64L569.63 227.12L569.61 227.12Q569.44 228.42 568.48 229.15Q567.52 229.88 566.03 229.88M566.75 228.01Q568.10 228.01 568.86 227.17Q569.63 226.33 569.63 224.84L569.63 221.24Q569.63 219.75 568.86 218.91Q568.10 218.07 566.75 218.07Q565.38 218.07 564.62 218.78Q563.85 219.49 563.85 221.12L563.85 224.96Q563.85 226.57 564.62 227.29Q565.38 228.01 566.75 228.01" fill="white" fill-opacity="0.7"/>
<path d="M594.45 229.88Q592.41 229.88 591.21 228.74Q590.01 227.60 590.01 225.75Q590.01 224.53 590.56 223.62Q591.11 222.70 592.10 222.19Q593.08 221.67 594.35 221.67L598.43 221.67L598.43 220.64Q598.43 218.07 595.62 218.07Q594.38 218.07 593.61 218.53Q592.84 218.98 592.79 219.80L590.63 219.80Q590.75 218.24 592.08 217.22Q593.42 216.20 595.62 216.20Q598.02 216.20 599.31 217.35Q600.59 218.50 600.59 220.57L600.59 229.64L598.46 229.64L598.46 227.24L598.41 227.24Q598.22 228.46 597.18 229.17Q596.15 229.88 594.45 229.88M594.98 228.06Q596.56 228.06 597.50 227.29Q598.43 226.52 598.43 225.20L598.43 223.35L594.59 223.35Q593.54 223.35 592.88 223.99Q592.22 224.62 592.22 225.68Q592.22 226.78 592.95 227.42Q593.68 228.06 594.98 228.06" fill="white" fill-opacity="0.7"/>
<path d="M607.65 229.64L605.49 229.64L605.49 216.44L607.65 216.44L607.65 218.96L607.70 218.96Q607.86 217.69 608.78 216.94Q609.69 216.20 611.22 216.20Q613.29 216.20 614.40 217.44Q615.52 218.67 615.52 220.95L615.52 222.08L613.36 222.08L613.36 220.95Q613.36 218.07 610.55 218.07Q609.14 218.07 608.39 218.89Q607.65 219.70 607.65 221.24" fill="white" fill-opacity="0.7"/>
<path d="M624.40 229.88Q622.07 229.88 620.64 228.48Q619.22 227.07 619.22 224.60L619.22 221.48Q619.22 219.01 620.64 217.60Q622.07 216.20 624.40 216.20Q625.96 216.20 627.12 216.82Q628.29 217.45 628.94 218.58Q629.58 219.70 629.58 221.24L629.58 223.59L621.33 223.59L621.33 224.84Q621.33 226.30 622.17 227.16Q623.01 228.01 624.40 228.01Q625.60 228.01 626.38 227.54Q627.16 227.07 627.33 226.28L629.49 226.28Q629.27 227.94 627.88 228.91Q626.49 229.88 624.40 229.88M621.33 221.24L621.33 221.91L627.47 221.91L627.47 221.24Q627.47 219.68 626.67 218.83Q625.86 217.98 624.40 217.98Q622.94 217.98 622.13 218.83Q621.33 219.68 621.33 221.24" fill="white" fill-opacity="0.7"/>
<path d="M653.18 229.88Q650.90 229.88 649.53 228.52Q648.16 227.17 648.16 224.84L648.16 216.44L650.32 216.44L650.32 224.84Q650.32 226.28 651.09 227.13Q651.86 227.98 653.18 227.98Q654.52 227.98 655.30 227.13Q656.08 226.28 656.08 224.84L656.08 216.44L658.24 216.44L658.24 224.84Q658.24 227.17 656.85 228.52Q655.46 229.88 653.18 229.88" fill="white" fill-opacity="0.7"/>
<path d="M664.77 229.64L662.61 229.64L662.61 216.44L664.77 216.44L664.77 218.96L664.79 218.96Q664.96 217.64 665.87 216.92Q666.78 216.20 668.30 216.20Q670.29 216.20 671.46 217.42Q672.64 218.65 672.64 220.76L672.64 229.64L670.48 229.64L670.48 221.14Q670.48 219.63 669.72 218.83Q668.97 218.02 667.67 218.02Q666.33 218.02 665.55 218.86Q664.77 219.70 664.77 221.24" fill="white" fill-opacity="0.7"/>
<path d="M681.23 229.88Q679.26 229.88 678.08 228.56Q676.89 227.24 676.89 224.98L676.89 221.12Q676.89 218.84 678.06 217.52Q679.24 216.20 681.23 216.20Q682.72 216.20 683.69 216.94Q684.66 217.69 684.86 218.96L684.88 218.96L684.83 215.96L684.83 212.12L686.99 212.12L686.99 229.64L684.83 229.64L684.83 227.12L684.81 227.12Q684.64 228.42 683.68 229.15Q682.72 229.88 681.23 229.88M681.95 228.01Q683.30 228.01 684.06 227.17Q684.83 226.33 684.83 224.84L684.83 221.24Q684.83 219.75 684.06 218.91Q683.30 218.07 681.95 218.07Q680.58 218.07 679.82 218.78Q679.05 219.49 679.05 221.12L679.05 224.96Q679.05 226.57 679.82 227.29Q680.58 228.01 681.95 228.01" fill="white" fill-opacity="0.7"/>
<path d="M696.40 229.88Q694.07 229.88 692.64 228.48Q691.22 227.07 691.22 224.60L691.22 221.48Q691.22 219.01 692.64 217.60Q694.07 216.20 696.40 216.20Q697.96 216.20 699.12 216.82Q700.29 217.45 700.94 218.58Q701.58 219.70 701.58 221.24L701.58 223.59L693.33 223.59L693.33 224.84Q693.33 226.30 694.17 227.16Q695.01 228.01 696.40 228.01Q697.60 228.01 698.38 227.54Q699.16 227.07 699.33 226.28L701.49 226.28Q701.27 227.94 699.88 228.91Q698.49 229.88 696.40 229.88M693.33 221.24L693.33 221.91L699.47 221.91L699.47 221.24Q699.47 219.68 698.67 218.83Q697.86 217.98 696.40 217.98Q694.94 217.98 694.13 218.83Q693.33 219.68 693.33 221.24" fill="white" fill-opacity="0.7"/>
<path d="M708.45 229.64L706.29 229.64L706.29 216.44L708.45 216.44L708.45 218.96L708.50 218.96Q708.66 217.69 709.58 216.94Q710.49 216.20 712.02 216.20Q714.09 216.20 715.20 217.44Q716.32 218.67 716.32 220.95L716.32 222.08L714.16 222.08L714.16 220.95Q714.16 218.07 711.35 218.07Q709.94 218.07 709.19 218.89Q708.45 219.70 708.45 221.24" fill="white" fill-opacity="0.7"/>
<path d="M744.76 229.64L740.92 229.64Q739.29 229.64 738.30 228.69Q737.32 227.74 737.32 226.16L737.32 218.41L733.53 218.41L733.53 216.44L737.32 216.44L737.32 212.72L739.48 212.72L739.48 216.44L744.88 216.44L744.88 218.41L739.48 218.41L739.48 226.16Q739.48 226.83 739.88 227.25Q740.27 227.67 740.92 227.67L744.76 227.67" fill="white" fill-opacity="0.7"/>
<path d="M751.17 229.64L749.01 229.64L749.01 212.12L751.17 212.12L751.17 218.96L751.19 218.96Q751.36 217.64 752.27 216.92Q753.18 216.20 754.70 216.20Q756.69 216.20 757.86 217.42Q759.04 218.65 759.04 220.76L759.04 229.64L756.88 229.64L756.88 221.12Q756.88 219.63 756.12 218.83Q755.37 218.02 754.07 218.02Q752.73 218.02 751.95 218.86Q751.17 219.70 751.17 221.24" fill="white" fill-opacity="0.7"/>
<path d="M768.40 229.88Q766.07 229.88 764.64 228.48Q763.22 227.07 763.22 224.60L763.22 221.48Q763.22 219.01 764.64 217.60Q766.07 216.20 768.40 216.20Q769.96 216.20 771.12 216.82Q772.29 217.45 772.94 218.58Q773.58 219.70 773.58 221.24L773.58 223.59L765.33 223.59L765.33 224.84Q765.33 226.30 766.17 227.16Q767.01 228.01 768.40 228.01Q769.60 228.01 770.38 227.54Q771.16 227.07 771.33 226.28L773.49 226.28Q773.27 227.94 771.88 228.91Q770.49 229.88 768.40 229.88M765.33 221.24L765.33 221.91L771.47 221.91L771.47 221.24Q771.47 219.68 770.67 218.83Q769.86 217.98 768.40 217.98Q766.94 217.98 766.13 218.83Q765.33 219.68 765.33 221.24" fill="white" fill-opacity="0.7"/>
<path d="M797.73 229.83L796.67 229.83Q794.46 229.83 793.25 228.84Q792.04 227.84 792.04 226.02L794.20 226.02Q794.20 226.93 794.85 227.44Q795.50 227.96 796.67 227.96L797.73 227.96Q798.93 227.96 799.59 227.43Q800.25 226.90 800.25 225.94Q800.25 224.24 798.69 224.02L795.04 223.50Q793.70 223.30 792.95 222.38Q792.21 221.46 792.21 219.94Q792.21 218.22 793.40 217.23Q794.58 216.25 796.67 216.25L797.73 216.25Q799.65 216.25 800.86 217.20Q802.07 218.14 802.17 219.68L799.98 219.68Q799.94 218.98 799.32 218.53Q798.71 218.07 797.73 218.07L796.67 218.07Q795.57 218.07 794.94 218.58Q794.32 219.08 794.32 219.94Q794.32 221.34 795.59 221.53L799 222.01Q802.36 222.49 802.36 225.94Q802.36 227.79 801.15 228.81Q799.94 229.83 797.73 229.83" fill="white" fill-opacity="0.7"/>
<path d="M810.45 229.88Q808.41 229.88 807.21 228.74Q806.01 227.60 806.01 225.75Q806.01 224.53 806.56 223.62Q807.11 222.70 808.10 222.19Q809.08 221.67 810.35 221.67L814.43 221.67L814.43 220.64Q814.43 218.07 811.62 218.07Q810.38 218.07 809.61 218.53Q808.84 218.98 808.79 219.80L806.63 219.80Q806.75 218.24 808.08 217.22Q809.42 216.20 811.62 216.20Q814.02 216.20 815.31 217.35Q816.59 218.50 816.59 220.57L816.59 229.64L814.46 229.64L814.46 227.24L814.41 227.24Q814.22 228.46 813.18 229.17Q812.15 229.88 810.45 229.88M810.98 228.06Q812.56 228.06 813.50 227.29Q814.43 226.52 814.43 225.20L814.43 223.35L810.59 223.35Q809.54 223.35 808.88 223.99Q808.22 224.62 808.22 225.68Q808.22 226.78 808.95 227.42Q809.68 228.06 810.98 228.06" fill="white" fill-opacity="0.7"/>
<path d="M822.26 229.64L820.24 229.64L820.24 216.44L822.11 216.44L822.11 218.19L822.16 218.19Q822.28 217.30 822.87 216.75Q823.46 216.20 824.37 216.20Q825.23 216.20 825.83 216.70Q826.43 217.21 826.70 218.07L826.72 218.07Q826.89 217.21 827.48 216.70Q828.06 216.20 828.98 216.20Q830.25 216.20 831 217.15Q831.76 218.10 831.76 219.61L831.76 229.64L829.74 229.64L829.74 219.58Q829.74 218.79 829.36 218.32Q828.98 217.86 828.30 217.86Q827.66 217.86 827.27 218.31Q826.89 218.77 826.89 219.56L826.89 229.64L825.11 229.64L825.11 219.58Q825.11 218.79 824.73 218.32Q824.34 217.86 823.70 217.86Q823.02 217.86 822.64 218.31Q822.26 218.77 822.26 219.56" fill="white" fill-opacity="0.7"/>
<path d="M840.40 229.88Q838.07 229.88 836.64 228.48Q835.22 227.07 835.22 224.60L835.22 221.48Q835.22 219.01 836.64 217.60Q838.07 216.20 840.40 216.20Q841.96 216.20 843.12 216.82Q844.29 217.45 844.94 218.58Q845.58 219.70 845.58 221.24L845.58 223.59L837.33 223.59L837.33 224.84Q837.33 226.30 838.17 227.16Q839.01 228.01 840.40 228.01Q841.60 228.01 842.38 227.54Q843.16 227.07 843.33 226.28L845.49 226.28Q845.27 227.94 843.88 228.91Q842.49 229.88 840.40 229.88M837.33 221.24L837.33 221.91L843.47 221.91L843.47 221.24Q843.47 219.68 842.67 218.83Q841.86 217.98 840.40 217.98Q838.94 217.98 838.13 218.83Q837.33 219.68 837.33 221.24" fill="white" fill-opacity="0.7"/>
<path d="M869.39 229.88Q866.99 229.88 865.55 228.54Q864.11 227.19 864.11 224.84L864.11 221.24Q864.11 218.89 865.55 217.54Q866.99 216.20 869.39 216.20Q871.67 216.20 873.08 217.42Q874.48 218.65 874.55 220.76L872.39 220.76Q872.32 219.49 871.53 218.80Q870.74 218.12 869.39 218.12Q867.98 218.12 867.12 218.92Q866.27 219.73 866.27 221.22L866.27 224.84Q866.27 226.33 867.12 227.14Q867.98 227.96 869.39 227.96Q870.74 227.96 871.53 227.26Q872.32 226.57 872.39 225.32L874.55 225.32Q874.48 227.43 873.08 228.66Q871.67 229.88 869.39 229.88" fill="white" fill-opacity="0.7"/>
<path d="M883.60 229.83Q881.22 229.83 879.82 228.44Q878.42 227.05 878.42 224.55L878.42 221.53Q878.42 219.01 879.81 217.63Q881.20 216.25 883.60 216.25Q886 216.25 887.39 217.63Q888.78 219.01 888.78 221.53L888.78 224.55Q888.78 227.05 887.38 228.44Q885.98 229.83 883.60 229.83M883.60 227.91Q885.02 227.91 885.82 227.12Q886.62 226.33 886.62 224.79L886.62 221.29Q886.62 219.75 885.82 218.96Q885.02 218.17 883.60 218.17Q882.21 218.17 881.39 218.96Q880.58 219.75 880.58 221.29L880.58 224.79Q880.58 226.33 881.39 227.12Q882.21 227.91 883.60 227.91" fill="white" fill-opacity="0.7"/>
<path d="M894.26 229.64L892.24 229.64L892.24 216.44L894.11 216.44L894.11 218.19L894.16 218.19Q894.28 217.30 894.87 216.75Q895.46 216.20 896.37 216.20Q897.23 216.20 897.83 216.70Q898.43 217.21 898.70 218.07L898.72 218.07Q898.89 217.21 899.48 216.70Q900.06 216.20 900.98 216.20Q902.25 216.20 903 217.15Q903.76 218.10 903.76 219.61L903.76 229.64L901.74 229.64L901.74 219.58Q901.74 218.79 901.36 218.32Q900.98 217.86 900.30 217.86Q899.66 217.86 899.27 218.31Q898.89 218.77 898.89 219.56L898.89 229.64L897.11 229.64L897.11 219.58Q897.11 218.79 896.73 218.32Q896.34 217.86 895.70 217.86Q895.02 217.86 894.64 218.31Q894.26 218.77 894.26 219.56" fill="white" fill-opacity="0.7"/>
<path d="M909.57 233.96L907.41 233.96L907.41 216.44L909.57 216.44L909.57 218.96L909.59 218.96Q909.76 217.66 910.72 216.93Q911.68 216.20 913.17 216.20Q915.16 216.20 916.34 217.51Q917.51 218.82 917.51 221.10L917.51 224.96Q917.51 227.24 916.34 228.56Q915.16 229.88 913.17 229.88Q911.68 229.88 910.72 229.14Q909.76 228.39 909.59 227.12L909.52 227.12L909.57 230.12L909.57 233.96M912.45 228.01Q913.82 228.01 914.58 227.29Q915.35 226.57 915.35 224.96L915.35 221.12Q915.35 219.49 914.58 218.78Q913.82 218.07 912.45 218.07Q911.13 218.07 910.35 218.91Q909.57 219.75 909.57 221.24L909.57 224.84Q909.57 226.33 910.35 227.17Q911.13 228.01 912.45 228.01" fill="white" fill-opacity="0.7"/>
<path d="M925.65 229.88Q923.61 229.88 922.41 228.74Q921.21 227.60 921.21 225.75Q921.21 224.53 921.76 223.62Q922.31 222.70 923.30 222.19Q924.28 221.67 925.55 221.67L929.63 221.67L929.63 220.64Q929.63 218.07 926.82 218.07Q925.58 218.07 924.81 218.53Q924.04 218.98 923.99 219.80L921.83 219.80Q921.95 218.24 923.28 217.22Q924.62 216.20 926.82 216.20Q929.22 216.20 930.51 217.35Q931.79 218.50 931.79 220.57L931.79 229.64L929.66 229.64L929.66 227.24L929.61 227.24Q929.42 228.46 928.38 229.17Q927.35 229.88 925.65 229.88M926.18 228.06Q927.76 228.06 928.70 227.29Q929.63 226.52 929.63 225.20L929.63 223.35L925.79 223.35Q924.74 223.35 924.08 223.99Q923.42 224.62 923.42 225.68Q923.42 226.78 924.15 227.42Q924.88 228.06 926.18 228.06" fill="white" fill-opacity="0.7"/>
<path d="M938.37 229.64L936.21 229.64L936.21 216.44L938.37 216.44L938.37 218.96L938.39 218.96Q938.56 217.64 939.47 216.92Q940.38 216.20 941.90 216.20Q943.89 216.20 945.06 217.42Q946.24 218.65 946.24 220.76L946.24 229.64L944.08 229.64L944.08 221.14Q944.08 219.63 943.32 218.83Q942.57 218.02 941.27 218.02Q939.93 218.02 939.15 218.86Q938.37 219.70 938.37 221.24" fill="white" fill-opacity="0.7"/>
<path d="M954.93 233.96L952.67 233.96L954.62 228.82L949.70 216.44L952.02 216.44L955.14 224.60Q955.34 225.08 955.50 225.61Q955.67 226.14 955.74 226.52Q955.82 226.14 955.98 225.61Q956.15 225.08 956.32 224.60L959.22 216.44L961.50 216.44" fill="white" fill-opacity="0.7"/>
<path d="M983.25 229.88Q981.21 229.88 980.01 228.74Q978.81 227.60 978.81 225.75Q978.81 224.53 979.36 223.62Q979.91 222.70 980.90 222.19Q981.88 221.67 983.15 221.67L987.23 221.67L987.23 220.64Q987.23 218.07 984.42 218.07Q983.18 218.07 982.41 218.53Q981.64 218.98 981.59 219.80L979.43 219.80Q979.55 218.24 980.88 217.22Q982.22 216.20 984.42 216.20Q986.82 216.20 988.11 217.35Q989.39 218.50 989.39 220.57L989.39 229.64L987.26 229.64L987.26 227.24L987.21 227.24Q987.02 228.46 985.98 229.17Q984.95 229.88 983.25 229.88M983.78 228.06Q985.36 228.06 986.30 227.29Q987.23 226.52 987.23 225.20L987.23 223.35L983.39 223.35Q982.34 223.35 981.68 223.99Q981.02 224.62 981.02 225.68Q981.02 226.78 981.75 227.42Q982.48 228.06 983.78 228.06" fill="white" fill-opacity="0.7"/>
<path d="M998.99 229.88Q996.59 229.88 995.15 228.54Q993.71 227.19 993.71 224.84L993.71 221.24Q993.71 218.89 995.15 217.54Q996.59 216.20 998.99 216.20Q1001.27 216.20 1002.68 217.42Q1004.08 218.65 1004.15 220.76L1001.99 220.76Q1001.92 219.49 1001.13 218.80Q1000.34 218.12 998.99 218.12Q997.58 218.12 996.72 218.92Q995.87 219.73 995.87 221.22L995.87 224.84Q995.87 226.33 996.72 227.14Q997.58 227.96 998.99 227.96Q1000.34 227.96 1001.13 227.26Q1001.92 226.57 1001.99 225.32L1004.15 225.32Q1004.08 227.43 1002.68 228.66Q1001.27 229.88 998.99 229.88" fill="white" fill-opacity="0.7"/>
<path d="M1013.39 229.88Q1010.99 229.88 1009.55 228.54Q1008.11 227.19 1008.11 224.84L1008.11 221.24Q1008.11 218.89 1009.55 217.54Q1010.99 216.20 1013.39 216.20Q1015.67 216.20 1017.08 217.42Q1018.48 218.65 1018.55 220.76L1016.39 220.76Q1016.32 219.49 1015.53 218.80Q1014.74 218.12 1013.39 218.12Q1011.98 218.12 1011.12 218.92Q1010.27 219.73 1010.27 221.22L1010.27 224.84Q1010.27 226.33 1011.12 227.14Q1011.98 227.96 1013.39 227.96Q1014.74 227.96 1015.53 227.26Q1016.32 226.57 1016.39 225.32L1018.55 225.32Q1018.48 227.43 1017.08 228.66Q1015.67 229.88 1013.39 229.88" fill="white" fill-opacity="0.7"/>
<path d="M1027.60 229.83Q1025.22 229.83 1023.82 228.44Q1022.42 227.05 1022.42 224.55L1022.42 221.53Q1022.42 219.01 1023.81 217.63Q1025.20 216.25 1027.60 216.25Q1030 216.25 1031.39 217.63Q1032.78 219.01 1032.78 221.53L1032.78 224.55Q1032.78 227.05 1031.38 228.44Q1029.98 229.83 1027.60 229.83M1027.60 227.91Q1029.02 227.91 1029.82 227.12Q1030.62 226.33 1030.62 224.79L1030.62 221.29Q1030.62 219.75 1029.82 218.96Q1029.02 218.17 1027.60 218.17Q1026.21 218.17 1025.39 218.96Q1024.58 219.75 1024.58 221.29L1024.58 224.79Q1024.58 226.33 1025.39 227.12Q1026.21 227.91 1027.60 227.91" fill="white" fill-opacity="0.7"/>
<path d="M1041.98 229.88Q1039.70 229.88 1038.33 228.52Q1036.96 227.17 1036.96 224.84L1036.96 216.44L1039.12 216.44L1039.12 224.84Q1039.12 226.28 1039.89 227.13Q1040.66 227.98 1041.98 227.98Q1043.32 227.98 1044.10 227.13Q1044.88 226.28 1044.88 224.84L1044.88 216.44L1047.04 216.44L1047.04 224.84Q1047.04 227.17 1045.65 228.52Q1044.26 229.88 1041.98 229.88" fill="white" fill-opacity="0.7"/>
<path d="M1053.57 229.64L1051.41 229.64L1051.41 216.44L1053.57 216.44L1053.57 218.96L1053.59 218.96Q1053.76 217.64 1054.67 216.92Q1055.58 216.20 1057.10 216.20Q1059.09 216.20 1060.26 217.42Q1061.44 218.65 1061.44 220.76L1061.44 229.64L1059.28 229.64L1059.28 221.14Q1059.28 219.63 1058.52 218.83Q1057.77 218.02 1056.47 218.02Q1055.13 218.02 1054.35 218.86Q1053.57 219.70 1053.57 221.24" fill="white" fill-opacity="0.7"/>
<path d="M1075.96 229.64L1072.12 229.64Q1070.49 229.64 1069.50 228.69Q1068.52 227.74 1068.52 226.16L1068.52 218.41L1064.73 218.41L1064.73 216.44L1068.52 216.44L1068.52 212.72L1070.68 212.72L1070.68 216.44L1076.08 216.44L1076.08 218.41L1070.68 218.41L1070.68 226.16Q1070.68 226.83 1071.08 227.25Q1071.47 227.67 1072.12 227.67L1075.96 227.67" fill="white" fill-opacity="0.7"/>
<path d="M76.11 136.06L66.42 136.06L84.56 65.98L97.14 65.98L115.18 136.06L105.49 136.06L101.07 117.82L80.53 117.82L76.11 136.06M87.54 88.92L82.45 109.95L99.15 109.95L94.16 89.02Q92.72 83.26 91.86 79.23Q90.99 75.20 90.80 73.76Q90.61 75.20 89.74 79.23Q88.88 83.26 87.54 88.92M146.86 136.06L128.05 136.06L128.05 65.98L146.86 65.98Q153.68 65.98 158.72 68.62Q163.76 71.26 166.54 76.01Q169.33 80.76 169.33 87.20L169.33 114.75Q169.33 121.18 166.54 125.98Q163.76 130.78 158.72 133.42Q153.68 136.06 146.86 136.06M137.55 74.43L137.55 127.61L146.86 127.61Q152.91 127.61 156.37 124.16Q159.82 120.70 159.82 114.75L159.82 87.20Q159.82 81.24 156.37 77.84Q152.91 74.43 146.86 74.43L137.55 74.43M210.80 136.06L201.30 136.06L201.30 110.04L180.27 65.98L190.35 65.98L203.31 93.63Q204.46 96.12 205.18 98.14Q205.90 100.16 206.10 101.02Q206.38 100.16 207.10 98.14Q207.82 96.12 209.07 93.63L221.94 65.98L231.73 65.98L210.80 110.04L210.80 136.06M284.91 136.06L244.11 136.06L244.11 65.98L284.91 65.98L284.91 74.52L253.52 74.52L253.52 95.36L281.55 95.36L281.55 103.61L253.52 103.61L253.52 127.52L284.91 127.52L284.91 136.06M309.58 136.06L300.66 136.06L300.66 65.98L312.94 65.98L333.87 125.12Q333.58 122.62 333.34 118.92Q333.10 115.23 332.96 111.24Q332.82 107.26 332.82 103.71L332.82 65.98L341.84 65.98L341.84 136.06L329.46 136.06L308.72 76.92Q308.91 79.42 309.10 83.02Q309.30 86.62 309.44 90.56Q309.58 94.49 309.58 97.95L309.58 136.06M437.74 136.06L416.14 136.06L416.14 65.98L436.40 65.98Q446.10 65.98 451.71 70.83Q457.33 75.68 457.33 84.12Q457.33 89.60 453.92 93.87Q450.51 98.14 445.14 99.10L445.14 99.39Q449.17 99.87 452.29 102.27Q455.41 104.67 457.18 108.36Q458.96 112.06 458.96 116.48Q458.96 125.50 453.25 130.78Q447.54 136.06 437.74 136.06M425.46 74.33L425.46 95.55L436.30 95.55Q441.68 95.55 444.75 92.72Q447.82 89.88 447.82 84.99Q447.82 80 444.75 77.16Q441.68 74.33 436.40 74.33L425.46 74.33M425.46 103.61L425.46 127.71L436.88 127.71Q442.74 127.71 446.10 124.59Q449.46 121.47 449.46 116.09Q449.46 110.52 446.10 107.07Q442.74 103.61 436.88 103.61L425.46 103.61M479.31 136.06L469.62 136.06L487.76 65.98L500.34 65.98L518.38 136.06L508.69 136.06L504.27 117.82L483.73 117.82L479.31 136.06M490.74 88.92L485.65 109.95L502.35 109.95L497.36 89.02Q495.92 83.26 495.06 79.23Q494.19 75.20 NaN 73.76Q493.81 75.20 492.94 79.23Q492.08 83.26 490.74 88.92M575.79 136.06L535.09 136.06L535.09 65.98L544.59 65.98L544.59 127.42L575.79 127.42L575.79 136.06M594.51 136.06L584.82 136.06L602.96 65.98L615.54 65.98L633.58 136.06L623.89 136.06L619.47 117.82L598.93 117.82L594.51 136.06M605.94 88.92L600.85 109.95L617.55 109.95L612.56 89.02Q611.12 83.26 610.26 79.23Q609.39 75.20 609.20 73.76Q609.01 75.20 608.14 79.23Q607.28 83.26 605.94 88.92M655.18 136.06L646.26 136.06L646.26 65.98L658.54 65.98L679.47 125.12Q679.18 122.62 678.94 118.92Q678.70 115.23 678.56 111.24Q678.42 107.26 678.42 103.71L678.42 65.98L687.44 65.98L687.44 136.06L675.06 136.06L654.32 76.92Q654.51 79.42 654.70 83.02Q654.90 86.62 655.04 90.56Q655.18 94.49 655.18 97.95L655.18 136.06M725.17 137.02Q715.47 137.02 709.76 131.60Q704.05 126.17 704.05 116.67L704.05 85.28Q704.05 75.87 709.76 70.44Q715.47 65.02 725.17 65.02Q734.77 65.02 740.48 70.49Q746.19 75.96 746.19 85.28L736.69 85.28Q736.69 79.61 733.62 76.54Q730.54 73.47 725.17 73.47Q719.70 73.47 716.62 76.54Q713.55 79.61 713.55 85.28L713.55 116.67Q713.55 122.43 716.62 125.50Q719.70 128.57 725.17 128.57Q730.54 128.57 733.62 125.50Q736.69 122.43 736.69 116.67L746.19 116.67Q746.19 126.08 740.48 131.55Q734.77 137.02 725.17 137.02M803.31 136.06L762.51 136.06L762.51 65.98L803.31 65.98L803.31 74.52L771.92 74.52L771.92 95.36L799.95 95.36L799.95 103.61L771.92 103.61L771.92 127.52L803.31 127.52L803.31 136.06M840.37 137.02Q830.67 137.02 824.96 131.60Q819.25 126.17 819.25 116.67L819.25 85.28Q819.25 75.87 824.96 70.44Q830.67 65.02 840.37 65.02Q849.97 65.02 855.68 70.49Q861.39 75.96 861.39 85.28L851.89 85.28Q851.89 79.61 848.82 76.54Q845.74 73.47 840.37 73.47Q834.90 73.47 831.82 76.54Q828.75 79.61 828.75 85.28L828.75 116.67Q828.75 122.43 831.82 125.50Q834.90 128.57 840.37 128.57Q845.74 128.57 848.82 125.50Q851.89 122.43 851.89 116.67L861.39 116.67Q861.39 126.08 855.68 131.55Q849.97 137.02 840.37 137.02M897.20 137.02Q887.60 137.02 882.03 131.45Q876.46 125.88 876.46 115.71L876.46 86.24Q876.46 76.16 882.03 70.59Q887.60 65.02 897.20 65.02Q906.80 65.02 912.37 70.54Q917.94 76.06 917.94 86.24L917.94 115.71Q917.94 125.88 912.37 131.45Q906.80 137.02 897.20 137.02M897.20 128.57Q902.58 128.57 905.50 125.50Q908.43 122.43 908.43 116.67L908.43 85.28Q908.43 79.61 905.55 76.54Q902.67 73.47 897.20 73.47Q891.73 73.47 888.85 76.54Q885.97 79.61 885.97 85.28L885.97 116.67Q885.97 122.43 888.90 125.50Q891.82 128.57 897.20 128.57M943.18 136.06L934.26 136.06L934.26 65.98L946.54 65.98L967.47 125.12Q967.18 122.62 966.94 118.92Q966.70 115.23 966.56 111.24Q966.42 107.26 966.42 103.71L966.42 65.98L975.44 65.98L975.44 136.06L963.06 136.06L942.32 76.92Q942.51 79.42 942.70 83.02Q942.90 86.62 943.04 90.56Q943.18 94.49 943.18 97.95L943.18 136.06M1017.20 136.06L1007.70 136.06L1007.70 74.62L988.69 74.62L988.69 65.98L1036.11 65.98L1036.11 74.62L1017.20 74.62L1017.20 136.06M1059.15 136.06L1049.74 136.06L1049.74 65.98L1071.44 65.98Q1077.87 65.98 1082.67 68.52Q1087.47 71.07 1090.16 75.63Q1092.85 80.19 1092.85 86.33Q1092.85 93.44 1089.25 98.52Q1085.65 103.61 1079.70 105.72L1093.81 136.06L1083.34 136.06LNaN 106.78L1059.15 106.78L1059.15 136.06M1059.15 74.43L1059.15 98.33L1071.44 98.33Q1076.82 98.33 1079.94 95.07Q1083.06 91.80 1083.06 86.43Q1083.06 80.96 1079.89 77.69Q1076.72 74.43 1071.44 74.43L1059.15 74.43M1127.60 137.02QNaN 137.02 1112.43 131.45Q1106.86 125.88 1106.86 115.71L1106.86 86.24Q1106.86 76.16 1112.43 70.59QNaN 65.02 1127.60 65.02Q1137.20 65.02 1142.77 70.54Q1148.34 76.06 1148.34 86.24L1148.34 115.71Q1148.34 125.88 1142.77 131.45Q1137.20 137.02 1127.60 137.02M1127.60 128.57Q1132.98 128.57 1135.90 125.50Q1138.83 122.43 1138.83 116.67L1138.83 85.28Q1138.83 79.61 1135.95 76.54Q1133.07 73.47 1127.60 73.47Q1122.13 73.47 1119.25 76.54Q1116.37 79.61 1116.37 85.28L1116.37 116.67Q1116.37 122.43 1119.30 125.50Q1122.22 128.57 1127.60 128.57M1209.39 136.06L1168.69 136.06L1168.69 65.98L1178.19 65.98L1178.19 127.42L1209.39 127.42L1209.39 136.06M1243.18 137.02Q1232.82 137.02 1226.67 131.60Q1220.53 126.17 1220.53 116.67L1230.03 116.67Q1230.03 122.24 1233.58 125.40Q1237.14 128.57 1243.18 128.57Q1248.94 128.57 1252.35 125.36Q1255.76 122.14 1255.76 116.76Q1255.76 112.73 1253.55 109.71Q1251.34 106.68 1247.31 105.63L1236.94 102.84Q1230.13 100.92 1226.14 95.88Q1222.16 90.84 1222.16 83.93Q1222.16 78.27 1224.70 74Q1227.25 69.72 1231.86 67.37Q1236.46 65.02 1242.51 65.02Q1248.66 65.02 1253.31 67.37Q1257.97 69.72 1260.56 73.95Q1263.15 78.17 1263.15 83.74L1253.74 83.74Q1253.74 79.13 1250.62 76.25Q1247.50 73.37 1242.51 73.37Q1237.52 73.37 1234.50 76.25Q1231.47 79.13 1231.47 83.74Q1231.47 87.48 1233.49 90.03Q1235.50 92.57 1239.15 93.63L1249.81 96.51Q1257.01 98.43 1261.04 103.85Q1265.07 109.28 1265.07 116.76Q1265.07 122.91 1262.38 127.47Q1259.70 132.03 1254.75 134.52Q1249.81 137.02 1243.18 137.02M1321.71 136.06L1280.91 136.06L1280.91 65.98L1321.71 65.98L1321.71 74.52L1290.32 74.52L1290.32 95.36L1318.35 95.36L1318.35 103.61L1290.32 103.61L1290.32 127.52L1321.71 127.52L1321.71 136.06M1347.15 136.06L1337.74 136.06L1337.74 65.98L1359.44 65.98Q1365.87 65.98 1370.67 68.52Q1375.47 71.07 1378.16 75.63Q1380.85 80.19 1380.85 86.33Q1380.85 93.44 1377.25 98.52Q1373.65 103.61 1367.70 105.72L1381.81 136.06L1371.34 136.06L1358 106.78L1347.15 106.78L1347.15 136.06M1347.15 74.43L1347.15 98.33L1359.44 98.33Q1364.82 98.33 1367.94 95.07Q1371.06 91.80 1371.06 86.43Q1371.06 80.96 1367.89 77.69Q1364.72 74.43 1359.44 74.43L1347.15 74.43M1421.94 136.06L1409.17 136.06L1391.22 65.98L1401.01 65.98L1412.62 113.21Q1413.78 117.72 1414.59 121.90Q1415.41 126.08 1415.79 128.28Q1416.08 126.08 1416.99 121.85Q1417.90 117.63 1418.96 113.12L1430.19 65.98L1439.98 65.98L1421.94 136.06M1492.30 136.06L1454.10 136.06L1454.10 127.42L1468.40 127.42L1468.40 74.62L1454.10 74.62L1454.10 65.98L1492.30 65.98L1492.30 74.62L1478 74.62L1478 127.42L1492.30 127.42L1492.30 136.06M1531.57 137.02Q1521.87 137.02 1516.16 131.60Q1510.45 126.17 1510.45 116.67L1510.45 85.28Q1510.45 75.87 1516.16 70.44Q1521.87 65.02 1531.57 65.02Q1541.17 65.02 1546.88 70.49Q1552.59 75.96 1552.59 85.28L1543.09 85.28Q1543.09 79.61 1540.02 76.54Q1536.94 73.47 1531.57 73.47Q1526.10 73.47 1523.02 76.54Q1519.95 79.61 1519.95 85.28L1519.95 116.67Q1519.95 122.43 1523.02 125.50Q1526.10 128.57 1531.57 128.57Q1536.94 128.57 1540.02 125.50Q1543.09 122.43 1543.09 116.67L1552.59 116.67Q1552.59 126.08 1546.88 131.55Q1541.17 137.02 1531.57 137.02M1609.71 136.06L1568.91 136.06L1568.91 65.98L1609.71 65.98L1609.71 74.52L1578.32 74.52L1578.32 95.36L1606.35 95.36L1606.35 103.61L1578.32 103.61L1578.32 127.52L1609.71 127.52" fill="url(#paint2_linear_0_1)"/>
<g id="Group 1">
<rect id="Rectangle 1" x="26" y="168" width="12" height="184" rx="5" fill="url(#paint3_linear_0_1)" fill-opacity="0.9"/>
</g>
<g id="Group 1_2">
<rect id="Rectangle 2" x="26" y="38" width="12" height="119" rx="5" fill="url(#paint4_linear_0_1)" fill-opacity="0.9"/>
</g>
<ellipse id="Ellipse 1" cx="148.5" cy="573" rx="215.5" ry="214" fill="url(#paint5_linear_0_1)" fill-opacity="0.4"/>
<rect id="Rectangle 3" x="1229" y="48" width="300" height="300" rx="25" fill="#FFFBFB" fill-opacity="0.9"/>
<g id="placeholder-logo"><g transform="translate(1229,48) translate(0.0,60.0) scale(1.2000)"><g fill="#666666">
  <path d="m88.05,27.65c-3.15,4 -3.2,51.2 -0.05,54.35c2.75,2.75 71.7,3.15 74.45,0.45c2.85,-2.9 2.3,-53.85 -0.65,-55.9c-1.95,-1.35 -7.15,-1.55 -36.95,-1.55l-34.7,0l-2.1,2.65zm69.45,3.35c0.65,0 1,8.6 1,23.75l0,23.75l-33,0l-33,0l-0.25,-23c-0.15,-12.6 -0.1,-23.45 0.15,-24.1c0.35,-0.85 8.9,-1.05 32.25,-0.75c17.55,0.2 32.3,0.35 32.85,0.35z"/>
  <path d="m99.15,37.3c-6.85,7.35 4.25,17.35 11.4,10.25c1.35,-1.35 2.45,-3.65 2.45,-5.05c0,-6.45 -9.35,-9.95 -13.85,-5.2z"/>
  <path d="m135,42.5c-0.7,0.85 -5.25,5.15 -10.1,9.6l-8.85,8.1l-3.2,-3.2l-3.15,-3.15l-6.35,6.3c-5.55,5.5 -6.35,6.75 -6.35,10.05l0,3.8l28.5,0l28.5,0l0,-8.6l0,-8.55l-8.15,-7.7c-9.35,-8.85 -9.15,-8.7 -10.85,-6.65zm7.25,15.2c0.95,0.9 1.75,2.9 1.75,4.45c6.35,-5.05 4.75,-7.15 4.9,-11.55c0.95,0 0,0 0,0l-6.65,7.1z"/>
  <path d="m53.65,110.75c0.1,4.8 0.45,8.65 0.75,8.5c0.35,-0.15 1.3,-0.25 2.1,-0.25c1.1,0 1.5,-1.2 1.5,-4.75l0,-4.75l3.25,5c4.9,7.5 6.2,6.75 6.55,-3.75c0.25,-8.15 0.15,-8.75 -1.7,-8.75c-1.65,0 -2.05,0.8 -2.3,4.75l-0.3,4.75l-2.8,-4.75c-4.85,-8.25 -7.25,-6.9 -7.05,4z"/>
  <path d="m91,108.9c0,9.65 0.3,10.1 6.1,10.1c5.8,0 7.15,-2.65 1.65,-3.2l-3.25,-0.3l-0.3,-6.75c-0.25,-5.95 -0.55,-6.75 -2.25,-6.75c-1.75,0 -1.95,0.7 -1.95,6.9z"/>
  <path d="m151,102.45c0,0.25 1,2.15 2.25,4.2c1.2,2.1 2.45,5.8 2.75,8.25c0.65,5.9 4,6.95 4,1.25c0.05,-2.1 1.25,-5.85 2.95,-8.9l2.9,-5.25l-2.5,0c-1.8,0 -2.8,0.85 -3.75,3.1l-1.3,3.05l-1.25,-3.05c-1.1,-2.6 -6.05,-4.8 -6.05,-2.65z"/>
  <path d="m191,107.45c0,9.05 3.4,8.85 4.25,-0.2c0.45,-5 0.35,-5.25 -1.9,-5.25c-2.2,0 -2.35,0.4 -2.35,5.45z"/>
  <path d="m180.8,104.75c-1.3,5.35 0.65,13.6 3.45,14.35c2.3,0.6 2.75,0.4 2.75,-1.2c0,-1.05 -0.45,-1.9 -1,-1.9c-0.55,0 -1,-1.6 -1,-3.5c0,-1.95 0.45,-3.5 1,-3.5c0.55,0 1,-0.7 1,-1.5c0,-0.85 -0.45,-1.5 -1,-1.5c-0.55,0 -1,-0.7 -1,-1.5c0,-2.1 -3.65,-1.9 -4.2,0.25z"/>
  <path d="m71.55,106.55c-2.2,2.25 -2.05,9.7 0.3,11.8c4.5,4.1 10.15,0.75 10.15,-6.1c0,-4.85 -2,-7.25 -6,-7.25c-1.55,0 -3.55,0.7 -4.45,1.55zm6.25,5.8c0.25,3.05 0,3.65 -1.6,3.65c-2.3,0 -3.25,-2.65 -2.05,-5.85c1.25,-3.35 3.3,-2.1 3.65,2.2z"/>
  <path d="m105.75,106.1c-2.5,1.45 -2.45,9.95 0.1,12.25c4.3,3.9 10.15,0.35 10.15,-6.2c0,-6 -5.15,-9.05 -10.25,-6.05zm6.05,6.25c0.25,3.05 0,3.65 -1.6,3.65c-2.3,0 -3.25,-2.65 -2.05,-5.85c1.25,-3.35 3.3,-2.1 3.65,2.2z"/>
  <path d="m119.2,106.2c-3.8,3.8 -0.4,12.55 4.4,11.35c1.9,-0.45 2.45,-0.3 2.15,0.65c-0.25,0.7 -1.55,1.2 -2.85,1.1c-4.05,-0.3 -5.35,0.45 -3.85,2.25c0.85,1.05 2.6,1.45 5.35,1.25l4.1,-0.3l0.3,-8.75l0.3,-8.75l-4.35,0c-2.4,0 -4.9,0.55 -5.55,1.2zm6.6,4.45c0.4,2.85 -2.15,4.85 -3.75,2.95c-0.9,-1.1 -0.9,-2 -0.05,-3.6c1.35,-2.5 3.4,-2.15 3.8,0.65z"/>
  <path d="m133.55,106.55c-2.2,2.25 -2.05,9.7 0.3,11.8c4.5,4.1 10.15,0.75 10.15,-6.1c0,-4.85 -2,-7.25 -6,-7.25c-1.55,0 -3.55,0.7 -4.45,1.55zm6.25,5.8c0.25,3.05 0,3.65 -1.6,3.65c-2.3,0 -3.25,-2.65 -2.05,-5.85c1.25,-3.35 3.3,-2.1 3.65,2.2z"/>
  <path d="m167.65,106.85c-3.9,4.3 -0.75,13.15 4.7,13.15c2.4,0 5.65,-2.75 5.65,-4.85c0,-1.4 -2.65,-1.55 -3.5,-0.15c-0.95,1.55 -4.5,1.15 -4.5,-0.5c0,-1.1 1.1,-1.5 4,-1.5c3.15,0 4,-0.35 4,-1.8c0,-5.3 -6.85,-8.25 -10.35,-4.35z"/>
  <path d="m191,117.5c0,2.15 0.4,2.6 2.25,2.3c1.5,-0.2 2.25,-1 2.25,-2.3c0,-1.3 -0.75,-2.1 -2.25,-2.3c-1.85,-0.3 -2.25,0.15 -2.25,2.3z"/>
 </g></g></g>
</g>
<defs>
<linearGradient id="paint0_linear_0_1" x1="0" y1="198" x2="1584" y2="198" gradientUnits="userSpaceOnUse">
<stop stop-color="#3D052C"/>
<stop offset="1"/>
</linearGradient>
<linearGradient id="paint1_linear_0_1" x1="323" y1="-224" x2="323" y2="352" gradientUnits="userSpaceOnUse">
<stop stop-color="#28F6F2" stop-opacity="0.4"/>
<stop offset="1" stop-color="#17908E" stop-opacity="0.7"/>
</linearGradient>
<linearGradient id="paint2_linear_0_1" x1="148.5" y1="38" x2="148.5" y2="140" gradientUnits="userSpaceOnUse">
<stop stop-color="white"/>
<stop offset="1" stop-color="#999999"/>
</linearGradient>
<linearGradient id="paint3_linear_0_1" x1="38" y1="260" x2="26" y2="260" gradientUnits="userSpaceOnUse">
<stop stop-color="#D9D9D9"/>
<stop offset="1" stop-color="#737373"/>
</linearGradient>
<linearGradient id="paint4_linear_0_1" x1="38" y1="97.5" x2="26" y2="97.5" gradientUnits="userSpaceOnUse">
<stop stop-color="#D9D9D9"/>
<stop offset="1" stop-color="#737373"/>
</linearGradient>
<linearGradient id="paint5_linear_0_1" x1="27.5" y1="434.5" x2="148.5" y2="787" gradientUnits="userSpaceOnUse">
<stop stop-color="#2E21BC"/>
<stop offset="1" stop-color="#150F56"/>
</linearGradient>
<clipPath id="clip0_0_1">
<rect width="1584" height="396" fill="white"/>
</clipPath>
</defs>
</svg>
