<svg width="1584" height="396" viewBox="0 0 1584 396" fill="none" xmlns="http://www.w3.org/2000/svg">
<rect width="1584" height="396" fill="#F5F5F5"/>
<g id="Awesome banner" clip-path="url(#clip0_0_1)">
<rect width="1584" height="396" fill="url(#paint0_linear_0_1)"/>
<ellipse id="Ellipse 2" cx="323" cy="64" rx="285" ry="288" fill="url(#paint1_linear_0_1)" fill-opacity="0.1"/>
<g id="copyright">
<path d="M75.95 334.52L72.30 334.52L72.30 311.16L77.20 311.16L83.70 330.04Q83.60 329.02 83.50 327.62Q83.41 326.23 83.33 324.79Q83.25 323.35 83.25 322.23L83.25 311.16L86.90 311.16L86.90 334.52L82 334.52L75.57 315.64Q75.63 316.57 75.73 317.88Q75.82 319.19 75.89 320.57Q75.95 321.94 75.95 323.10L75.95 334.52M98.80 334.84Q96.46 334.84 94.67 333.96Q92.88 333.08 91.89 331.53Q90.90 329.98 90.90 327.93Q90.90 325.78 92.13 324.18Q93.36 322.58 95.34 322.17L95.34 322.10Q93.65 321.75 92.61 320.38Q91.57 319 91.57 317.11Q91.57 315.26 92.48 313.85Q93.39 312.44 95.02 311.64Q96.66 310.84 98.80 310.84Q100.94 310.84 102.59 311.64Q104.24 312.44 105.15 313.85Q106.06 315.26 106.06 317.11Q106.06 319 105.01 320.38Q103.95 321.75 102.26 322.10L102.26 322.17Q104.24 322.58 105.47 324.18Q106.70 325.78 106.70 327.93Q106.70 329.98 105.71 331.53Q104.72 333.08 102.93 333.96Q101.14 334.84 98.80 334.84M98.80 320.73Q100.30 320.73 101.23 319.82Q102.16 318.90 102.16 317.46Q102.16 315.99 101.23 315.08Q100.30 314.17 98.80 314.17Q97.30 314.17 96.37 315.08Q95.44 315.99 95.44 317.46Q95.44 318.90 96.37 319.82Q97.30 320.73 98.80 320.73M98.80 331.45Q100.56 331.45 101.68 330.42Q102.80 329.40 102.80 327.74Q102.80 326.04 101.68 325Q100.56 323.96 98.80 323.96Q97.04 323.96 95.92 325Q94.80 326.04 94.80 327.74Q94.80 329.40 95.92 330.42Q97.04 331.45 98.80 331.45M114.35 334.52L110.70 334.52L110.70 311.16L115.60 311.16L122.10 330.04Q122 329.02 121.90 327.62Q121.81 326.23 121.73 324.79Q121.65 323.35 121.65 322.23L121.65 311.16L125.30 311.16L125.30 334.52L120.40 334.52L113.97 315.64Q114.03 316.57 114.13 317.88Q114.22 319.19 114.29 320.57Q114.35 321.94 114.35 323.10" fill="white" fill-opacity="0.9"/>
<path d="M161.48 325.24L151.24 325.24L151.24 322.68L161.48 322.68" fill="white" fill-opacity="0.9"/>
<path d="M195.02 334.84Q191.82 334.84 189.96 333.05Q188.11 331.26 188.11 328.12L188.11 317.56Q188.11 314.42 189.96 312.63Q191.82 310.84 195.02 310.84Q198.15 310.84 200.01 312.65Q201.87 314.46 201.87 317.56L198.99 317.56Q198.99 315.58 197.95 314.50Q196.91 313.43 195.02 313.43Q193.13 313.43 192.06 314.50Q190.99 315.58 190.99 317.56L190.99 328.12Q190.99 330.10 192.06 331.18Q193.13 332.25 195.02 332.25Q196.91 332.25 197.95 331.18Q198.99 330.10 198.99 328.12L201.87 328.12Q201.87 331.22 200.01 333.03Q198.15 334.84 195.02 334.84" fill="white" fill-opacity="0.9"/>
<path d="M213.96 334.84Q210.83 334.84 209 333.02Q207.18 331.19 207.18 327.80L207.18 317.88Q207.18 314.49 209 312.66Q210.83 310.84 213.96 310.84Q217.10 310.84 218.92 312.66Q220.75 314.49 220.75 317.85L220.75 327.80Q220.75 331.19 218.92 333.02Q217.10 334.84 213.96 334.84M213.96 332.25Q215.85 332.25 216.86 331.18Q217.87 330.10 217.87 328.12L217.87 317.56Q217.87 315.58 216.86 314.50Q215.85 313.43 213.96 313.43Q212.11 313.43 211.08 314.50Q210.06 315.58 210.06 317.56L210.06 328.12Q210.06 330.10 211.08 331.18Q212.11 332.25 213.96 332.25" fill="white" fill-opacity="0.9"/>
<path d="M228.65 334.52L225.87 334.52L225.87 311.16L230.12 311.16L233.10 321.27L236.20 311.16L240.46 311.16L240.46 334.52L237.67 334.52L237.67 323.48Q237.67 321.91 237.72 319.88Q237.77 317.85 237.87 315.77Q237.96 313.69 238.09 312.02L234.31 324.09L231.82 324.09L228.20 312.31Q228.46 314.68 228.55 317.50Q228.65 320.31 228.65 323.48" fill="white" fill-opacity="0.9"/>
<path d="M247.85 334.52L245.07 334.52L245.07 311.16L249.32 311.16L252.30 321.27L255.40 311.16L259.66 311.16L259.66 334.52L256.87 334.52L256.87 323.48Q256.87 321.91 256.92 319.88Q256.97 317.85 257.07 315.77Q257.16 313.69 257.29 312.02L253.51 324.09L251.02 324.09L247.40 312.31Q247.66 314.68 247.75 317.50Q247.85 320.31 247.85 323.48" fill="white" fill-opacity="0.9"/>
<path d="M271.56 334.84Q268.30 334.84 266.57 333.03Q264.84 331.22 264.84 328.12L264.84 311.16L267.72 311.16L267.72 328.12Q267.72 330.04 268.67 331.16Q269.61 332.28 271.56 332.28Q273.48 332.28 274.44 331.16Q275.40 330.04 275.40 328.12L275.40 311.16L278.28 311.16L278.28 328.12Q278.28 331.26 276.57 333.05Q274.86 334.84 271.56 334.84" fill="white" fill-opacity="0.9"/>
<path d="M286.83 334.52L284.04 334.52L284.04 311.16L287.88 311.16L295.02 331.16Q294.95 330.36 294.87 329.19Q294.79 328.02 294.75 326.73Q294.70 325.43 294.70 324.28L294.70 311.16L297.48 311.16L297.48 334.52L293.64 334.52L286.54 314.52Q286.60 315.29 286.67 316.46Q286.73 317.62 286.78 318.92Q286.83 320.22 286.83 321.40" fill="white" fill-opacity="0.9"/>
<path d="M316.20 334.52L303.72 334.52L303.72 331.90L308.49 331.90L308.49 313.78L303.72 313.78L303.72 311.16L316.20 311.16L316.20 313.78L311.43 313.78L311.43 331.90L316.20 331.90" fill="white" fill-opacity="0.9"/>
<path d="M330.60 334.52L327.72 334.52L327.72 313.78L321.32 313.78L321.32 311.16L337 311.16L337 313.78L330.60 313.78" fill="white" fill-opacity="0.9"/>
<path d="M349.80 334.52L346.92 334.52L346.92 325.78L339.88 311.16L342.95 311.16L347.50 320.76Q347.88 321.56 348.11 322.12Q348.33 322.68 348.39 322.94Q348.46 322.68 348.70 322.12Q348.94 321.56 349.32 320.76L353.87 311.16L356.84 311.16L349.80 325.78" fill="white" fill-opacity="0.9"/>
<path d="M382.83 334.52L380.04 334.52L380.04 311.16L383.88 311.16L391.02 331.16Q390.95 330.36 390.87 329.19Q390.79 328.02 390.75 326.73Q390.70 325.43 390.70 324.28L390.70 311.16L393.48 311.16L393.48 334.52L389.64 334.52L382.54 314.52Q382.60 315.29 382.67 316.46Q382.73 317.62 382.78 318.92Q382.83 320.22 382.83 321.40" fill="white" fill-opacity="0.9"/>
<path d="M405.96 334.84Q402.83 334.84 401 333.02Q399.18 331.19 399.18 327.80L399.18 317.88Q399.18 314.49 401 312.66Q402.83 310.84 405.96 310.84Q409.10 310.84 410.92 312.66Q412.75 314.49 412.75 317.85L412.75 327.80Q412.75 331.19 410.92 333.02Q409.10 334.84 405.96 334.84M405.96 332.25Q407.85 332.25 408.86 331.18Q409.87 330.10 409.87 328.12L409.87 317.56Q409.87 315.58 408.86 314.50Q407.85 313.43 405.96 313.43Q404.11 313.43 403.08 314.50Q402.06 315.58 402.06 317.56L402.06 328.12Q402.06 330.10 403.08 331.18Q404.11 332.25 405.96 332.25" fill="white" fill-opacity="0.9"/>
<path d="M424.55 334.52L418.51 334.52L418.51 311.16L424.55 311.16Q426.83 311.16 428.47 312.02Q430.12 312.89 431.03 314.46Q431.95 316.02 431.95 318.17L431.95 327.48Q431.95 329.62 431.03 331.21Q430.12 332.79 428.47 333.66Q426.83 334.52 424.55 334.52M421.39 313.72L421.39 331.96L424.55 331.96Q426.67 331.96 427.87 330.78Q429.07 329.59 429.07 327.48L429.07 318.17Q429.07 316.09 427.87 314.90Q426.67 313.72 424.55 313.72" fill="white" fill-opacity="0.9"/>
<path d="M451.40 334.52L437.96 334.52L437.96 311.16L451.40 311.16L451.40 313.78L440.81 313.78L440.81 321.02L450.28 321.02L450.28 323.58L440.81 323.58L440.81 331.90L451.40 331.90" fill="white" fill-opacity="0.9"/>
<path d="M463.69 334.84Q460.30 334.84 458.28 333.05Q456.27 331.26 456.27 328.12L459.15 328.12Q459.15 330.07 460.39 331.18Q461.64 332.28 463.69 332.28Q465.67 332.28 466.86 331.13Q468.04 329.98 468.04 328.12Q468.04 326.71 467.29 325.67Q466.54 324.63 465.13 324.25L461.58 323.26Q459.37 322.62 458.11 320.97Q456.84 319.32 456.84 317.08Q456.84 315.22 457.67 313.82Q458.51 312.41 460.01 311.62Q461.51 310.84 463.47 310.84Q465.45 310.84 466.97 311.62Q468.49 312.41 469.35 313.80Q470.22 315.19 470.22 317.02L467.34 317.02Q467.34 315.42 466.25 314.41Q465.16 313.40 463.47 313.40Q461.77 313.40 460.71 314.41Q459.66 315.42 459.66 317.02Q459.66 318.30 460.35 319.21Q461.03 320.12 462.28 320.47L465.93 321.50Q468.27 322.14 469.56 323.91Q470.86 325.69 470.86 328.12Q470.86 331.19 468.91 333.02Q466.95 334.84 463.69 334.84" fill="white" fill-opacity="0.9"/>
</g>
<path d="M78.28 197.64L76.12 197.64L76.12 182.09L71.32 182.09L71.32 180.12L83.08 180.12L83.08 182.09L78.28 182.09" fill="white" fill-opacity="0.7"/>
<path d="M89.25 197.64L87.09 197.64L87.09 184.44L89.25 184.44L89.25 186.96L89.30 186.96Q89.46 185.69 90.38 184.94Q91.29 184.20 92.82 184.20Q94.89 184.20 96 185.44Q97.12 186.67 97.12 188.95L97.12 190.08L94.96 190.08L94.96 188.95Q94.96 186.07 92.15 186.07Q90.74 186.07 89.99 186.89Q89.25 187.70 89.25 189.24" fill="white" fill-opacity="0.7"/>
<path d="M104.85 197.88Q102.81 197.88 101.61 196.74Q100.41 195.60 100.41 193.75Q100.41 192.53 100.96 191.62Q101.51 190.70 102.50 190.19Q103.48 189.67 104.75 189.67L108.83 189.67L108.83 188.64Q108.83 186.07 106.02 186.07Q104.78 186.07 104.01 186.53Q103.24 186.98 103.19 187.80L101.03 187.80Q101.15 186.24 102.48 185.22Q103.82 184.20 106.02 184.20Q108.42 184.20 109.71 185.35Q110.99 186.50 110.99 188.57L110.99 197.64L108.86 197.64L108.86 195.24L108.81 195.24Q108.62 196.46 107.58 197.17Q106.55 197.88 104.85 197.88M105.38 196.06Q106.96 196.06 107.90 195.29Q108.83 194.52 108.83 193.20L108.83 191.35L104.99 191.35Q103.94 191.35 103.28 191.99Q102.62 192.62 102.62 193.68Q102.62 194.78 103.35 195.42Q104.08 196.06 105.38 196.06" fill="white" fill-opacity="0.7"/>
<path d="M117.57 197.64L115.41 197.64L115.41 184.44L117.57 184.44L117.57 186.96L117.59 186.96Q117.76 185.64 118.67 184.92Q119.58 184.20 121.10 184.20Q123.09 184.20 124.26 185.42Q125.44 186.65 125.44 188.76L125.44 197.64L123.28 197.64L123.28 189.14Q123.28 187.63 122.52 186.83Q121.77 186.02 120.47 186.02Q119.13 186.02 118.35 186.86Q117.57 187.70 117.57 189.24" fill="white" fill-opacity="0.7"/>
<path d="M135.33 197.83L134.27 197.83Q132.06 197.83 130.85 196.84Q129.64 195.84 129.64 194.02L131.80 194.02Q131.80 194.93 132.45 195.44Q133.10 195.96 134.27 195.96L135.33 195.96Q136.53 195.96 137.19 195.43Q137.85 194.90 137.85 193.94Q137.85 192.24 136.29 192.02L132.64 191.50Q131.30 191.30 130.55 190.38Q129.81 189.46 129.81 187.94Q129.81 186.22 131 185.23Q132.18 184.25 134.27 184.25L135.33 184.25Q137.25 184.25 138.46 185.20Q139.67 186.14 139.77 187.68L137.58 187.68Q137.54 186.98 136.92 186.53Q136.31 186.07 135.33 186.07L134.27 186.07Q133.17 186.07 132.54 186.58Q131.92 187.08 131.92 187.94Q131.92 189.34 133.19 189.53L136.60 190.01Q139.96 190.49 139.96 193.94Q139.96 195.79 138.75 196.81Q137.54 197.83 135.33 197.83" fill="white" fill-opacity="0.7"/>
<path d="M149.32 197.64L147.16 197.64L147.16 188.21L143.32 188.21L143.32 186.24L147.16 186.24L147.16 183.48Q147.16 181.92 148.14 181.02Q149.13 180.12 150.86 180.12L154.72 180.12L154.72 182.09L150.86 182.09Q149.32 182.09 149.32 183.48L149.32 186.24L154.72 186.24L154.72 188.21L149.32 188.21" fill="white" fill-opacity="0.7"/>
<path d="M163.60 197.88Q161.27 197.88 159.84 196.48Q158.42 195.07 158.42 192.60L158.42 189.48Q158.42 187.01 159.84 185.60Q161.27 184.20 163.60 184.20Q165.16 184.20 166.32 184.82Q167.49 185.45 168.14 186.58Q168.78 187.70 168.78 189.24L168.78 191.59L160.53 191.59L160.53 192.84Q160.53 194.30 161.37 195.16Q162.21 196.01 163.60 196.01Q164.80 196.01 165.58 195.54Q166.36 195.07 166.53 194.28L168.69 194.28Q168.47 195.94 167.08 196.91Q165.69 197.88 163.60 197.88M160.53 189.24L160.53 189.91L166.67 189.91L166.67 189.24Q166.67 187.68 165.87 186.83Q165.06 185.98 163.60 185.98Q162.14 185.98 161.33 186.83Q160.53 187.68 160.53 189.24" fill="white" fill-opacity="0.7"/>
<path d="M175.65 197.64L173.49 197.64L173.49 184.44L175.65 184.44L175.65 186.96L175.70 186.96Q175.86 185.69 176.78 184.94Q177.69 184.20 179.22 184.20Q181.29 184.20 182.40 185.44Q183.52 186.67 183.52 188.95L183.52 190.08L181.36 190.08L181.36 188.95Q181.36 186.07 178.55 186.07Q177.14 186.07 176.39 186.89Q175.65 187.70 175.65 189.24" fill="white" fill-opacity="0.7"/>
<path d="M206.92 197.64L204.76 197.64L204.76 188.21L200.92 188.21L200.92 186.24L204.76 186.24L204.76 183.48Q204.76 181.92 205.74 181.02Q206.73 180.12 208.46 180.12L212.32 180.12L212.32 182.09L208.46 182.09Q206.92 182.09 206.92 183.48L206.92 186.24L212.32 186.24L212.32 188.21L206.92 188.21" fill="white" fill-opacity="0.7"/>
<path d="M221.18 197.88Q218.90 197.88 217.53 196.52Q216.16 195.17 216.16 192.84L216.16 184.44L218.32 184.44L218.32 192.84Q218.32 194.28 219.09 195.13Q219.86 195.98 221.18 195.98Q222.52 195.98 223.30 195.13Q224.08 194.28 224.08 192.84L224.08 184.44L226.24 184.44L226.24 192.84Q226.24 195.17 224.85 196.52Q223.46 197.88 221.18 197.88" fill="white" fill-opacity="0.7"/>
<path d="M232.77 197.64L230.61 197.64L230.61 184.44L232.77 184.44L232.77 186.96L232.79 186.96Q232.96 185.64 233.87 184.92Q234.78 184.20 236.30 184.20Q238.29 184.20 239.46 185.42Q240.64 186.65 240.64 188.76L240.64 197.64L238.48 197.64L238.48 189.14Q238.48 187.63 237.72 186.83Q236.97 186.02 235.67 186.02Q234.33 186.02 233.55 186.86Q232.77 187.70 232.77 189.24" fill="white" fill-opacity="0.7"/>
<path d="M249.23 197.88Q247.26 197.88 246.08 196.56Q244.89 195.24 244.89 192.98L244.89 189.12Q244.89 186.84 246.06 185.52Q247.24 184.20 249.23 184.20Q250.72 184.20 251.69 184.94Q252.66 185.69 252.86 186.96L252.88 186.96L252.83 183.96L252.83 180.12L254.99 180.12L254.99 197.64L252.83 197.64L252.83 195.12L252.81 195.12Q252.64 196.42 251.68 197.15Q250.72 197.88 249.23 197.88M249.95 196.01Q251.30 196.01 252.06 195.17Q252.83 194.33 252.83 192.84L252.83 189.24Q252.83 187.75 252.06 186.91Q251.30 186.07 249.95 186.07Q248.58 186.07 247.82 186.78Q247.05 187.49 247.05 189.12L247.05 192.96Q247.05 194.57 247.82 195.29Q248.58 196.01 249.95 196.01" fill="white" fill-opacity="0.7"/>
<path d="M264.93 197.83L263.87 197.83Q261.66 197.83 260.45 196.84Q259.24 195.84 259.24 194.02L261.40 194.02Q261.40 194.93 262.05 195.44Q262.70 195.96 263.87 195.96L264.93 195.96Q266.13 195.96 266.79 195.43Q267.45 194.90 267.45 193.94Q267.45 192.24 265.89 192.02L262.24 191.50Q260.90 191.30 260.15 190.38Q259.41 189.46 259.41 187.94Q259.41 186.22 260.60 185.23Q261.78 184.25 263.87 184.25L264.93 184.25Q266.85 184.25 268.06 185.20Q269.27 186.14 269.37 187.68L267.18 187.68Q267.14 186.98 266.52 186.53Q265.91 186.07 264.93 186.07L263.87 186.07Q262.77 186.07 262.14 186.58Q261.52 187.08 261.52 187.94Q261.52 189.34 262.79 189.53L266.20 190.01Q269.56 190.49 269.56 193.94Q269.56 195.79 268.35 196.81Q267.14 197.83 264.93 197.83" fill="white" fill-opacity="0.7"/>
<path d="M293.97 197.88Q292.48 197.88 291.52 197.15Q290.56 196.42 290.39 195.12L290.37 195.12L290.37 197.64L288.21 197.64L288.21 180.12L290.37 180.12L290.37 183.96L290.32 186.96L290.34 186.96Q290.54 185.69 291.51 184.94Q292.48 184.20 293.97 184.20Q295.96 184.20 297.14 185.52Q298.31 186.84 298.31 189.12L298.31 192.98Q298.31 195.24 297.14 196.56Q295.96 197.88 293.97 197.88M293.25 196.01Q294.62 196.01 295.38 195.29Q296.15 194.57 296.15 192.96L296.15 189.12Q296.15 187.49 295.38 186.78Q294.62 186.07 293.25 186.07Q291.93 186.07 291.15 186.91Q290.37 187.75 290.37 189.24L290.37 192.84Q290.37 194.33 291.15 195.17Q291.93 196.01 293.25 196.01" fill="white" fill-opacity="0.7"/>
<path d="M307.60 197.88Q305.27 197.88 303.84 196.48Q302.42 195.07 302.42 192.60L302.42 189.48Q302.42 187.01 303.84 185.60Q305.27 184.20 307.60 184.20Q309.16 184.20 310.32 184.82Q311.49 185.45 312.14 186.58Q312.78 187.70 312.78 189.24L312.78 191.59L304.53 191.59L304.53 192.84Q304.53 194.30 305.37 195.16Q306.21 196.01 307.60 196.01Q308.80 196.01 309.58 195.54Q310.36 195.07 310.53 194.28L312.69 194.28Q312.47 195.94 311.08 196.91Q309.69 197.88 307.60 197.88M304.53 189.24L304.53 189.91L310.67 189.91L310.67 189.24Q310.67 187.68 309.87 186.83Q309.06 185.98 307.60 185.98Q306.14 185.98 305.33 186.83Q304.53 187.68 304.53 189.24" fill="white" fill-opacity="0.7"/>
<path d="M327.16 197.64L323.32 197.64Q321.69 197.64 320.70 196.69Q319.72 195.74 319.72 194.16L319.72 186.41L315.93 186.41L315.93 184.44L319.72 184.44L319.72 180.72L321.88 180.72L321.88 184.44L327.28 184.44L327.28 186.41L321.88 186.41L321.88 194.16Q321.88 194.83 322.28 195.25Q322.67 195.67 323.32 195.67L327.16 195.67" fill="white" fill-opacity="0.7"/>
<path d="M334.48 197.64L332.10 197.64L329.94 184.44L331.82 184.44L333.16 193.75Q333.23 194.28 333.30 194.92Q333.38 195.55 333.40 195.96Q333.45 195.55 333.51 194.92Q333.57 194.28 333.66 193.75L335.32 184.44L337.48 184.44L339.14 193.75Q339.23 194.28 339.32 194.92Q339.40 195.55 339.42 195.96Q339.47 195.55 339.54 194.92Q339.62 194.28 339.69 193.75L341.08 184.44L342.86 184.44L340.60 197.64L338.22 197.64L336.71 188.52Q336.62 187.85 336.53 187.09Q336.45 186.34 336.40 185.93Q336.38 186.34 336.28 187.09Q336.18 187.85 336.06 188.52" fill="white" fill-opacity="0.7"/>
<path d="M350.80 197.88Q348.47 197.88 347.04 196.48Q345.62 195.07 345.62 192.60L345.62 189.48Q345.62 187.01 347.04 185.60Q348.47 184.20 350.80 184.20Q352.36 184.20 353.52 184.82Q354.69 185.45 355.34 186.58Q355.98 187.70 355.98 189.24L355.98 191.59L347.73 191.59L347.73 192.84Q347.73 194.30 348.57 195.16Q349.41 196.01 350.80 196.01Q352 196.01 352.78 195.54Q353.56 195.07 353.73 194.28L355.89 194.28Q355.67 195.94 354.28 196.91Q352.89 197.88 350.80 197.88M347.73 189.24L347.73 189.91L353.87 189.91L353.87 189.24Q353.87 187.68 353.07 186.83Q352.26 185.98 350.80 185.98Q349.34 185.98 348.53 186.83Q347.73 187.68 347.73 189.24" fill="white" fill-opacity="0.7"/>
<path d="M365.20 197.88Q362.87 197.88 361.44 196.48Q360.02 195.07 360.02 192.60L360.02 189.48Q360.02 187.01 361.44 185.60Q362.87 184.20 365.20 184.20Q366.76 184.20 367.92 184.82Q369.09 185.45 369.74 186.58Q370.38 187.70 370.38 189.24L370.38 191.59L362.13 191.59L362.13 192.84Q362.13 194.30 362.97 195.16Q363.81 196.01 365.20 196.01Q366.40 196.01 367.18 195.54Q367.96 195.07 368.13 194.28L370.29 194.28Q370.07 195.94 368.68 196.91Q367.29 197.88 365.20 197.88M362.13 189.24L362.13 189.91L368.27 189.91L368.27 189.24Q368.27 187.68 367.47 186.83Q366.66 185.98 365.20 185.98Q363.74 185.98 362.93 186.83Q362.13 187.68 362.13 189.24" fill="white" fill-opacity="0.7"/>
<path d="M376.77 197.64L374.61 197.64L374.61 184.44L376.77 184.44L376.77 186.96L376.79 186.96Q376.96 185.64 377.87 184.92Q378.78 184.20 380.30 184.20Q382.29 184.20 383.46 185.42Q384.64 186.65 384.64 188.76L384.64 197.64L382.48 197.64L382.48 189.14Q382.48 187.63 381.72 186.83Q380.97 186.02 379.67 186.02Q378.33 186.02 377.55 186.86Q376.77 187.70 376.77 189.24" fill="white" fill-opacity="0.7"/>
<path d="M408.93 197.83L407.87 197.83Q405.66 197.83 404.45 196.84Q403.24 195.84 403.24 194.02L405.40 194.02Q405.40 194.93 406.05 195.44Q406.70 195.96 407.87 195.96L408.93 195.96Q410.13 195.96 410.79 195.43Q411.45 194.90 411.45 193.94Q411.45 192.24 409.89 192.02L406.24 191.50Q404.90 191.30 404.15 190.38Q403.41 189.46 403.41 187.94Q403.41 186.22 404.60 185.23Q405.78 184.25 407.87 184.25L408.93 184.25Q410.85 184.25 412.06 185.20Q413.27 186.14 413.37 187.68L411.18 187.68Q411.14 186.98 410.52 186.53Q409.91 186.07 408.93 186.07L407.87 186.07Q406.77 186.07 406.14 186.58Q405.52 187.08 405.52 187.94Q405.52 189.34 406.79 189.53L410.20 190.01Q413.56 190.49 413.56 193.94Q413.56 195.79 412.35 196.81Q411.14 197.83 408.93 197.83" fill="white" fill-opacity="0.7"/>
<path d="M421.65 197.88Q419.61 197.88 418.41 196.74Q417.21 195.60 417.21 193.75Q417.21 192.53 417.76 191.62Q418.31 190.70 419.30 190.19Q420.28 189.67 421.55 189.67L425.63 189.67L425.63 188.64Q425.63 186.07 422.82 186.07Q421.58 186.07 420.81 186.53Q420.04 186.98 419.99 187.80L417.83 187.80Q417.95 186.24 419.28 185.22Q420.62 184.20 422.82 184.20Q425.22 184.20 426.51 185.35Q427.79 186.50 427.79 188.57L427.79 197.64L425.66 197.64L425.66 195.24L425.61 195.24Q425.42 196.46 424.38 197.17Q423.35 197.88 421.65 197.88M422.18 196.06Q423.76 196.06 424.70 195.29Q425.63 194.52 425.63 193.20L425.63 191.35L421.79 191.35Q420.74 191.35 420.08 191.99Q419.42 192.62 419.42 193.68Q419.42 194.78 420.15 195.42Q420.88 196.06 422.18 196.06" fill="white" fill-opacity="0.7"/>
<path d="M433.46 197.64L431.44 197.64L431.44 184.44L433.31 184.44L433.31 186.19L433.36 186.19Q433.48 185.30 434.07 184.75Q434.66 184.20 435.57 184.20Q436.43 184.20 437.03 184.70Q437.63 185.21 437.90 186.07L437.92 186.07Q438.09 185.21 438.68 184.70Q439.26 184.20 440.18 184.20Q441.45 184.20 442.20 185.15Q442.96 186.10 442.96 187.61L442.96 197.64L440.94 197.64L440.94 187.58Q440.94 186.79 440.56 186.32Q440.18 185.86 439.50 185.86Q438.86 185.86 438.47 186.31Q438.09 186.77 438.09 187.56L438.09 197.64L436.31 197.64L436.31 187.58Q436.31 186.79 435.93 186.32Q435.54 185.86 434.90 185.86Q434.22 185.86 433.84 186.31Q433.46 186.77 433.46 187.56" fill="white" fill-opacity="0.7"/>
<path d="M451.60 197.88Q449.27 197.88 447.84 196.48Q446.42 195.07 446.42 192.60L446.42 189.48Q446.42 187.01 447.84 185.60Q449.27 184.20 451.60 184.20Q453.16 184.20 454.32 184.82Q455.49 185.45 456.14 186.58Q456.78 187.70 456.78 189.24L456.78 191.59L448.53 191.59L448.53 192.84Q448.53 194.30 449.37 195.16Q450.21 196.01 451.60 196.01Q452.80 196.01 453.58 195.54Q454.36 195.07 454.53 194.28L456.69 194.28Q456.47 195.94 455.08 196.91Q453.69 197.88 451.60 197.88M448.53 189.24L448.53 189.91L454.67 189.91L454.67 189.24Q454.67 187.68 453.87 186.83Q453.06 185.98 451.60 185.98Q450.14 185.98 449.33 186.83Q448.53 187.68 448.53 189.24" fill="white" fill-opacity="0.7"/>
<path d="M469.84 190.68L462.16 190.68L462.16 188.76L469.84 188.76" fill="white" fill-opacity="0.7"/>
<path d="M480.40 197.88Q478.07 197.88 476.64 196.48Q475.22 195.07 475.22 192.60L475.22 189.48Q475.22 187.01 476.64 185.60Q478.07 184.20 480.40 184.20Q481.96 184.20 483.12 184.82Q484.29 185.45 484.94 186.58Q485.58 187.70 485.58 189.24L485.58 191.59L477.33 191.59L477.33 192.84Q477.33 194.30 478.17 195.16Q479.01 196.01 480.40 196.01Q481.60 196.01 482.38 195.54Q483.16 195.07 483.33 194.28L485.49 194.28Q485.27 195.94 483.88 196.91Q482.49 197.88 480.40 197.88M477.33 189.24L477.33 189.91L483.47 189.91L483.47 189.24Q483.47 187.68 482.67 186.83Q481.86 185.98 480.40 185.98Q478.94 185.98 478.13 186.83Q477.33 187.68 477.33 189.24" fill="white" fill-opacity="0.7"/>
<path d="M491.97 197.64L489.81 197.64L489.81 184.44L491.97 184.44L491.97 186.96L491.99 186.96Q492.16 185.64 493.07 184.92Q493.98 184.20 495.50 184.20Q497.49 184.20 498.66 185.42Q499.84 186.65 499.84 188.76L499.84 197.64L497.68 197.64L497.68 189.14Q497.68 187.63 496.92 186.83Q496.17 186.02 494.87 186.02Q493.53 186.02 492.75 186.86Q491.97 187.70 491.97 189.24" fill="white" fill-opacity="0.7"/>
<path d="M514.36 197.64L510.52 197.64Q508.89 197.64 507.90 196.69Q506.92 195.74 506.92 194.16L506.92 186.41L503.13 186.41L503.13 184.44L506.92 184.44L506.92 180.72L509.08 180.72L509.08 184.44L514.48 184.44L514.48 186.41L509.08 186.41L509.08 194.16Q509.08 194.83 509.48 195.25Q509.87 195.67 510.52 195.67L514.36 195.67" fill="white" fill-opacity="0.7"/>
<path d="M529.72 197.64L518.44 197.64L518.44 195.67L523.12 195.67L523.12 186.41L518.92 186.41L518.92 184.44L525.28 184.44L525.28 195.67L529.72 195.67L529.72 197.64M523.96 182.06Q523.17 182.06 522.71 181.66Q522.26 181.25 522.26 180.55Q522.26 179.83 522.71 179.41Q523.17 178.99 523.96 178.99Q524.75 178.99 525.21 179.41Q525.66 179.83 525.66 180.55Q525.66 181.25 525.21 181.66Q524.75 182.06 523.96 182.06" fill="white" fill-opacity="0.7"/>
<path d="M543.16 197.64L539.32 197.64Q537.69 197.64 536.70 196.69Q535.72 195.74 535.72 194.16L535.72 186.41L531.93 186.41L531.93 184.44L535.72 184.44L535.72 180.72L537.88 180.72L537.88 184.44L543.28 184.44L543.28 186.41L537.88 186.41L537.88 194.16Q537.88 194.83 538.28 195.25Q538.67 195.67 539.32 195.67L543.16 195.67" fill="white" fill-opacity="0.7"/>
<path d="M551.73 201.96L549.47 201.96L551.42 196.82L546.50 184.44L548.82 184.44L551.94 192.60Q552.14 193.08 552.30 193.61Q552.47 194.14 552.54 194.52Q552.62 194.14 552.78 193.61Q552.95 193.08 553.12 192.60L556.02 184.44L558.30 184.44" fill="white" fill-opacity="0.7"/>
<path d="M577.46 197.64L575.44 197.64L575.44 184.44L577.31 184.44L577.31 186.19L577.36 186.19Q577.48 185.30 578.07 184.75Q578.66 184.20 579.57 184.20Q580.43 184.20 581.03 184.70Q581.63 185.21 581.90 186.07L581.92 186.07Q582.09 185.21 582.68 184.70Q583.26 184.20 584.18 184.20Q585.45 184.20 586.20 185.15Q586.96 186.10 586.96 187.61L586.96 197.64L584.94 197.64L584.94 187.58Q584.94 186.79 584.56 186.32Q584.18 185.86 583.50 185.86Q582.86 185.86 582.47 186.31Q582.09 186.77 582.09 187.56L582.09 197.64L580.31 197.64L580.31 187.58Q580.31 186.79 579.93 186.32Q579.54 185.86 578.90 185.86Q578.22 185.86 577.84 186.31Q577.46 186.77 577.46 187.56" fill="white" fill-opacity="0.7"/>
<path d="M595.60 197.88Q593.27 197.88 591.84 196.48Q590.42 195.07 590.42 192.60L590.42 189.48Q590.42 187.01 591.84 185.60Q593.27 184.20 595.60 184.20Q597.16 184.20 598.32 184.82Q599.49 185.45 600.14 186.58Q600.78 187.70 600.78 189.24L600.78 191.59L592.53 191.59L592.53 192.84Q592.53 194.30 593.37 195.16Q594.21 196.01 595.60 196.01Q596.80 196.01 597.58 195.54Q598.36 195.07 598.53 194.28L600.69 194.28Q600.47 195.94 599.08 196.91Q597.69 197.88 595.60 197.88M592.53 189.24L592.53 189.91L598.67 189.91L598.67 189.24Q598.67 187.68 597.87 186.83Q597.06 185.98 595.60 185.98Q594.14 185.98 593.33 186.83Q592.53 187.68 592.53 189.24" fill="white" fill-opacity="0.7"/>
<path d="M607.65 197.64L605.49 197.64L605.49 184.44L607.65 184.44L607.65 186.96L607.70 186.96Q607.86 185.69 608.78 184.94Q609.69 184.20 611.22 184.20Q613.29 184.20 614.40 185.44Q615.52 186.67 615.52 188.95L615.52 190.08L613.36 190.08L613.36 188.95Q613.36 186.07 610.55 186.07Q609.14 186.07 608.39 186.89Q607.65 187.70 607.65 189.24" fill="white" fill-opacity="0.7"/>
<path d="M624.59 197.88Q622.19 197.88 620.75 196.54Q619.31 195.19 619.31 192.84L619.31 189.24Q619.31 186.89 620.75 185.54Q622.19 184.20 624.59 184.20Q626.87 184.20 628.28 185.42Q629.68 186.65 629.75 188.76L627.59 188.76Q627.52 187.49 626.73 186.80Q625.94 186.12 624.59 186.12Q623.18 186.12 622.32 186.92Q621.47 187.73 621.47 189.22L621.47 192.84Q621.47 194.33 622.32 195.14Q623.18 195.96 624.59 195.96Q625.94 195.96 626.73 195.26Q627.52 194.57 627.59 193.32L629.75 193.32Q629.68 195.43 628.28 196.66Q626.87 197.88 624.59 197.88" fill="white" fill-opacity="0.7"/>
<path d="M635.97 197.64L633.81 197.64L633.81 180.12L635.97 180.12L635.97 186.96L635.99 186.96Q636.16 185.64 637.07 184.92Q637.98 184.20 639.50 184.20Q641.49 184.20 642.66 185.42Q643.84 186.65 643.84 188.76L643.84 197.64L641.68 197.64L641.68 189.12Q641.68 187.63 640.92 186.83Q640.17 186.02 638.87 186.02Q637.53 186.02 636.75 186.86Q635.97 187.70 635.97 189.24" fill="white" fill-opacity="0.7"/>
<path d="M652.05 197.88Q650.01 197.88 648.81 196.74Q647.61 195.60 647.61 193.75Q647.61 192.53 648.16 191.62Q648.71 190.70 649.70 190.19Q650.68 189.67 651.95 189.67L656.03 189.67L656.03 188.64Q656.03 186.07 653.22 186.07Q651.98 186.07 651.21 186.53Q650.44 186.98 650.39 187.80L648.23 187.80Q648.35 186.24 649.68 185.22Q651.02 184.20 653.22 184.20Q655.62 184.20 656.91 185.35Q658.19 186.50 658.19 188.57L658.19 197.64L656.06 197.64L656.06 195.24L656.01 195.24Q655.82 196.46 654.78 197.17Q653.75 197.88 652.05 197.88M652.58 196.06Q654.16 196.06 655.10 195.29Q656.03 194.52 656.03 193.20L656.03 191.35L652.19 191.35Q651.14 191.35 650.48 191.99Q649.82 192.62 649.82 193.68Q649.82 194.78 650.55 195.42Q651.28 196.06 652.58 196.06" fill="white" fill-opacity="0.7"/>
<path d="M664.77 197.64L662.61 197.64L662.61 184.44L664.77 184.44L664.77 186.96L664.79 186.96Q664.96 185.64 665.87 184.92Q666.78 184.20 668.30 184.20Q670.29 184.20 671.46 185.42Q672.64 186.65 672.64 188.76L672.64 197.64L670.48 197.64L670.48 189.14Q670.48 187.63 669.72 186.83Q668.97 186.02 667.67 186.02Q666.33 186.02 665.55 186.86Q664.77 187.70 664.77 189.24" fill="white" fill-opacity="0.7"/>
<path d="M687.16 197.64L683.32 197.64Q681.69 197.64 680.70 196.69Q679.72 195.74 679.72 194.16L679.72 186.41L675.93 186.41L675.93 184.44L679.72 184.44L679.72 180.72L681.88 180.72L681.88 184.44L687.28 184.44L687.28 186.41L681.88 186.41L681.88 194.16Q681.88 194.83 682.28 195.25Q682.67 195.67 683.32 195.67L687.16 195.67" fill="white" fill-opacity="0.7"/>
<path d="M709.65 197.88Q707.61 197.88 706.41 196.74Q705.21 195.60 705.21 193.75Q705.21 192.53 705.76 191.62Q706.31 190.70 707.30 190.19Q708.28 189.67 709.55 189.67L713.63 189.67L713.63 188.64Q713.63 186.07 710.82 186.07Q709.58 186.07 708.81 186.53Q708.04 186.98 707.99 187.80L705.83 187.80Q705.95 186.24 707.28 185.22Q708.62 184.20 710.82 184.20Q713.22 184.20 714.51 185.35Q715.79 186.50 715.79 188.57L715.79 197.64L713.66 197.64L713.66 195.24L713.61 195.24Q713.42 196.46 712.38 197.17Q711.35 197.88 709.65 197.88M710.18 196.06Q711.76 196.06 712.70 195.29Q713.63 194.52 713.63 193.20L713.63 191.35L709.79 191.35Q708.74 191.35 708.08 191.99Q707.42 192.62 707.42 193.68Q707.42 194.78 708.15 195.42Q708.88 196.06 710.18 196.06" fill="white" fill-opacity="0.7"/>
<path d="M725.39 197.88Q722.99 197.88 721.55 196.54Q720.11 195.19 720.11 192.84L720.11 189.24Q720.11 186.89 721.55 185.54Q722.99 184.20 725.39 184.20Q727.67 184.20 729.08 185.42Q730.48 186.65 730.55 188.76L728.39 188.76Q728.32 187.49 727.53 186.80Q726.74 186.12 725.39 186.12Q723.98 186.12 723.12 186.92Q722.27 187.73 722.27 189.22L722.27 192.84Q722.27 194.33 723.12 195.14Q723.98 195.96 725.39 195.96Q726.74 195.96 727.53 195.26Q728.32 194.57 728.39 193.32L730.55 193.32Q730.48 195.43 729.08 196.66Q727.67 197.88 725.39 197.88" fill="white" fill-opacity="0.7"/>
<path d="M739.79 197.88Q737.39 197.88 735.95 196.54Q734.51 195.19 734.51 192.84L734.51 189.24Q734.51 186.89 735.95 185.54Q737.39 184.20 739.79 184.20Q742.07 184.20 743.48 185.42Q744.88 186.65 744.95 188.76L742.79 188.76Q742.72 187.49 741.93 186.80Q741.14 186.12 739.79 186.12Q738.38 186.12 737.52 186.92Q736.67 187.73 736.67 189.22L736.67 192.84Q736.67 194.33 737.52 195.14Q738.38 195.96 739.79 195.96Q741.14 195.96 741.93 195.26Q742.72 194.57 742.79 193.32L744.95 193.32Q744.88 195.43 743.48 196.66Q742.07 197.88 739.79 197.88" fill="white" fill-opacity="0.7"/>
<path d="M754 197.83Q751.62 197.83 750.22 196.44Q748.82 195.05 748.82 192.55L748.82 189.53Q748.82 187.01 750.21 185.63Q751.60 184.25 754 184.25Q756.40 184.25 757.79 185.63Q759.18 187.01 759.18 189.53L759.18 192.55Q759.18 195.05 757.78 196.44Q756.38 197.83 754 197.83M754 195.91Q755.42 195.91 756.22 195.12Q757.02 194.33 757.02 192.79L757.02 189.29Q757.02 187.75 756.22 186.96Q755.42 186.17 754 186.17Q752.61 186.17 751.79 186.96Q750.98 187.75 750.98 189.29L750.98 192.79Q750.98 194.33 751.79 195.12Q752.61 195.91 754 195.91" fill="white" fill-opacity="0.7"/>
<path d="M768.38 197.88Q766.10 197.88 764.73 196.52Q763.36 195.17 763.36 192.84L763.36 184.44L765.52 184.44L765.52 192.84Q765.52 194.28 766.29 195.13Q767.06 195.98 768.38 195.98Q769.72 195.98 770.50 195.13Q771.28 194.28 771.28 192.84L771.28 184.44L773.44 184.44L773.44 192.84Q773.44 195.17 772.05 196.52Q770.66 197.88 768.38 197.88" fill="white" fill-opacity="0.7"/>
<path d="M779.97 197.64L777.81 197.64L777.81 184.44L779.97 184.44L779.97 186.96L779.99 186.96Q780.16 185.64 781.07 184.92Q781.98 184.20 783.50 184.20Q785.49 184.20 786.66 185.42Q787.84 186.65 787.84 188.76L787.84 197.64L785.68 197.64L785.68 189.14Q785.68 187.63 784.92 186.83Q784.17 186.02 782.87 186.02Q781.53 186.02 780.75 186.86Q779.97 187.70 779.97 189.24" fill="white" fill-opacity="0.7"/>
<path d="M802.36 197.64L798.52 197.64Q796.89 197.64 795.90 196.69Q794.92 195.74 794.92 194.16L794.92 186.41L791.13 186.41L791.13 184.44L794.92 184.44L794.92 180.72L797.08 180.72L797.08 184.44L802.48 184.44L802.48 186.41L797.08 186.41L797.08 194.16Q797.08 194.83 797.48 195.25Q797.87 195.67 798.52 195.67L802.36 195.67" fill="white" fill-opacity="0.7"/>
<path d="M812.13 197.83L811.07 197.83Q808.86 197.83 807.65 196.84Q806.44 195.84 806.44 194.02L808.60 194.02Q808.60 194.93 809.25 195.44Q809.90 195.96 811.07 195.96L812.13 195.96Q813.33 195.96 813.99 195.43Q814.65 194.90 814.65 193.94Q814.65 192.24 813.09 192.02L809.44 191.50Q808.10 191.30 807.35 190.38Q806.61 189.46 806.61 187.94Q806.61 186.22 807.80 185.23Q808.98 184.25 811.07 184.25L812.13 184.25Q814.05 184.25 815.26 185.20Q816.47 186.14 816.57 187.68L814.38 187.68Q814.34 186.98 813.72 186.53Q813.11 186.07 812.13 186.07L811.07 186.07Q809.97 186.07 809.34 186.58Q808.72 187.08 808.72 187.94Q808.72 189.34 809.99 189.53L813.40 190.01Q816.76 190.49 816.76 193.94Q816.76 195.79 815.55 196.81Q814.34 197.83 812.13 197.83" fill="white" fill-opacity="0.7"/>
<path d="M841.82 197.64L838.98 197.64L834.50 184.44L836.82 184.44L839.70 193.32Q839.97 194.11 840.16 194.84Q840.35 195.58 840.45 195.98Q840.57 195.58 840.74 194.84Q840.90 194.11 841.14 193.32L844.02 184.44L846.30 184.44" fill="white" fill-opacity="0.7"/>
<path d="M860.92 197.64L849.64 197.64L849.64 195.67L854.32 195.67L854.32 186.41L850.12 186.41L850.12 184.44L856.48 184.44L856.48 195.67L860.92 195.67L860.92 197.64M855.16 182.06Q854.37 182.06 853.91 181.66Q853.46 181.25 853.46 180.55Q853.46 179.83 853.91 179.41Q854.37 178.99 855.16 178.99Q855.95 178.99 856.41 179.41Q856.86 179.83 856.86 180.55Q856.86 181.25 856.41 181.66Q855.95 182.06 855.16 182.06" fill="white" fill-opacity="0.7"/>
<path d="M868.05 197.88Q866.01 197.88 864.81 196.74Q863.61 195.60 863.61 193.75Q863.61 192.53 864.16 191.62Q864.71 190.70 865.70 190.19Q866.68 189.67 867.95 189.67L872.03 189.67L872.03 188.64Q872.03 186.07 869.22 186.07Q867.98 186.07 867.21 186.53Q866.44 186.98 866.39 187.80L864.23 187.80Q864.35 186.24 865.68 185.22Q867.02 184.20 869.22 184.20Q871.62 184.20 872.91 185.35Q874.19 186.50 874.19 188.57L874.19 197.64L872.06 197.64L872.06 195.24L872.01 195.24Q871.82 196.46 870.78 197.17Q869.75 197.88 868.05 197.88M868.58 196.06Q870.16 196.06 871.10 195.29Q872.03 194.52 872.03 193.20L872.03 191.35L868.19 191.35Q867.14 191.35 866.48 191.99Q865.82 192.62 865.82 193.68Q865.82 194.78 866.55 195.42Q867.28 196.06 868.58 196.06" fill="white" fill-opacity="0.7"/>
<path d="M898.36 197.64L893.03 197.64L893.03 180.12L898 180.12Q900.40 180.12 901.76 181.32Q903.11 182.52 903.11 184.66Q903.11 186 902.26 187.08Q901.41 188.16 900.04 188.42L900.04 188.50Q901.07 188.62 901.85 189.22Q902.63 189.82 903.08 190.74Q903.52 191.66 903.52 192.77Q903.52 195.02 902.14 196.33Q900.76 197.64 898.36 197.64M895.14 182.06L895.14 187.58L897.98 187.58Q899.37 187.58 900.17 186.84Q900.98 186.10 900.98 184.82Q900.98 183.55 900.18 182.81Q899.39 182.06 898 182.06L895.14 182.06M895.14 189.46L895.14 195.70L898.12 195.70Q899.63 195.70 900.51 194.89Q901.38 194.09 901.38 192.70Q901.38 191.26 900.51 190.36Q899.63 189.46 898.12 189.46" fill="white" fill-opacity="0.7"/>
<path d="M911.25 197.88Q909.21 197.88 908.01 196.74Q906.81 195.60 906.81 193.75Q906.81 192.53 907.36 191.62Q907.91 190.70 908.90 190.19Q909.88 189.67 911.15 189.67L915.23 189.67L915.23 188.64Q915.23 186.07 912.42 186.07Q911.18 186.07 910.41 186.53Q909.64 186.98 909.59 187.80L907.43 187.80Q907.55 186.24 908.88 185.22Q910.22 184.20 912.42 184.20Q914.82 184.20 916.11 185.35Q917.39 186.50 917.39 188.57L917.39 197.64L915.26 197.64L915.26 195.24L915.21 195.24Q915.02 196.46 913.98 197.17Q912.95 197.88 911.25 197.88M911.78 196.06Q913.36 196.06 914.30 195.29Q915.23 194.52 915.23 193.20L915.23 191.35L911.39 191.35Q910.34 191.35 909.68 191.99Q909.02 192.62 909.02 193.68Q909.02 194.78 909.75 195.42Q910.48 196.06 911.78 196.06" fill="white" fill-opacity="0.7"/>
<path d="M932.80 197.64L928.72 197.64Q926.97 197.64 925.92 196.62Q924.88 195.60 924.88 193.92L924.88 182.09L920.32 182.09L920.32 180.12L927.04 180.12L927.04 193.92Q927.04 194.74 927.50 195.20Q927.95 195.67 928.72 195.67L932.80 195.67" fill="white" fill-opacity="0.7"/>
<path d="M940.05 197.88Q938.01 197.88 936.81 196.74Q935.61 195.60 935.61 193.75Q935.61 192.53 936.16 191.62Q936.71 190.70 937.70 190.19Q938.68 189.67 939.95 189.67L944.03 189.67L944.03 188.64Q944.03 186.07 941.22 186.07Q939.98 186.07 939.21 186.53Q938.44 186.98 938.39 187.80L936.23 187.80Q936.35 186.24 937.68 185.22Q939.02 184.20 941.22 184.20Q943.62 184.20 944.91 185.35Q946.19 186.50 946.19 188.57L946.19 197.64L944.06 197.64L944.06 195.24L944.01 195.24Q943.82 196.46 942.78 197.17Q941.75 197.88 940.05 197.88M940.58 196.06Q942.16 196.06 943.10 195.29Q944.03 194.52 944.03 193.20L944.03 191.35L940.19 191.35Q939.14 191.35 938.48 191.99Q937.82 192.62 937.82 193.68Q937.82 194.78 938.55 195.42Q939.28 196.06 940.58 196.06" fill="white" fill-opacity="0.7"/>
<path d="M952.77 197.64L950.61 197.64L950.61 184.44L952.77 184.44L952.77 186.96L952.79 186.96Q952.96 185.64 953.87 184.92Q954.78 184.20 956.30 184.20Q958.29 184.20 959.46 185.42Q960.64 186.65 960.64 188.76L960.64 197.64L958.48 197.64L958.48 189.14Q958.48 187.63 957.72 186.83Q956.97 186.02 955.67 186.02Q954.33 186.02 953.55 186.86Q952.77 187.70 952.77 189.24" fill="white" fill-opacity="0.7"/>
<path d="M970.19 197.88Q967.79 197.88 966.35 196.54Q964.91 195.19 964.91 192.84L964.91 189.24Q964.91 186.89 966.35 185.54Q967.79 184.20 970.19 184.20Q972.47 184.20 973.88 185.42Q975.28 186.65 975.35 188.76L973.19 188.76Q973.12 187.49 972.33 186.80Q971.54 186.12 970.19 186.12Q968.78 186.12 967.92 186.92Q967.07 187.73 967.07 189.22L967.07 192.84Q967.07 194.33 967.92 195.14Q968.78 195.96 970.19 195.96Q971.54 195.96 972.33 195.26Q973.12 194.57 973.19 193.32L975.35 193.32Q975.28 195.43 973.88 196.66Q972.47 197.88 970.19 197.88" fill="white" fill-opacity="0.7"/>
<path d="M984.40 197.88Q982.07 197.88 980.64 196.48Q979.22 195.07 979.22 192.60L979.22 189.48Q979.22 187.01 980.64 185.60Q982.07 184.20 984.40 184.20Q985.96 184.20 987.12 184.82Q988.29 185.45 988.94 186.58Q989.58 187.70 989.58 189.24L989.58 191.59L981.33 191.59L981.33 192.84Q981.33 194.30 982.17 195.16Q983.01 196.01 984.40 196.01Q985.60 196.01 986.38 195.54Q987.16 195.07 987.33 194.28L989.49 194.28Q989.27 195.94 987.88 196.91Q986.49 197.88 984.40 197.88M981.33 189.24L981.33 189.91L987.47 189.91L987.47 189.24Q987.47 187.68 986.67 186.83Q985.86 185.98 984.40 185.98Q982.94 185.98 982.13 186.83Q981.33 187.68 981.33 189.24" fill="white" fill-opacity="0.7"/>
<path d="M1013.39 197.88Q1010.99 197.88 1009.60 196.54Q1008.21 195.19 1008.21 192.84L1008.21 184.92Q1008.21 182.57 1009.60 181.22Q1010.99 179.88 1013.39 179.88Q1015.74 179.88 1017.14 181.24Q1018.53 182.59 1018.53 184.92L1016.37 184.92Q1016.37 183.43 1015.59 182.63Q1014.81 181.82 1013.39 181.82Q1011.98 181.82 1011.17 182.63Q1010.37 183.43 1010.37 184.92L1010.37 192.84Q1010.37 194.33 1011.17 195.13Q1011.98 195.94 1013.39 195.94Q1014.81 195.94 1015.59 195.13Q1016.37 194.33 1016.37 192.84L1018.53 192.84Q1018.53 195.17 1017.14 196.52Q1015.74 197.88 1013.39 197.88" fill="white" fill-opacity="0.7"/>
<path d="M1027.60 197.83Q1025.22 197.83 1023.82 196.44Q1022.42 195.05 1022.42 192.55L1022.42 189.53Q1022.42 187.01 1023.81 185.63Q1025.20 184.25 1027.60 184.25Q1030 184.25 1031.39 185.63Q1032.78 187.01 1032.78 189.53L1032.78 192.55Q1032.78 195.05 1031.38 196.44Q1029.98 197.83 1027.60 197.83M1027.60 195.91Q1029.02 195.91 1029.82 195.12Q1030.62 194.33 1030.62 192.79L1030.62 189.29Q1030.62 187.75 1029.82 186.96Q1029.02 186.17 1027.60 186.17Q1026.21 186.17 1025.39 186.96Q1024.58 187.75 1024.58 189.29L1024.58 192.79Q1024.58 194.33 1025.39 195.12Q1026.21 195.91 1027.60 195.91" fill="white" fill-opacity="0.7"/>
<path d="M1039.17 197.64L1037.01 197.64L1037.01 184.44L1039.17 184.44L1039.17 186.96L1039.19 186.96Q1039.36 185.64 1040.27 184.92Q1041.18 184.20 1042.70 184.20Q1044.69 184.20 1045.86 185.42Q1047.04 186.65 1047.04 188.76L1047.04 197.64L1044.88 197.64L1044.88 189.14Q1044.88 187.63 1044.12 186.83Q1043.37 186.02 1042.07 186.02Q1040.73 186.02 1039.95 186.86Q1039.17 187.70 1039.17 189.24" fill="white" fill-opacity="0.7"/>
<path d="M1061.56 197.64L1057.72 197.64Q1056.09 197.64 1055.10 196.69Q1054.12 195.74 1054.12 194.16L1054.12 186.41L1050.33 186.41L1050.33 184.44L1054.12 184.44L1054.12 180.72L1056.28 180.72L1056.28 184.44L1061.68 184.44L1061.68 186.41L1056.28 186.41L1056.28 194.16Q1056.28 194.83 1056.68 195.25Q1057.07 195.67 1057.72 195.67L1061.56 195.67" fill="white" fill-opacity="0.7"/>
<path d="M1068.45 197.64L1066.29 197.64L1066.29 184.44L1068.45 184.44L1068.45 186.96L1068.50 186.96Q1068.66 185.69 1069.58 184.94Q1070.49 184.20 1072.02 184.20Q1074.09 184.20 1075.20 185.44Q1076.32 186.67 1076.32 188.95L1076.32 190.08L1074.16 190.08L1074.16 188.95Q1074.16 186.07 1071.35 186.07Q1069.94 186.07 1069.19 186.89Q1068.45 187.70 1068.45 189.24" fill="white" fill-opacity="0.7"/>
<path d="M1085.20 197.83Q1082.82 197.83 1081.42 196.44Q1080.02 195.05 1080.02 192.55L1080.02 189.53Q1080.02 187.01 1081.41 185.63Q1082.80 184.25 1085.20 184.25Q1087.60 184.25 1088.99 185.63Q1090.38 187.01 1090.38 189.53L1090.38 192.55Q1090.38 195.05 1088.98 196.44Q1087.58 197.83 1085.20 197.83M1085.20 195.91Q1086.62 195.91 1087.42 195.12Q1088.22 194.33 1088.22 192.79L1088.22 189.29Q1088.22 187.75 1087.42 186.96Q1086.62 186.17 1085.20 186.17Q1083.81 186.17 1082.99 186.96Q1082.18 187.75 1082.18 189.29L1082.18 192.79Q1082.18 194.33 1082.99 195.12Q1083.81 195.91 1085.20 195.91" fill="white" fill-opacity="0.7"/>
<path d="M1105.60 197.64L1101.52 197.64Q1099.77 197.64 1098.72 196.62Q1097.68 195.60 1097.68 193.92L1097.68 182.09L1093.12 182.09L1093.12 180.12L1099.84 180.12L1099.84 193.92Q1099.84 194.74 1100.30 195.20Q1100.75 195.67 1101.52 195.67L1105.60 195.67" fill="white" fill-opacity="0.7"/>
<path d="M73.41 229.64L71.20 229.64L75.76 212.12L78.66 212.12L83.20 229.64L81.02 229.64L79.86 224.98L74.56 224.98L73.41 229.64M76.34 217.74L74.99 223.16L79.41 223.16L78.06 217.76Q77.68 216.22 77.46 215.19Q77.25 214.16 77.20 213.85Q77.15 214.16 76.94 215.19Q76.72 216.22 76.34 217.74" fill="white" fill-opacity="0.7"/>
<path d="M88.77 229.64L86.61 229.64L86.61 212.12L92.25 212.12Q94.70 212.12 96.15 213.52Q97.60 214.93 97.60 217.28Q97.60 219.63 96.15 221.04Q94.70 222.44 92.25 222.44L88.77 222.44L88.77 229.64M88.77 214.06L88.77 220.50L92.25 220.50Q93.66 220.50 94.52 219.62Q95.37 218.74 95.37 217.28Q95.37 215.79 94.52 214.93Q93.66 214.06 92.25 214.06" fill="white" fill-opacity="0.7"/>
<path d="M110.68 229.64L101.32 229.64L101.32 227.67L104.90 227.67L104.90 214.09L101.32 214.09L101.32 212.12L110.68 212.12L110.68 214.09L107.10 214.09L107.10 227.67L110.68 227.67" fill="white" fill-opacity="0.7"/>
<path d="M120.40 229.88Q119.51 229.88 118.97 229.35Q118.43 228.82 118.43 227.98Q118.43 227.10 118.97 226.54Q119.51 225.99 120.40 225.99Q121.29 225.99 121.83 226.54Q122.37 227.10 122.37 227.98Q122.37 228.82 121.83 229.35Q121.29 229.88 120.40 229.88" fill="white" fill-opacity="0.7"/>
<path d="M76.11 136.06L66.42 136.06L84.56 65.98L97.14 65.98L115.18 136.06L105.49 136.06L101.07 117.82L80.53 117.82L76.11 136.06M87.54 88.92L82.45 109.95L99.15 109.95L94.16 89.02Q92.72 83.26 91.86 79.23Q90.99 75.20 90.80 73.76Q90.61 75.20 89.74 79.23Q88.88 83.26 87.54 88.92M146.86 136.06L128.05 136.06L128.05 65.98L146.86 65.98Q153.68 65.98 158.72 68.62Q163.76 71.26 166.54 76.01Q169.33 80.76 169.33 87.20L169.33 114.75Q169.33 121.18 166.54 125.98Q163.76 130.78 158.72 133.42Q153.68 136.06 146.86 136.06M137.55 74.43L137.55 127.61L146.86 127.61Q152.91 127.61 156.37 124.16Q159.82 120.70 159.82 114.75L159.82 87.20Q159.82 81.24 156.37 77.84Q152.91 74.43 146.86 74.43L137.55 74.43M210.80 136.06L201.30 136.06L201.30 110.04L180.27 65.98L190.35 65.98L203.31 93.63Q204.46 96.12 205.18 98.14Q205.90 100.16 206.10 101.02Q206.38 100.16 207.10 98.14Q207.82 96.12 209.07 93.63L221.94 65.98L231.73 65.98L210.80 110.04L210.80 136.06M284.91 136.06L244.11 136.06L244.11 65.98L284.91 65.98L284.91 74.52L253.52 74.52L253.52 95.36L281.55 95.36L281.55 103.61L253.52 103.61L253.52 127.52L284.91 127.52L284.91 136.06M309.58 136.06L300.66 136.06L300.66 65.98L312.94 65.98L333.87 125.12Q333.58 122.62 333.34 118.92Q333.10 115.23 332.96 111.24Q332.82 107.26 332.82 103.71L332.82 65.98L341.84 65.98L341.84 136.06L329.46 136.06L308.72 76.92Q308.91 79.42 309.10 83.02Q309.30 86.62 309.44 90.56Q309.58 94.49 309.58 97.95L309.58 136.06M437.74 136.06L416.14 136.06L416.14 65.98L436.40 65.98Q446.10 65.98 451.71 70.83Q457.33 75.68 457.33 84.12Q457.33 89.60 453.92 93.87Q450.51 98.14 445.14 99.10L445.14 99.39Q449.17 99.87 452.29 102.27Q455.41 104.67 457.18 108.36Q458.96 112.06 458.96 116.48Q458.96 125.50 453.25 130.78Q447.54 136.06 437.74 136.06M425.46 74.33L425.46 95.55L436.30 95.55Q441.68 95.55 444.75 92.72Q447.82 89.88 447.82 84.99Q447.82 80 444.75 77.16Q441.68 74.33 436.40 74.33L425.46 74.33M425.46 103.61L425.46 127.71L436.88 127.71Q442.74 127.71 446.10 124.59Q449.46 121.47 449.46 116.09Q449.46 110.52 446.10 107.07Q442.74 103.61 436.88 103.61L425.46 103.61M479.31 136.06L469.62 136.06L487.76 65.98L500.34 65.98L518.38 136.06L508.69 136.06L504.27 117.82L483.73 117.82L479.31 136.06M490.74 88.92L485.65 109.95L502.35 109.95L497.36 89.02Q495.92 83.26 495.06 79.23Q494.19 75.20 NaN 73.76Q493.81 75.20 492.94 79.23Q492.08 83.26 490.74 88.92M575.79 136.06L535.09 136.06L535.09 65.98L544.59 65.98L544.59 127.42L575.79 127.42L575.79 136.06M594.51 136.06L584.82 136.06L602.96 65.98L615.54 65.98L633.58 136.06L623.89 136.06L619.47 117.82L598.93 117.82L594.51 136.06M605.94 88.92L600.85 109.95L617.55 109.95L612.56 89.02Q611.12 83.26 610.26 79.23Q609.39 75.20 609.20 73.76Q609.01 75.20 608.14 79.23Q607.28 83.26 605.94 88.92M655.18 136.06L646.26 136.06L646.26 65.98L658.54 65.98L679.47 125.12Q679.18 122.62 678.94 118.92Q678.70 115.23 678.56 111.24Q678.42 107.26 678.42 103.71L678.42 65.98L687.44 65.98L687.44 136.06L675.06 136.06L654.32 76.92Q654.51 79.42 654.70 83.02Q654.90 86.62 655.04 90.56Q655.18 94.49 655.18 97.95L655.18 136.06M725.17 137.02Q715.47 137.02 709.76 131.60Q704.05 126.17 704.05 116.67L704.05 85.28Q704.05 75.87 709.76 70.44Q715.47 65.02 725.17 65.02Q734.77 65.02 740.48 70.49Q746.19 75.96 746.19 85.28L736.69 85.28Q736.69 79.61 733.62 76.54Q730.54 73.47 725.17 73.47Q719.70 73.47 716.62 76.54Q713.55 79.61 713.55 85.28L713.55 116.67Q713.55 122.43 716.62 125.50Q719.70 128.57 725.17 128.57Q730.54 128.57 733.62 125.50Q736.69 122.43 736.69 116.67L746.19 116.67Q746.19 126.08 740.48 131.55Q734.77 137.02 725.17 137.02M803.31 136.06L762.51 136.06L762.51 65.98L803.31 65.98L803.31 74.52L771.92 74.52L771.92 95.36L799.95 95.36L799.95 103.61L771.92 103.61L771.92 127.52L803.31 127.52L803.31 136.06M840.37 137.02Q830.67 137.02 824.96 131.60Q819.25 126.17 819.25 116.67L819.25 85.28Q819.25 75.87 824.96 70.44Q830.67 65.02 840.37 65.02Q849.97 65.02 855.68 70.49Q861.39 75.96 861.39 85.28L851.89 85.28Q851.89 79.61 848.82 76.54Q845.74 73.47 840.37 73.47Q834.90 73.47 831.82 76.54Q828.75 79.61 828.75 85.28L828.75 116.67Q828.75 122.43 831.82 125.50Q834.90 128.57 840.37 128.57Q845.74 128.57 848.82 125.50Q851.89 122.43 851.89 116.67L861.39 116.67Q861.39 126.08 855.68 131.55Q849.97 137.02 840.37 137.02M897.20 137.02Q887.60 137.02 882.03 131.45Q876.46 125.88 876.46 115.71L876.46 86.24Q876.46 76.16 882.03 70.59Q887.60 65.02 897.20 65.02Q906.80 65.02 912.37 70.54Q917.94 76.06 917.94 86.24L917.94 115.71Q917.94 125.88 912.37 131.45Q906.80 137.02 897.20 137.02M897.20 128.57Q902.58 128.57 905.50 125.50Q908.43 122.43 908.43 116.67L908.43 85.28Q908.43 79.61 905.55 76.54Q902.67 73.47 897.20 73.47Q891.73 73.47 888.85 76.54Q885.97 79.61 885.97 85.28L885.97 116.67Q885.97 122.43 888.90 125.50Q891.82 128.57 897.20 128.57M943.18 136.06L934.26 136.06L934.26 65.98L946.54 65.98L967.47 125.12Q967.18 122.62 966.94 118.92Q966.70 115.23 966.56 111.24Q966.42 107.26 966.42 103.71L966.42 65.98L975.44 65.98L975.44 136.06L963.06 136.06L942.32 76.92Q942.51 79.42 942.70 83.02Q942.90 86.62 943.04 90.56Q943.18 94.49 943.18 97.95L943.18 136.06M1017.20 136.06L1007.70 136.06L1007.70 74.62L988.69 74.62L988.69 65.98L1036.11 65.98L1036.11 74.62L1017.20 74.62L1017.20 136.06M1059.15 136.06L1049.74 136.06L1049.74 65.98L1071.44 65.98Q1077.87 65.98 1082.67 68.52Q1087.47 71.07 1090.16 75.63Q1092.85 80.19 1092.85 86.33Q1092.85 93.44 1089.25 98.52Q1085.65 103.61 1079.70 105.72L1093.81 136.06L1083.34 136.06LNaN 106.78L1059.15 106.78L1059.15 136.06M1059.15 74.43L1059.15 98.33L1071.44 98.33Q1076.82 98.33 1079.94 95.07Q1083.06 91.80 1083.06 86.43Q1083.06 80.96 1079.89 77.69Q1076.72 74.43 1071.44 74.43L1059.15 74.43M1127.60 137.02QNaN 137.02 1112.43 131.45Q1106.86 125.88 1106.86 115.71L1106.86 86.24Q1106.86 76.16 1112.43 70.59QNaN 65.02 1127.60 65.02Q1137.20 65.02 1142.77 70.54Q1148.34 76.06 1148.34 86.24L1148.34 115.71Q1148.34 125.88 1142.77 131.45Q1137.20 137.02 1127.60 137.02M1127.60 128.57Q1132.98 128.57 1135.90 125.50Q1138.83 122.43 1138.83 116.67L1138.83 85.28Q1138.83 79.61 1135.95 76.54Q1133.07 73.47 1127.60 73.47Q1122.13 73.47 1119.25 76.54Q1116.37 79.61 1116.37 85.28L1116.37 116.67Q1116.37 122.43 1119.30 125.50Q1122.22 128.57 1127.60 128.57M1209.39 136.06L1168.69 136.06L1168.69 65.98L1178.19 65.98L1178.19 127.42L1209.39 127.42L1209.39 136.06M1243.18 137.02Q1232.82 137.02 1226.67 131.60Q1220.53 126.17 1220.53 116.67L1230.03 116.67Q1230.03 122.24 1233.58 125.40Q1237.14 128.57 1243.18 128.57Q1248.94 128.57 1252.35 125.36Q1255.76 122.14 1255.76 116.76Q1255.76 112.73 1253.55 109.71Q1251.34 106.68 1247.31 105.63L1236.94 102.84Q1230.13 100.92 1226.14 95.88Q1222.16 90.84 1222.16 83.93Q1222.16 78.27 1224.70 74Q1227.25 69.72 1231.86 67.37Q1236.46 65.02 1242.51 65.02Q1248.66 65.02 1253.31 67.37Q1257.97 69.72 1260.56 73.95Q1263.15 78.17 1263.15 83.74L1253.74 83.74Q1253.74 79.13 1250.62 76.25Q1247.50 73.37 1242.51 73.37Q1237.52 73.37 1234.50 76.25Q1231.47 79.13 1231.47 83.74Q1231.47 87.48 1233.49 90.03Q1235.50 92.57 1239.15 93.63L1249.81 96.51Q1257.01 98.43 1261.04 103.85Q1265.07 109.28 1265.07 116.76Q1265.07 122.91 1262.38 127.47Q1259.70 132.03 1254.75 134.52Q1249.81 137.02 1243.18 137.02M1321.71 136.06L1280.91 136.06L1280.91 65.98L1321.71 65.98L1321.71 74.52L1290.32 74.52L1290.32 95.36L1318.35 95.36L1318.35 103.61L1290.32 103.61L1290.32 127.52L1321.71 127.52L1321.71 136.06M1347.15 136.06L1337.74 136.06L1337.74 65.98L1359.44 65.98Q1365.87 65.98 1370.67 68.52Q1375.47 71.07 1378.16 75.63Q1380.85 80.19 1380.85 86.33Q1380.85 93.44 1377.25 98.52Q1373.65 103.61 1367.70 105.72L1381.81 136.06L1371.34 136.06L1358 106.78L1347.15 106.78L1347.15 136.06M1347.15 74.43L1347.15 98.33L1359.44 98.33Q1364.82 98.33 1367.94 95.07Q1371.06 91.80 1371.06 86.43Q1371.06 80.96 1367.89 77.69Q1364.72 74.43 1359.44 74.43L1347.15 74.43M1421.94 136.06L1409.17 136.06L1391.22 65.98L1401.01 65.98L1412.62 113.21Q1413.78 117.72 1414.59 121.90Q1415.41 126.08 1415.79 128.28Q1416.08 126.08 1416.99 121.85Q1417.90 117.63 1418.96 113.12L1430.19 65.98L1439.98 65.98L1421.94 136.06M1492.30 136.06L1454.10 136.06L1454.10 127.42L1468.40 127.42L1468.40 74.62L1454.10 74.62L1454.10 65.98L1492.30 65.98L1492.30 74.62L1478 74.62L1478 127.42L1492.30 127.42L1492.30 136.06M1531.57 137.02Q1521.87 137.02 1516.16 131.60Q1510.45 126.17 1510.45 116.67L1510.45 85.28Q1510.45 75.87 1516.16 70.44Q1521.87 65.02 1531.57 65.02Q1541.17 65.02 1546.88 70.49Q1552.59 75.96 1552.59 85.28L1543.09 85.28Q1543.09 79.61 1540.02 76.54Q1536.94 73.47 1531.57 73.47Q1526.10 73.47 1523.02 76.54Q1519.95 79.61 1519.95 85.28L1519.95 116.67Q1519.95 122.43 1523.02 125.50Q1526.10 128.57 1531.57 128.57Q1536.94 128.57 1540.02 125.50Q1543.09 122.43 1543.09 116.67L1552.59 116.67Q1552.59 126.08 1546.88 131.55Q1541.17 137.02 1531.57 137.02M1609.71 136.06L1568.91 136.06L1568.91 65.98L1609.71 65.98L1609.71 74.52L1578.32 74.52L1578.32 95.36L1606.35 95.36L1606.35 103.61L1578.32 103.61L1578.32 127.52L1609.71 127.52" fill="url(#paint2_linear_0_1)"/>
<g id="Group 1">
<rect id="Rectangle 1" x="26" y="168" width="12" height="184" rx="5" fill="url(#paint3_linear_0_1)" fill-opacity="0.9"/>
</g>
<g id="Group 1_2">
<rect id="Rectangle 2" x="26" y="38" width="12" height="119" rx="5" fill="url(#paint4_linear_0_1)" fill-opacity="0.9"/>
</g>
<ellipse id="Ellipse 1" cx="148.5" cy="573" rx="215.5" ry="214" fill="url(#paint5_linear_0_1)" fill-opacity="0.4"/>
<rect id="Rectangle 3" x="1229" y="48" width="300" height="300" rx="25" fill="#FFFBFB" fill-opacity="0.9"/>
<g id="placeholder-logo"><g transform="translate(1229,48) translate(0.0,60.0) scale(1.2000)"><g fill="#666666">
  <path d="m88.05,27.65c-3.15,4 -3.2,51.2 -0.05,54.35c2.75,2.75 71.7,3.15 74.45,0.45c2.85,-2.9 2.3,-53.85 -0.65,-55.9c-1.95,-1.35 -7.15,-1.55 -36.95,-1.55l-34.7,0l-2.1,2.65zm69.45,3.35c0.65,0 1,8.6 1,23.75l0,23.75l-33,0l-33,0l-0.25,-23c-0.15,-12.6 -0.1,-23.45 0.15,-24.1c0.35,-0.85 8.9,-1.05 32.25,-0.75c17.55,0.2 32.3,0.35 32.85,0.35z"/>
  <path d="m99.15,37.3c-6.85,7.35 4.25,17.35 11.4,10.25c1.35,-1.35 2.45,-3.65 2.45,-5.05c0,-6.45 -9.35,-9.95 -13.85,-5.2z"/>
  <path d="m135,42.5c-0.7,0.85 -5.25,5.15 -10.1,9.6l-8.85,8.1l-3.2,-3.2l-3.15,-3.15l-6.35,6.3c-5.55,5.5 -6.35,6.75 -6.35,10.05l0,3.8l28.5,0l28.5,0l0,-8.6l0,-8.55l-8.15,-7.7c-9.35,-8.85 -9.15,-8.7 -10.85,-6.65zm7.25,15.2c0.95,0.9 1.75,2.9 1.75,4.45c6.35,-5.05 4.75,-7.15 4.9,-11.55c0.95,0 0,0 0,0l-6.65,7.1z"/>
  <path d="m53.65,110.75c0.1,4.8 0.45,8.65 0.75,8.5c0.35,-0.15 1.3,-0.25 2.1,-0.25c1.1,0 1.5,-1.2 1.5,-4.75l0,-4.75l3.25,5c4.9,7.5 6.2,6.75 6.55,-3.75c0.25,-8.15 0.15,-8.75 -1.7,-8.75c-1.65,0 -2.05,0.8 -2.3,4.75l-0.3,4.75l-2.8,-4.75c-4.85,-8.25 -7.25,-6.9 -7.05,4z"/>
  <path d="m91,108.9c0,9.65 0.3,10.1 6.1,10.1c5.8,0 7.15,-2.65 1.65,-3.2l-3.25,-0.3l-0.3,-6.75c-0.25,-5.95 -0.55,-6.75 -2.25,-6.75c-1.75,0 -1.95,0.7 -1.95,6.9z"/>
  <path d="m151,102.45c0,0.25 1,2.15 2.25,4.2c1.2,2.1 2.45,5.8 2.75,8.25c0.65,5.9 4,6.95 4,1.25c0.05,-2.1 1.25,-5.85 2.95,-8.9l2.9,-5.25l-2.5,0c-1.8,0 -2.8,0.85 -3.75,3.1l-1.3,3.05l-1.25,-3.05c-1.1,-2.6 -6.05,-4.8 -6.05,-2.65z"/>
  <path d="m191,107.45c0,9.05 3.4,8.85 4.25,-0.2c0.45,-5 0.35,-5.25 -1.9,-5.25c-2.2,0 -2.35,0.4 -2.35,5.45z"/>
  <path d="m180.8,104.75c-1.3,5.35 0.65,13.6 3.45,14.35c2.3,0.6 2.75,0.4 2.75,-1.2c0,-1.05 -0.45,-1.9 -1,-1.9c-0.55,0 -1,-1.6 -1,-3.5c0,-1.95 0.45,-3.5 1,-3.5c0.55,0 1,-0.7 1,-1.5c0,-0.85 -0.45,-1.5 -1,-1.5c-0.55,0 -1,-0.7 -1,-1.5c0,-2.1 -3.65,-1.9 -4.2,0.25z"/>
  <path d="m71.55,106.55c-2.2,2.25 -2.05,9.7 0.3,11.8c4.5,4.1 10.15,0.75 10.15,-6.1c0,-4.85 -2,-7.25 -6,-7.25c-1.55,0 -3.55,0.7 -4.45,1.55zm6.25,5.8c0.25,3.05 0,3.65 -1.6,3.65c-2.3,0 -3.25,-2.65 -2.05,-5.85c1.25,-3.35 3.3,-2.1 3.65,2.2z"/>
  <path d="m105.75,106.1c-2.5,1.45 -2.45,9.95 0.1,12.25c4.3,3.9 10.15,0.35 10.15,-6.2c0,-6 -5.15,-9.05 -10.25,-6.05zm6.05,6.25c0.25,3.05 0,3.65 -1.6,3.65c-2.3,0 -3.25,-2.65 -2.05,-5.85c1.25,-3.35 3.3,-2.1 3.65,2.2z"/>
  <path d="m119.2,106.2c-3.8,3.8 -0.4,12.55 4.4,11.35c1.9,-0.45 2.45,-0.3 2.15,0.65c-0.25,0.7 -1.55,1.2 -2.85,1.1c-4.05,-0.3 -5.35,0.45 -3.85,2.25c0.85,1.05 2.6,1.45 5.35,1.25l4.1,-0.3l0.3,-8.75l0.3,-8.75l-4.35,0c-2.4,0 -4.9,0.55 -5.55,1.2zm6.6,4.45c0.4,2.85 -2.15,4.85 -3.75,2.95c-0.9,-1.1 -0.9,-2 -0.05,-3.6c1.35,-2.5 3.4,-2.15 3.8,0.65z"/>
  <path d="m133.55,106.55c-2.2,2.25 -2.05,9.7 0.3,11.8c4.5,4.1 10.15,0.75 10.15,-6.1c0,-4.85 -2,-7.25 -6,-7.25c-1.55,0 -3.55,0.7 -4.45,1.55zm6.25,5.8c0.25,3.05 0,3.65 -1.6,3.65c-2.3,0 -3.25,-2.65 -2.05,-5.85c1.25,-3.35 3.3,-2.1 3.65,2.2z"/>
  <path d="m167.65,106.85c-3.9,4.3 -0.75,13.15 4.7,13.15c2.4,0 5.65,-2.75 5.65,-4.85c0,-1.4 -2.65,-1.55 -3.5,-0.15c-0.95,1.55 -4.5,1.15 -4.5,-0.5c0,-1.1 1.1,-1.5 4,-1.5c3.15,0 4,-0.35 4,-1.8c0,-5.3 -6.85,-8.25 -10.35,-4.35z"/>
  <path d="m191,117.5c0,2.15 0.4,2.6 2.25,2.3c1.5,-0.2 2.25,-1 2.25,-2.3c0,-1.3 -0.75,-2.1 -2.25,-2.3c-1.85,-0.3 -2.25,0.15 -2.25,2.3z"/>
 </g></g></g>
</g>
<defs>
<linearGradient id="paint0_linear_0_1" x1="0" y1="198" x2="1584" y2="198" gradientUnits="userSpaceOnUse">
<stop stop-color="#3D052C"/>
<stop offset="1"/>
</linearGradient>
<linearGradient id="paint1_linear_0_1" x1="323" y1="-224" x2="323" y2="352" gradientUnits="userSpaceOnUse">
<stop stop-color="#28F6F2" stop-opacity="0.4"/>
<stop offset="1" stop-color="#17908E" stop-opacity="0.7"/>
</linearGradient>
<linearGradient id="paint2_linear_0_1" x1="148.5" y1="38" x2="148.5" y2="140" gradientUnits="userSpaceOnUse">
<stop stop-color="white"/>
<stop offset="1" stop-color="#999999"/>
</linearGradient>
<linearGradient id="paint3_linear_0_1" x1="38" y1="260" x2="26" y2="260" gradientUnits="userSpaceOnUse">
<stop stop-color="#D9D9D9"/>
<stop offset="1" stop-color="#737373"/>
</linearGradient>
<linearGradient id="paint4_linear_0_1" x1="38" y1="97.5" x2="26" y2="97.5" gradientUnits="userSpaceOnUse">
<stop stop-color="#D9D9D9"/>
<stop offset="1" stop-color="#737373"/>
</linearGradient>
<linearGradient id="paint5_linear_0_1" x1="27.5" y1="434.5" x2="148.5" y2="787" gradientUnits="userSpaceOnUse">
<stop stop-color="#2E21BC"/>
<stop offset="1" stop-color="#150F56"/>
</linearGradient>
<clipPath id="clip0_0_1">
<rect width="1584" height="396" fill="white"/>
</clipPath>
</defs>
</svg>
